<svg xmlns="http://www.w3.org/2000/svg" xmlns:xlink="http://www.w3.org/1999/xlink" contentStyleType="text/css" height="867px" preserveAspectRatio="none" style="width:1843px;height:867px;background:#FFFFFF;" version="1.1" viewBox="0 0 1843 867" width="1843.8px" zoomAndPan="magnify"><defs/><g><!--class Principal--><g id="elem_Principal"><rect codeLine="4" fill="#F1F1F1" height="73.4906" id="Principal" rx="1.5" ry="1.5" style="stroke:#181818;stroke-width:0.3;" width="175.0564" x="543.3" y="48.9"/><ellipse cx="612.1714" cy="58.5" fill="#ADD1B2" rx="6.6" ry="6.6" style="stroke:#181818;stroke-width:0.6;"/><path d="M613.8308,56.025 Q613.9245,55.8938 614.037,55.8281 Q614.1495,55.7625 614.2808,55.7625 Q614.5058,55.7625 614.6464,55.9219 Q614.787,56.0719 614.787,56.4375 L614.787,57.3094 Q614.787,57.675 614.6464,57.8344 Q614.5058,57.9938 614.2808,57.9938 Q614.0745,57.9938 613.9526,57.8719 Q613.8308,57.7594 613.7651,57.45 Q613.737,57.2344 613.6245,57.1219 Q613.4276,56.8969 613.062,56.7656 Q612.6964,56.6344 612.3214,56.6344 Q611.862,56.6344 611.4776,56.8313 Q611.1026,57.0281 610.8026,57.4781 Q610.512,57.9281 610.512,58.5469 L610.512,59.2031 Q610.512,59.9437 611.0464,60.4406 Q611.5808,60.9281 612.537,60.9281 Q613.0995,60.9281 613.4933,60.7781 Q613.7276,60.6844 613.9808,60.4219 Q614.1401,60.2625 614.2245,60.2156 Q614.3183,60.1687 614.4401,60.1687 Q614.637,60.1687 614.787,60.3281 Q614.9464,60.4781 614.9464,60.6844 Q614.9464,60.8906 614.7401,61.1344 Q614.4401,61.4812 613.962,61.6781 Q613.3151,61.95 612.537,61.95 Q611.6276,61.95 610.9058,61.575 Q610.3151,61.275 609.9026,60.6375 Q609.4901,59.9906 609.4901,59.2219 L609.4901,58.5281 Q609.4901,57.7312 609.8558,57.0469 Q610.2308,56.3531 610.887,55.9875 Q611.5433,55.6125 612.2839,55.6125 Q612.7245,55.6125 613.1089,55.7156 Q613.5026,55.8094 613.8308,56.025 Z " fill="#000000"/><text fill="#000000" font-family="sans-serif" font-size="8.4" lengthAdjust="spacing" textLength="32.2137" x="624.4714" y="61.9781">Principal</text><line style="stroke:#181818;stroke-width:0.3;" x1="543.9" x2="717.7564" y1="68.1" y2="68.1"/><line style="stroke:#181818;stroke-width:0.3;" x1="543.9" x2="717.7564" y1="72.9" y2="72.9"/><text fill="#000000" font-family="sans-serif" font-size="8.4" lengthAdjust="spacing" textLength="75.3949" x="546.9" y="84.3645">+main(String[]): void</text><text fill="#000000" font-family="sans-serif" font-size="8.4" lengthAdjust="spacing" textLength="80.0584" x="546.9" y="95.5371">+mostrarMenu(): void</text><text fill="#000000" font-family="sans-serif" font-size="8.4" lengthAdjust="spacing" textLength="167.8564" x="546.9" y="106.7098">+gestionarOpciones(int, Concesionario): void</text><text fill="#000000" font-family="sans-serif" font-size="8.4" lengthAdjust="spacing" textLength="135.6346" x="546.9" y="117.8824">+crearVehiculo(Concesionario): void</text></g><!--class Concesionario--><g id="elem_Concesionario"><rect codeLine="11" fill="#F1F1F1" height="162.8719" id="Concesionario" rx="1.5" ry="1.5" style="stroke:#181818;stroke-width:0.3;" width="155.898" x="1440.3" y="4.2"/><ellipse cx="1488.8502" cy="13.8" fill="#ADD1B2" rx="6.6" ry="6.6" style="stroke:#181818;stroke-width:0.6;"/><path d="M1490.5096,11.325 Q1490.6033,11.1938 1490.7158,11.1281 Q1490.8283,11.0625 1490.9596,11.0625 Q1491.1846,11.0625 1491.3252,11.2219 Q1491.4658,11.3719 1491.4658,11.7375 L1491.4658,12.6094 Q1491.4658,12.975 1491.3252,13.1344 Q1491.1846,13.2938 1490.9596,13.2938 Q1490.7533,13.2938 1490.6314,13.1719 Q1490.5096,13.0594 1490.4439,12.75 Q1490.4158,12.5344 1490.3033,12.4219 Q1490.1064,12.1969 1489.7408,12.0656 Q1489.3752,11.9344 1489.0002,11.9344 Q1488.5408,11.9344 1488.1564,12.1313 Q1487.7814,12.3281 1487.4814,12.7781 Q1487.1908,13.2281 1487.1908,13.8469 L1487.1908,14.5031 Q1487.1908,15.2437 1487.7252,15.7406 Q1488.2596,16.2281 1489.2158,16.2281 Q1489.7783,16.2281 1490.1721,16.0781 Q1490.4064,15.9844 1490.6596,15.7219 Q1490.8189,15.5625 1490.9033,15.5156 Q1490.9971,15.4688 1491.1189,15.4688 Q1491.3158,15.4688 1491.4658,15.6281 Q1491.6252,15.7781 1491.6252,15.9844 Q1491.6252,16.1906 1491.4189,16.4344 Q1491.1189,16.7813 1490.6408,16.9781 Q1489.9939,17.25 1489.2158,17.25 Q1488.3064,17.25 1487.5846,16.875 Q1486.9939,16.575 1486.5814,15.9375 Q1486.1689,15.2906 1486.1689,14.5219 L1486.1689,13.8281 Q1486.1689,13.0313 1486.5346,12.3469 Q1486.9096,11.6531 1487.5658,11.2875 Q1488.2221,10.9125 1488.9627,10.9125 Q1489.4033,10.9125 1489.7877,11.0156 Q1490.1814,11.1094 1490.5096,11.325 Z " fill="#000000"/><text fill="#000000" font-family="sans-serif" font-size="8.4" lengthAdjust="spacing" textLength="53.6977" x="1501.1502" y="17.2781">Concesionario</text><line style="stroke:#181818;stroke-width:0.3;" x1="1440.9" x2="1595.598" y1="23.4" y2="23.4"/><text fill="#000000" font-family="sans-serif" font-size="8.4" lengthAdjust="spacing" textLength="100.3816" x="1443.9" y="34.8645">-stockVehiculos: Vehiculo[]</text><text fill="#000000" font-family="sans-serif" font-size="8.4" lengthAdjust="spacing" textLength="85.4479" x="1443.9" y="46.0371">-contadorVehiculos: int</text><line style="stroke:#181818;stroke-width:0.3;" x1="1440.9" x2="1595.598" y1="50.5453" y2="50.5453"/><text fill="#000000" font-family="sans-serif" font-size="8.4" lengthAdjust="spacing" textLength="103.4168" x="1443.9" y="62.0098">+buscarVehiculo(String): int</text><text fill="#000000" font-family="sans-serif" font-size="8.4" lengthAdjust="spacing" textLength="137.5172" x="1443.9" y="73.1824">+insertarVehiculo(Vehiculo): boolean</text><text fill="#000000" font-family="sans-serif" font-size="8.4" lengthAdjust="spacing" textLength="135.1793" x="1443.9" y="84.3551">+asignarPropietario(String): boolean</text><text fill="#000000" font-family="sans-serif" font-size="8.4" lengthAdjust="spacing" textLength="134.6953" x="1443.9" y="95.5277">+informacionVehiculo(String): String</text><text fill="#000000" font-family="sans-serif" font-size="8.4" lengthAdjust="spacing" textLength="102.4816" x="1443.9" y="106.7004">+listadoVehiculos(): String[]</text><text fill="#000000" font-family="sans-serif" font-size="8.4" lengthAdjust="spacing" textLength="128.6291" x="1443.9" y="117.873">+listadoVehiculosDetalle(): String[]</text><text fill="#000000" font-family="sans-serif" font-size="8.4" lengthAdjust="spacing" textLength="86.1451" x="1443.9" y="129.0457">+esAlmacenLleno(): int</text><text fill="#000000" font-family="sans-serif" font-size="8.4" lengthAdjust="spacing" textLength="115.7994" x="1443.9" y="140.2184">-esPosicionValida(int): boolean</text><text fill="#000000" font-family="sans-serif" font-size="8.4" lengthAdjust="spacing" textLength="125.8195" x="1443.9" y="151.391">+calcularRiesgoFinal(String): void</text><text fill="#000000" font-family="sans-serif" font-size="8.4" lengthAdjust="spacing" textLength="148.698" x="1443.9" y="162.5637">+calcularDepreciacionFinal(String): void</text></g><!--class Vehiculo--><g id="elem_Vehiculo"><rect codeLine="28" fill="#F1F1F1" height="207.5625" id="Vehiculo" rx="1.5" ry="1.5" style="stroke:#181818;stroke-width:0.3;" width="192.5701" x="1183.8" y="214.2"/><ellipse cx="1261.4241" cy="223.8" fill="#A9DCDF" rx="6.6" ry="6.6" style="stroke:#181818;stroke-width:0.6;"/><path d="M1262.7366,224.8594 L1260.2522,224.8594 L1259.9991,225.4781 L1260.2522,225.4781 Q1260.6179,225.4781 1260.7772,225.6188 Q1260.9366,225.7594 1260.9366,225.9938 Q1260.9366,226.2188 1260.7772,226.3594 Q1260.6179,226.5 1260.2522,226.5 L1258.8741,226.5 Q1258.5085,226.5 1258.3585,226.3594 Q1258.1991,226.2188 1258.1991,225.9844 Q1258.1991,225.7594 1258.3679,225.6188 Q1258.5272,225.4688 1258.9022,225.4781 L1260.5054,221.4844 L1259.8397,221.4844 Q1259.4741,221.4844 1259.3147,221.3438 Q1259.1554,221.2031 1259.1554,220.9688 Q1259.1554,220.7438 1259.3147,220.6031 Q1259.4741,220.4625 1259.8397,220.4625 L1262.0429,220.4625 L1264.0772,225.4781 Q1264.4335,225.4781 1264.546,225.5625 Q1264.7804,225.7219 1264.7804,225.9938 Q1264.7804,226.2188 1264.621,226.3594 Q1264.471,226.5 1264.1054,226.5 L1262.7272,226.5 Q1262.3616,226.5 1262.2022,226.3594 Q1262.0429,226.2188 1262.0429,225.9844 Q1262.0429,225.7594 1262.2022,225.6188 Q1262.3616,225.4781 1262.7272,225.4781 L1262.9804,225.4781 L1262.7366,224.8594 Z M1262.3054,223.8375 L1261.4897,221.8125 L1260.6647,223.8375 L1262.3054,223.8375 Z " fill="#000000"/><text fill="#000000" font-family="sans-serif" font-size="8.4" font-style="italic" lengthAdjust="spacing" textLength="32.2219" x="1273.7241" y="227.2781">Vehiculo</text><line style="stroke:#181818;stroke-width:0.3;" x1="1184.4" x2="1375.7701" y1="233.4" y2="233.4"/><text fill="#000000" font-family="sans-serif" font-size="8.4" lengthAdjust="spacing" textLength="65.3584" x="1187.4" y="244.8645">#matricula: String</text><text fill="#000000" font-family="sans-serif" font-size="8.4" lengthAdjust="spacing" textLength="54.6205" x="1187.4" y="256.0371">#marca: String</text><text fill="#000000" font-family="sans-serif" font-size="8.4" lengthAdjust="spacing" textLength="58.8328" x="1187.4" y="267.2098">#modelo: String</text><text fill="#000000" font-family="sans-serif" font-size="8.4" lengthAdjust="spacing" textLength="75.6451" x="1187.4" y="278.3824">#anoFabricacion: int</text><text fill="#000000" font-family="sans-serif" font-size="8.4" lengthAdjust="spacing" textLength="58.8246" x="1187.4" y="289.5551">#kilometraje: int</text><text fill="#000000" font-family="sans-serif" font-size="8.4" lengthAdjust="spacing" textLength="57.4424" x="1187.4" y="300.7277">#precio: double</text><text fill="#000000" font-family="sans-serif" font-size="8.4" lengthAdjust="spacing" textLength="84.525" x="1187.4" y="311.9004">#isDisponible: boolean</text><text fill="#000000" font-family="sans-serif" font-size="8.4" lengthAdjust="spacing" textLength="80.3168" x="1187.4" y="323.073">#propietario: Persona</text><line style="stroke:#181818;stroke-width:0.3;" x1="1184.4" x2="1375.7701" y1="327.5813" y2="327.5813"/><text fill="#000000" font-family="sans-serif" font-size="8.4" lengthAdjust="spacing" textLength="137.9561" x="1187.4" y="339.0457">+pedirValidarMatricula(String): String</text><text fill="#000000" font-family="sans-serif" font-size="8.4" font-style="italic" lengthAdjust="spacing" textLength="92.2031" x="1187.4" y="350.2184">+calcularRiesgo(): String</text><text fill="#000000" font-family="sans-serif" font-size="8.4" lengthAdjust="spacing" textLength="95.2547" x="1187.4" y="361.391">#calcularAntiguedad(): int</text><text fill="#000000" font-family="sans-serif" font-size="8.4" font-style="italic" lengthAdjust="spacing" textLength="118.3629" x="1187.4" y="372.5637">+calcularDepreciacion(): double</text><text fill="#000000" font-family="sans-serif" font-size="8.4" lengthAdjust="spacing" textLength="162.9715" x="1187.4" y="383.7363">#calcularDepreciacionEdad(double): double</text><text fill="#000000" font-family="sans-serif" font-size="8.4" lengthAdjust="spacing" textLength="185.3701" x="1187.4" y="394.909">#calcularDepreciacionKilometraje(double): double</text><text fill="#000000" font-family="sans-serif" font-size="8.4" lengthAdjust="spacing" textLength="124.8639" x="1187.4" y="406.0816">+imprimirDatosComunes(): String</text><text fill="#000000" font-family="sans-serif" font-size="8.4" font-style="italic" lengthAdjust="spacing" textLength="121.1355" x="1187.4" y="417.2543">+imprimirDatosVehiculo(): String</text></g><!--class Persona--><g id="elem_Persona"><rect codeLine="47" fill="#F1F1F1" height="107.0086" id="Persona" rx="1.5" ry="1.5" style="stroke:#181818;stroke-width:0.3;" width="135.3574" x="1612.5" y="474.9"/><ellipse cx="1661.9854" cy="484.5" fill="#ADD1B2" rx="6.6" ry="6.6" style="stroke:#181818;stroke-width:0.6;"/><path d="M1663.6447,482.025 Q1663.7385,481.8937 1663.851,481.8281 Q1663.9635,481.7625 1664.0947,481.7625 Q1664.3197,481.7625 1664.4604,481.9219 Q1664.601,482.0719 1664.601,482.4375 L1664.601,483.3094 Q1664.601,483.675 1664.4604,483.8344 Q1664.3197,483.9938 1664.0947,483.9938 Q1663.8885,483.9938 1663.7666,483.8719 Q1663.6447,483.7594 1663.5791,483.45 Q1663.551,483.2344 1663.4385,483.1219 Q1663.2416,482.8969 1662.876,482.7656 Q1662.5104,482.6344 1662.1354,482.6344 Q1661.676,482.6344 1661.2916,482.8312 Q1660.9166,483.0281 1660.6166,483.4781 Q1660.326,483.9281 1660.326,484.5469 L1660.326,485.2031 Q1660.326,485.9437 1660.8604,486.4406 Q1661.3947,486.9281 1662.351,486.9281 Q1662.9135,486.9281 1663.3072,486.7781 Q1663.5416,486.6844 1663.7947,486.4219 Q1663.9541,486.2625 1664.0385,486.2156 Q1664.1322,486.1688 1664.2541,486.1688 Q1664.451,486.1688 1664.601,486.3281 Q1664.7604,486.4781 1664.7604,486.6844 Q1664.7604,486.8906 1664.5541,487.1344 Q1664.2541,487.4813 1663.776,487.6781 Q1663.1291,487.95 1662.351,487.95 Q1661.4416,487.95 1660.7197,487.575 Q1660.1291,487.275 1659.7166,486.6375 Q1659.3041,485.9906 1659.3041,485.2219 L1659.3041,484.5281 Q1659.3041,483.7313 1659.6697,483.0469 Q1660.0447,482.3531 1660.701,481.9875 Q1661.3572,481.6125 1662.0979,481.6125 Q1662.5385,481.6125 1662.9229,481.7156 Q1663.3166,481.8094 1663.6447,482.025 Z " fill="#000000"/><text fill="#000000" font-family="sans-serif" font-size="8.4" lengthAdjust="spacing" textLength="31.2867" x="1674.2854" y="487.9781">Persona</text><line style="stroke:#181818;stroke-width:0.3;" x1="1613.1" x2="1747.2574" y1="494.1" y2="494.1"/><text fill="#000000" font-family="sans-serif" font-size="8.4" lengthAdjust="spacing" textLength="57.8895" x="1616.1" y="505.5645">-nombre: String</text><text fill="#000000" font-family="sans-serif" font-size="8.4" lengthAdjust="spacing" textLength="62.5652" x="1616.1" y="516.7371">-apellidos: String</text><text fill="#000000" font-family="sans-serif" font-size="8.4" lengthAdjust="spacing" textLength="31.2785" x="1616.1" y="527.9098">-dni: Dni</text><text fill="#000000" font-family="sans-serif" font-size="8.4" lengthAdjust="spacing" textLength="72.368" x="1616.1" y="539.0824">-anoNacimiento: int</text><text fill="#000000" font-family="sans-serif" font-size="8.4" lengthAdjust="spacing" textLength="55.5639" x="1616.1" y="550.2551">-anoCarnet: int</text><line style="stroke:#181818;stroke-width:0.3;" x1="1613.1" x2="1747.2574" y1="554.7633" y2="554.7633"/><text fill="#000000" font-family="sans-serif" font-size="8.4" lengthAdjust="spacing" textLength="128.1574" x="1616.1" y="566.2277">+solicitarDatosPersona(): Persona</text><text fill="#000000" font-family="sans-serif" font-size="8.4" lengthAdjust="spacing" textLength="66.0598" x="1616.1" y="577.4004">+toString(): String</text></g><!--class Dni--><g id="elem_Dni"><rect codeLine="57" fill="#F1F1F1" height="129.3539" id="Dni" rx="1.5" ry="1.5" style="stroke:#181818;stroke-width:0.3;" width="121.3465" x="1718.7" y="253.2"/><ellipse cx="1770.5212" cy="262.8" fill="#ADD1B2" rx="6.6" ry="6.6" style="stroke:#181818;stroke-width:0.6;"/><path d="M1772.1806,260.325 Q1772.2743,260.1937 1772.3868,260.1281 Q1772.4993,260.0625 1772.6306,260.0625 Q1772.8556,260.0625 1772.9962,260.2219 Q1773.1368,260.3719 1773.1368,260.7375 L1773.1368,261.6094 Q1773.1368,261.975 1772.9962,262.1344 Q1772.8556,262.2938 1772.6306,262.2938 Q1772.4243,262.2938 1772.3024,262.1719 Q1772.1806,262.0594 1772.1149,261.75 Q1772.0868,261.5344 1771.9743,261.4219 Q1771.7774,261.1969 1771.4118,261.0656 Q1771.0462,260.9344 1770.6712,260.9344 Q1770.2118,260.9344 1769.8274,261.1312 Q1769.4524,261.3281 1769.1524,261.7781 Q1768.8618,262.2281 1768.8618,262.8469 L1768.8618,263.5031 Q1768.8618,264.2438 1769.3962,264.7406 Q1769.9306,265.2281 1770.8868,265.2281 Q1771.4493,265.2281 1771.8431,265.0781 Q1772.0774,264.9844 1772.3306,264.7219 Q1772.4899,264.5625 1772.5743,264.5156 Q1772.6681,264.4688 1772.7899,264.4688 Q1772.9868,264.4688 1773.1368,264.6281 Q1773.2962,264.7781 1773.2962,264.9844 Q1773.2962,265.1906 1773.0899,265.4344 Q1772.7899,265.7813 1772.3118,265.9781 Q1771.6649,266.25 1770.8868,266.25 Q1769.9774,266.25 1769.2556,265.875 Q1768.6649,265.575 1768.2524,264.9375 Q1767.8399,264.2906 1767.8399,263.5219 L1767.8399,262.8281 Q1767.8399,262.0313 1768.2056,261.3469 Q1768.5806,260.6531 1769.2368,260.2875 Q1769.8931,259.9125 1770.6337,259.9125 Q1771.0743,259.9125 1771.4587,260.0156 Q1771.8524,260.1094 1772.1806,260.325 Z " fill="#000000"/><text fill="#000000" font-family="sans-serif" font-size="8.4" lengthAdjust="spacing" textLength="12.6041" x="1782.8212" y="266.2781">Dni</text><line style="stroke:#181818;stroke-width:0.3;" x1="1719.3" x2="1839.4465" y1="272.4" y2="272.4"/><text fill="#000000" font-family="sans-serif" font-size="8.4" lengthAdjust="spacing" textLength="45.2813" x="1722.3" y="283.8645">-numDni: int</text><text fill="#000000" font-family="sans-serif" font-size="8.4" lengthAdjust="spacing" textLength="81.2232" x="1722.3" y="295.0371">-LETRAS_DNI: String</text><line style="stroke:#181818;stroke-width:0.3;" x1="1719.3" x2="1839.4465" y1="299.5453" y2="299.5453"/><text fill="#000000" font-family="sans-serif" font-size="8.4" lengthAdjust="spacing" textLength="96.6287" x="1722.3" y="311.0098">-calcularLetraNif(int): char</text><text fill="#000000" font-family="sans-serif" font-size="8.4" lengthAdjust="spacing" textLength="106.899" x="1722.3" y="322.1824">-extraerLetraNif(String): char</text><text fill="#000000" font-family="sans-serif" font-size="8.4" lengthAdjust="spacing" textLength="112.268" x="1722.3" y="333.3551">+extraerNumeroNif(String): int</text><text fill="#000000" font-family="sans-serif" font-size="8.4" lengthAdjust="spacing" textLength="84.7383" x="1722.3" y="344.5277">+obtenerNif(int): String</text><text fill="#000000" font-family="sans-serif" font-size="8.4" lengthAdjust="spacing" textLength="114.1465" x="1722.3" y="355.7004">+pedirValidarNif(String): String</text><text fill="#000000" font-family="sans-serif" font-size="8.4" lengthAdjust="spacing" textLength="102.0182" x="1722.3" y="366.873">+validarNif(String): boolean</text><text fill="#000000" font-family="sans-serif" font-size="8.4" lengthAdjust="spacing" textLength="80.0666" x="1722.3" y="378.0457">+dniToString(): String</text></g><!--class Camion--><g id="elem_Camion"><rect codeLine="69" fill="#F1F1F1" height="107.0086" id="Camion" rx="1.5" ry="1.5" style="stroke:#181818;stroke-width:0.3;" width="128.3355" x="1046.1" y="474.9"/><ellipse cx="1093.2454" cy="484.5" fill="#ADD1B2" rx="6.6" ry="6.6" style="stroke:#181818;stroke-width:0.6;"/><path d="M1094.9048,482.025 Q1094.9985,481.8937 1095.111,481.8281 Q1095.2235,481.7625 1095.3548,481.7625 Q1095.5798,481.7625 1095.7204,481.9219 Q1095.861,482.0719 1095.861,482.4375 L1095.861,483.3094 Q1095.861,483.675 1095.7204,483.8344 Q1095.5798,483.9938 1095.3548,483.9938 Q1095.1485,483.9938 1095.0267,483.8719 Q1094.9048,483.7594 1094.8392,483.45 Q1094.811,483.2344 1094.6985,483.1219 Q1094.5017,482.8969 1094.136,482.7656 Q1093.7704,482.6344 1093.3954,482.6344 Q1092.936,482.6344 1092.5517,482.8312 Q1092.1767,483.0281 1091.8767,483.4781 Q1091.586,483.9281 1091.586,484.5469 L1091.586,485.2031 Q1091.586,485.9437 1092.1204,486.4406 Q1092.6548,486.9281 1093.611,486.9281 Q1094.1735,486.9281 1094.5673,486.7781 Q1094.8017,486.6844 1095.0548,486.4219 Q1095.2142,486.2625 1095.2985,486.2156 Q1095.3923,486.1688 1095.5142,486.1688 Q1095.711,486.1688 1095.861,486.3281 Q1096.0204,486.4781 1096.0204,486.6844 Q1096.0204,486.8906 1095.8142,487.1344 Q1095.5142,487.4813 1095.036,487.6781 Q1094.3892,487.95 1093.611,487.95 Q1092.7017,487.95 1091.9798,487.575 Q1091.3892,487.275 1090.9767,486.6375 Q1090.5642,485.9906 1090.5642,485.2219 L1090.5642,484.5281 Q1090.5642,483.7313 1090.9298,483.0469 Q1091.3048,482.3531 1091.961,481.9875 Q1092.6173,481.6125 1093.3579,481.6125 Q1093.7985,481.6125 1094.1829,481.7156 Q1094.5767,481.8094 1094.9048,482.025 Z " fill="#000000"/><text fill="#000000" font-family="sans-serif" font-size="8.4" lengthAdjust="spacing" textLength="28.9447" x="1105.5454" y="487.9781">Camion</text><line style="stroke:#181818;stroke-width:0.3;" x1="1046.7" x2="1173.8355" y1="494.1" y2="494.1"/><text fill="#000000" font-family="sans-serif" font-size="8.4" lengthAdjust="spacing" textLength="93.8643" x="1049.7" y="505.5645">-capacidadCarga: double</text><text fill="#000000" font-family="sans-serif" font-size="8.4" lengthAdjust="spacing" textLength="49.0178" x="1049.7" y="516.7371">-numEjes: int</text><text fill="#000000" font-family="sans-serif" font-size="8.4" lengthAdjust="spacing" textLength="100.4021" x="1049.7" y="527.9098">-longitudRemolque: double</text><text fill="#000000" font-family="sans-serif" font-size="8.4" lengthAdjust="spacing" textLength="69.5666" x="1049.7" y="539.0824">-potenciaMotor: int</text><line style="stroke:#181818;stroke-width:0.3;" x1="1046.7" x2="1173.8355" y1="543.5906" y2="543.5906"/><text fill="#000000" font-family="sans-serif" font-size="8.4" lengthAdjust="spacing" textLength="92.2031" x="1049.7" y="555.0551">+calcularRiesgo(): String</text><text fill="#000000" font-family="sans-serif" font-size="8.4" lengthAdjust="spacing" textLength="118.3629" x="1049.7" y="566.2277">+calcularDepreciacion(): double</text><text fill="#000000" font-family="sans-serif" font-size="8.4" lengthAdjust="spacing" textLength="121.1355" x="1049.7" y="577.4004">+imprimirDatosVehiculo(): String</text></g><!--class Coche--><g id="elem_Coche"><rect codeLine="79" fill="#F1F1F1" height="118.1812" id="Coche" rx="1.5" ry="1.5" style="stroke:#181818;stroke-width:0.3;" width="153.5561" x="381.3" y="469.2"/><ellipse cx="443.3874" cy="478.8" fill="#A9DCDF" rx="6.6" ry="6.6" style="stroke:#181818;stroke-width:0.6;"/><path d="M444.6999,479.8594 L442.2155,479.8594 L441.9624,480.4781 L442.2155,480.4781 Q442.5812,480.4781 442.7405,480.6188 Q442.8999,480.7594 442.8999,480.9938 Q442.8999,481.2188 442.7405,481.3594 Q442.5812,481.5 442.2155,481.5 L440.8374,481.5 Q440.4718,481.5 440.3218,481.3594 Q440.1624,481.2188 440.1624,480.9844 Q440.1624,480.7594 440.3312,480.6188 Q440.4905,480.4688 440.8655,480.4781 L442.4687,476.4844 L441.803,476.4844 Q441.4374,476.4844 441.278,476.3438 Q441.1187,476.2031 441.1187,475.9688 Q441.1187,475.7438 441.278,475.6031 Q441.4374,475.4625 441.803,475.4625 L444.0062,475.4625 L446.0405,480.4781 Q446.3968,480.4781 446.5093,480.5625 Q446.7437,480.7219 446.7437,480.9938 Q446.7437,481.2188 446.5843,481.3594 Q446.4343,481.5 446.0687,481.5 L444.6905,481.5 Q444.3249,481.5 444.1655,481.3594 Q444.0062,481.2188 444.0062,480.9844 Q444.0062,480.7594 444.1655,480.6188 Q444.3249,480.4781 444.6905,480.4781 L444.9437,480.4781 L444.6999,479.8594 Z M444.2687,478.8375 L443.453,476.8125 L442.628,478.8375 L444.2687,478.8375 Z " fill="#000000"/><text fill="#000000" font-family="sans-serif" font-size="8.4" font-style="italic" lengthAdjust="spacing" textLength="24.2813" x="455.6874" y="482.2781">Coche</text><line style="stroke:#181818;stroke-width:0.3;" x1="381.9" x2="534.2561" y1="488.4" y2="488.4"/><text fill="#000000" font-family="sans-serif" font-size="8.4" lengthAdjust="spacing" textLength="61.626" x="384.9" y="499.8645">-numPuertas: int</text><text fill="#000000" font-family="sans-serif" font-size="8.4" lengthAdjust="spacing" textLength="89.6396" x="384.9" y="511.0371">-tipoCombustible: String</text><text fill="#000000" font-family="sans-serif" font-size="8.4" lengthAdjust="spacing" textLength="87.3141" x="384.9" y="522.2098">-capacidadMaletero: int</text><text fill="#000000" font-family="sans-serif" font-size="8.4" lengthAdjust="spacing" textLength="69.0867" x="384.9" y="533.3824">-traccion: Traccion</text><line style="stroke:#181818;stroke-width:0.3;" x1="381.9" x2="534.2561" y1="537.8906" y2="537.8906"/><text fill="#000000" font-family="sans-serif" font-size="8.4" lengthAdjust="spacing" textLength="146.3561" x="384.9" y="549.3551">+pedirValidarTraccion(String): Traccion</text><text fill="#000000" font-family="sans-serif" font-size="8.4" font-style="italic" lengthAdjust="spacing" textLength="92.2031" x="384.9" y="560.5277">+calcularRiesgo(): String</text><text fill="#000000" font-family="sans-serif" font-size="8.4" font-style="italic" lengthAdjust="spacing" textLength="118.3629" x="384.9" y="571.7004">+calcularDepreciacion(): double</text><text fill="#000000" font-family="sans-serif" font-size="8.4" lengthAdjust="spacing" textLength="121.1355" x="384.9" y="582.873">+imprimirDatosVehiculo(): String</text></g><!--class CocheDeportivo--><g id="elem_CocheDeportivo"><rect codeLine="90" fill="#F1F1F1" height="95.8359" id="CocheDeportivo" rx="1.5" ry="1.5" style="stroke:#181818;stroke-width:0.3;" width="128.3355" x="56.7" y="651.6"/><ellipse cx="88.2021" cy="661.2" fill="#ADD1B2" rx="6.6" ry="6.6" style="stroke:#181818;stroke-width:0.6;"/><path d="M89.8614,658.725 Q89.9552,658.5938 90.0677,658.5281 Q90.1802,658.4625 90.3114,658.4625 Q90.5364,658.4625 90.6771,658.6219 Q90.8177,658.7719 90.8177,659.1375 L90.8177,660.0094 Q90.8177,660.375 90.6771,660.5344 Q90.5364,660.6938 90.3114,660.6938 Q90.1052,660.6938 89.9833,660.5719 Q89.8614,660.4594 89.7958,660.15 Q89.7677,659.9344 89.6552,659.8219 Q89.4583,659.5969 89.0927,659.4656 Q88.7271,659.3344 88.3521,659.3344 Q87.8927,659.3344 87.5083,659.5313 Q87.1333,659.7281 86.8333,660.1781 Q86.5427,660.6281 86.5427,661.2469 L86.5427,661.9031 Q86.5427,662.6438 87.0771,663.1406 Q87.6114,663.6281 88.5677,663.6281 Q89.1302,663.6281 89.5239,663.4781 Q89.7583,663.3844 90.0114,663.1219 Q90.1708,662.9625 90.2552,662.9156 Q90.3489,662.8688 90.4708,662.8688 Q90.6677,662.8688 90.8177,663.0281 Q90.9771,663.1781 90.9771,663.3844 Q90.9771,663.5906 90.7708,663.8344 Q90.4708,664.1813 89.9927,664.3781 Q89.3458,664.65 88.5677,664.65 Q87.6583,664.65 86.9364,664.275 Q86.3458,663.975 85.9333,663.3375 Q85.5208,662.6906 85.5208,661.9219 L85.5208,661.2281 Q85.5208,660.4313 85.8864,659.7469 Q86.2614,659.0531 86.9177,658.6875 Q87.5739,658.3125 88.3146,658.3125 Q88.7552,658.3125 89.1396,658.4156 Q89.5333,658.5094 89.8614,658.725 Z " fill="#000000"/><text fill="#000000" font-family="sans-serif" font-size="8.4" lengthAdjust="spacing" textLength="60.2314" x="100.5021" y="664.6781">CocheDeportivo</text><line style="stroke:#181818;stroke-width:0.3;" x1="57.3" x2="184.4355" y1="670.8" y2="670.8"/><text fill="#000000" font-family="sans-serif" font-size="8.4" lengthAdjust="spacing" textLength="99.0076" x="60.3" y="682.2645">-aceleracion0a100: double</text><text fill="#000000" font-family="sans-serif" font-size="8.4" lengthAdjust="spacing" textLength="58.3611" x="60.3" y="693.4371">-potenciaCv: int</text><text fill="#000000" font-family="sans-serif" font-size="8.4" lengthAdjust="spacing" textLength="95.2629" x="60.3" y="704.6098">-tieneModoPista: boolean</text><line style="stroke:#181818;stroke-width:0.3;" x1="57.3" x2="184.4355" y1="709.118" y2="709.118"/><text fill="#000000" font-family="sans-serif" font-size="8.4" lengthAdjust="spacing" textLength="92.2031" x="60.3" y="720.5824">+calcularRiesgo(): String</text><text fill="#000000" font-family="sans-serif" font-size="8.4" lengthAdjust="spacing" textLength="118.3629" x="60.3" y="731.7551">+calcularDepreciacion(): double</text><text fill="#000000" font-family="sans-serif" font-size="8.4" lengthAdjust="spacing" textLength="121.1355" x="60.3" y="742.9277">+imprimirDatosVehiculo(): String</text></g><!--class CocheSedan--><g id="elem_CocheSedan"><rect codeLine="99" fill="#F1F1F1" height="95.8359" id="CocheSedan" rx="1.5" ry="1.5" style="stroke:#181818;stroke-width:0.3;" width="162.8994" x="355.8" y="651.6"/><ellipse cx="410.4144" cy="661.2" fill="#ADD1B2" rx="6.6" ry="6.6" style="stroke:#181818;stroke-width:0.6;"/><path d="M412.0737,658.725 Q412.1675,658.5938 412.28,658.5281 Q412.3925,658.4625 412.5237,658.4625 Q412.7487,658.4625 412.8894,658.6219 Q413.03,658.7719 413.03,659.1375 L413.03,660.0094 Q413.03,660.375 412.8894,660.5344 Q412.7487,660.6938 412.5237,660.6938 Q412.3175,660.6938 412.1956,660.5719 Q412.0737,660.4594 412.0081,660.15 Q411.98,659.9344 411.8675,659.8219 Q411.6706,659.5969 411.305,659.4656 Q410.9394,659.3344 410.5644,659.3344 Q410.105,659.3344 409.7206,659.5313 Q409.3456,659.7281 409.0456,660.1781 Q408.755,660.6281 408.755,661.2469 L408.755,661.9031 Q408.755,662.6438 409.2894,663.1406 Q409.8237,663.6281 410.78,663.6281 Q411.3425,663.6281 411.7362,663.4781 Q411.9706,663.3844 412.2237,663.1219 Q412.3831,662.9625 412.4675,662.9156 Q412.5612,662.8688 412.6831,662.8688 Q412.88,662.8688 413.03,663.0281 Q413.1894,663.1781 413.1894,663.3844 Q413.1894,663.5906 412.9831,663.8344 Q412.6831,664.1813 412.205,664.3781 Q411.5581,664.65 410.78,664.65 Q409.8706,664.65 409.1487,664.275 Q408.5581,663.975 408.1456,663.3375 Q407.7331,662.6906 407.7331,661.9219 L407.7331,661.2281 Q407.7331,660.4313 408.0987,659.7469 Q408.4737,659.0531 409.13,658.6875 Q409.7862,658.3125 410.5269,658.3125 Q410.9675,658.3125 411.3519,658.4156 Q411.7456,658.5094 412.0737,658.725 Z " fill="#000000"/><text fill="#000000" font-family="sans-serif" font-size="8.4" lengthAdjust="spacing" textLength="48.5707" x="422.7144" y="664.6781">CocheSedan</text><line style="stroke:#181818;stroke-width:0.3;" x1="356.4" x2="518.0994" y1="670.8" y2="670.8"/><text fill="#000000" font-family="sans-serif" font-size="8.4" lengthAdjust="spacing" textLength="87.7857" x="359.4" y="682.2645">-espacioInterior: double</text><text fill="#000000" font-family="sans-serif" font-size="8.4" lengthAdjust="spacing" textLength="98.5031" x="359.4" y="693.4371">-nivelConfort: NivelConfort</text><line style="stroke:#181818;stroke-width:0.3;" x1="356.4" x2="518.0994" y1="697.9453" y2="697.9453"/><text fill="#000000" font-family="sans-serif" font-size="8.4" lengthAdjust="spacing" textLength="155.6994" x="359.4" y="709.4098">+pedirValidarConfort(String): NivelConfort</text><text fill="#000000" font-family="sans-serif" font-size="8.4" lengthAdjust="spacing" textLength="92.2031" x="359.4" y="720.5824">+calcularRiesgo(): String</text><text fill="#000000" font-family="sans-serif" font-size="8.4" lengthAdjust="spacing" textLength="118.3629" x="359.4" y="731.7551">+calcularDepreciacion(): double</text><text fill="#000000" font-family="sans-serif" font-size="8.4" lengthAdjust="spacing" textLength="121.1355" x="359.4" y="742.9277">+imprimirDatosVehiculo(): String</text></g><!--class CocheSuv--><g id="elem_CocheSuv"><rect codeLine="108" fill="#F1F1F1" height="84.6633" id="CocheSuv" rx="1.5" ry="1.5" style="stroke:#181818;stroke-width:0.3;" width="128.3355" x="206.1" y="657.3"/><ellipse cx="248.3399" cy="666.9" fill="#ADD1B2" rx="6.6" ry="6.6" style="stroke:#181818;stroke-width:0.6;"/><path d="M249.9993,664.425 Q250.0931,664.2937 250.2056,664.2281 Q250.3181,664.1625 250.4493,664.1625 Q250.6743,664.1625 250.8149,664.3219 Q250.9556,664.4719 250.9556,664.8375 L250.9556,665.7094 Q250.9556,666.075 250.8149,666.2344 Q250.6743,666.3938 250.4493,666.3938 Q250.2431,666.3938 250.1212,666.2719 Q249.9993,666.1594 249.9337,665.85 Q249.9056,665.6344 249.7931,665.5219 Q249.5962,665.2969 249.2306,665.1656 Q248.8649,665.0344 248.4899,665.0344 Q248.0306,665.0344 247.6462,665.2312 Q247.2712,665.4281 246.9712,665.8781 Q246.6806,666.3281 246.6806,666.9469 L246.6806,667.6031 Q246.6806,668.3438 247.2149,668.8406 Q247.7493,669.3281 248.7056,669.3281 Q249.2681,669.3281 249.6618,669.1781 Q249.8962,669.0844 250.1493,668.8219 Q250.3087,668.6625 250.3931,668.6156 Q250.4868,668.5688 250.6087,668.5688 Q250.8056,668.5688 250.9556,668.7281 Q251.1149,668.8781 251.1149,669.0844 Q251.1149,669.2906 250.9087,669.5344 Q250.6087,669.8813 250.1306,670.0781 Q249.4837,670.35 248.7056,670.35 Q247.7962,670.35 247.0743,669.975 Q246.4837,669.675 246.0712,669.0375 Q245.6587,668.3906 245.6587,667.6219 L245.6587,666.9281 Q245.6587,666.1313 246.0243,665.4469 Q246.3993,664.7531 247.0556,664.3875 Q247.7118,664.0125 248.4524,664.0125 Q248.8931,664.0125 249.2774,664.1156 Q249.6712,664.2094 249.9993,664.425 Z " fill="#000000"/><text fill="#000000" font-family="sans-serif" font-size="8.4" lengthAdjust="spacing" textLength="38.7557" x="260.6399" y="670.3781">CocheSuv</text><line style="stroke:#181818;stroke-width:0.3;" x1="206.7" x2="333.8355" y1="676.5" y2="676.5"/><text fill="#000000" font-family="sans-serif" font-size="8.4" lengthAdjust="spacing" textLength="103.6711" x="209.7" y="687.9645">-capacidadOffroad: boolean</text><text fill="#000000" font-family="sans-serif" font-size="8.4" lengthAdjust="spacing" textLength="93.8643" x="209.7" y="699.1371">-alturaLibreSuelo: double</text><line style="stroke:#181818;stroke-width:0.3;" x1="206.7" x2="333.8355" y1="703.6453" y2="703.6453"/><text fill="#000000" font-family="sans-serif" font-size="8.4" lengthAdjust="spacing" textLength="92.2031" x="209.7" y="715.1098">+calcularRiesgo(): String</text><text fill="#000000" font-family="sans-serif" font-size="8.4" lengthAdjust="spacing" textLength="118.3629" x="209.7" y="726.2824">+calcularDepreciacion(): double</text><text fill="#000000" font-family="sans-serif" font-size="8.4" lengthAdjust="spacing" textLength="121.1355" x="209.7" y="737.4551">+imprimirDatosVehiculo(): String</text></g><!--class NivelConfort--><g id="elem_NivelConfort"><rect codeLine="116" fill="#F1F1F1" height="62.318" id="NivelConfort" rx="1.5" ry="1.5" style="stroke:#181818;stroke-width:0.3;" width="65.4164" x="4.2" y="801"/><ellipse cx="13.2" cy="810.6" fill="#EB937F" rx="6.6" ry="6.6" style="stroke:#181818;stroke-width:0.6;"/><path d="M12.5156,811.0781 L12.5156,812.5781 L15.1125,812.5781 L15.1125,812.025 Q15.1125,811.6594 15.2531,811.5 Q15.4031,811.3406 15.6281,811.3406 Q15.8531,811.3406 15.9937,811.5 Q16.1344,811.6594 16.1344,812.025 L16.1344,813.6 L11.3344,813.6 Q10.9594,813.6 10.8,813.4594 Q10.65,813.3188 10.65,813.0844 Q10.65,812.8594 10.8094,812.7188 Q10.9688,812.5781 11.3344,812.5781 L11.4938,812.5781 L11.4938,808.5844 L11.3344,808.5844 Q10.9594,808.5844 10.8,808.4438 Q10.65,808.3031 10.65,808.0688 Q10.65,807.8438 10.8,807.7031 Q10.9594,807.5625 11.3344,807.5625 L15.9094,807.5625 L15.9094,809.1188 Q15.9094,809.4844 15.7687,809.6438 Q15.6375,809.7937 15.4031,809.7937 Q15.1781,809.7937 15.0375,809.6438 Q14.8969,809.4844 14.8969,809.1188 L14.8969,808.5844 L12.5156,808.5844 L12.5156,810.0563 L13.4063,810.0563 Q13.4063,809.6625 13.4813,809.55 Q13.6406,809.3063 13.9219,809.3063 Q14.1469,809.3063 14.2875,809.4656 Q14.4281,809.6156 14.4281,809.9812 L14.4281,811.1625 Q14.4281,811.4906 14.3531,811.6031 Q14.1938,811.8375 13.9219,811.8375 Q13.6406,811.8375 13.4813,811.5938 Q13.4063,811.4812 13.4063,811.0781 L12.5156,811.0781 Z " fill="#000000"/><text fill="#000000" font-family="sans-serif" font-size="8.4" lengthAdjust="spacing" textLength="46.2164" x="21.6" y="814.0781">NivelConfort</text><line style="stroke:#181818;stroke-width:0.3;" x1="4.8" x2="69.0164" y1="820.2" y2="820.2"/><text fill="#000000" font-family="sans-serif" font-size="8.4" lengthAdjust="spacing" textLength="31.742" x="7.8" y="831.6645">BASICO</text><text fill="#000000" font-family="sans-serif" font-size="8.4" lengthAdjust="spacing" textLength="27.5338" x="7.8" y="842.8371">MEDIO</text><text fill="#000000" font-family="sans-serif" font-size="8.4" lengthAdjust="spacing" textLength="39.6662" x="7.8" y="854.0098">PREMIUM</text><line style="stroke:#181818;stroke-width:0.3;" x1="4.8" x2="69.0164" y1="858.518" y2="858.518"/></g><!--class Traccion--><g id="elem_Traccion"><rect codeLine="122" fill="#F1F1F1" height="62.318" id="Traccion" rx="1.5" ry="1.5" style="stroke:#181818;stroke-width:0.3;" width="57.6123" x="539.7" y="668.4"/><ellipse cx="551.4912" cy="678" fill="#EB937F" rx="6.6" ry="6.6" style="stroke:#181818;stroke-width:0.6;"/><path d="M550.8069,678.4781 L550.8069,679.9781 L553.4037,679.9781 L553.4037,679.425 Q553.4037,679.0594 553.5444,678.9 Q553.6944,678.7406 553.9194,678.7406 Q554.1444,678.7406 554.285,678.9 Q554.4256,679.0594 554.4256,679.425 L554.4256,681 L549.6256,681 Q549.2506,681 549.0912,680.8594 Q548.9412,680.7188 548.9412,680.4844 Q548.9412,680.2594 549.1006,680.1188 Q549.26,679.9781 549.6256,679.9781 L549.785,679.9781 L549.785,675.9844 L549.6256,675.9844 Q549.2506,675.9844 549.0912,675.8438 Q548.9412,675.7031 548.9412,675.4688 Q548.9412,675.2438 549.0912,675.1031 Q549.2506,674.9625 549.6256,674.9625 L554.2006,674.9625 L554.2006,676.5188 Q554.2006,676.8844 554.06,677.0437 Q553.9287,677.1938 553.6944,677.1938 Q553.4694,677.1938 553.3287,677.0437 Q553.1881,676.8844 553.1881,676.5188 L553.1881,675.9844 L550.8069,675.9844 L550.8069,677.4563 L551.6975,677.4563 Q551.6975,677.0625 551.7725,676.95 Q551.9319,676.7063 552.2131,676.7063 Q552.4381,676.7063 552.5787,676.8656 Q552.7194,677.0156 552.7194,677.3813 L552.7194,678.5625 Q552.7194,678.8906 552.6444,679.0031 Q552.485,679.2375 552.2131,679.2375 Q551.9319,679.2375 551.7725,678.9938 Q551.6975,678.8813 551.6975,678.4781 L550.8069,678.4781 Z " fill="#000000"/><text fill="#000000" font-family="sans-serif" font-size="8.4" lengthAdjust="spacing" textLength="32.2096" x="560.5115" y="681.4781">Traccion</text><line style="stroke:#181818;stroke-width:0.3;" x1="540.3" x2="596.7123" y1="687.6" y2="687.6"/><text fill="#000000" font-family="sans-serif" font-size="8.4" lengthAdjust="spacing" textLength="50.4123" x="543.3" y="699.0645">DELANTERA</text><text fill="#000000" font-family="sans-serif" font-size="8.4" lengthAdjust="spacing" textLength="39.6744" x="543.3" y="710.2371">TRASERA</text><text fill="#000000" font-family="sans-serif" font-size="8.4" lengthAdjust="spacing" textLength="27.0703" x="543.3" y="721.4098">TOTAL</text><line style="stroke:#181818;stroke-width:0.3;" x1="540.3" x2="596.7123" y1="725.918" y2="725.918"/></g><!--class TipoTransmision--><g id="elem_TipoTransmision"><rect codeLine="128" fill="#F1F1F1" height="51.1453" id="TipoTransmision" rx="1.5" ry="1.5" style="stroke:#181818;stroke-width:0.3;" width="81.2854" x="618.6" y="674.1"/><ellipse cx="627.6" cy="683.7" fill="#EB937F" rx="6.6" ry="6.6" style="stroke:#181818;stroke-width:0.6;"/><path d="M626.9156,684.1781 L626.9156,685.6781 L629.5125,685.6781 L629.5125,685.125 Q629.5125,684.7594 629.6531,684.6 Q629.8031,684.4406 630.0281,684.4406 Q630.2531,684.4406 630.3938,684.6 Q630.5344,684.7594 630.5344,685.125 L630.5344,686.7 L625.7344,686.7 Q625.3594,686.7 625.2,686.5594 Q625.05,686.4187 625.05,686.1844 Q625.05,685.9594 625.2094,685.8188 Q625.3688,685.6781 625.7344,685.6781 L625.8938,685.6781 L625.8938,681.6844 L625.7344,681.6844 Q625.3594,681.6844 625.2,681.5437 Q625.05,681.4031 625.05,681.1687 Q625.05,680.9438 625.2,680.8031 Q625.3594,680.6625 625.7344,680.6625 L630.3094,680.6625 L630.3094,682.2188 Q630.3094,682.5844 630.1687,682.7438 Q630.0375,682.8938 629.8031,682.8938 Q629.5781,682.8938 629.4375,682.7438 Q629.2969,682.5844 629.2969,682.2188 L629.2969,681.6844 L626.9156,681.6844 L626.9156,683.1563 L627.8063,683.1563 Q627.8063,682.7625 627.8813,682.65 Q628.0406,682.4063 628.3219,682.4063 Q628.5469,682.4063 628.6875,682.5656 Q628.8281,682.7156 628.8281,683.0813 L628.8281,684.2625 Q628.8281,684.5906 628.7531,684.7031 Q628.5938,684.9375 628.3219,684.9375 Q628.0406,684.9375 627.8813,684.6938 Q627.8063,684.5813 627.8063,684.1781 L626.9156,684.1781 Z " fill="#000000"/><text fill="#000000" font-family="sans-serif" font-size="8.4" lengthAdjust="spacing" textLength="62.0854" x="636" y="687.1781">TipoTransmision</text><line style="stroke:#181818;stroke-width:0.3;" x1="619.2" x2="699.2854" y1="693.3" y2="693.3"/><text fill="#000000" font-family="sans-serif" font-size="8.4" lengthAdjust="spacing" textLength="35.0068" x="622.2" y="704.7645">MANUAL</text><text fill="#000000" font-family="sans-serif" font-size="8.4" lengthAdjust="spacing" textLength="55.0676" x="622.2" y="715.9371">AUTOMATICA</text><line style="stroke:#181818;stroke-width:0.3;" x1="619.2" x2="699.2854" y1="720.4453" y2="720.4453"/></g><!--class Moto--><g id="elem_Moto"><rect codeLine="133" fill="#F1F1F1" height="118.1812" id="Moto" rx="1.5" ry="1.5" style="stroke:#181818;stroke-width:0.3;" width="213.3076" x="683.7" y="469.2"/><ellipse cx="778.4666" cy="478.8" fill="#A9DCDF" rx="6.6" ry="6.6" style="stroke:#181818;stroke-width:0.6;"/><path d="M779.7791,479.8594 L777.2947,479.8594 L777.0416,480.4781 L777.2947,480.4781 Q777.6604,480.4781 777.8197,480.6188 Q777.9791,480.7594 777.9791,480.9938 Q777.9791,481.2188 777.8197,481.3594 Q777.6604,481.5 777.2947,481.5 L775.9166,481.5 Q775.551,481.5 775.401,481.3594 Q775.2416,481.2188 775.2416,480.9844 Q775.2416,480.7594 775.4104,480.6188 Q775.5697,480.4688 775.9447,480.4781 L777.5479,476.4844 L776.8822,476.4844 Q776.5166,476.4844 776.3572,476.3438 Q776.1979,476.2031 776.1979,475.9688 Q776.1979,475.7438 776.3572,475.6031 Q776.5166,475.4625 776.8822,475.4625 L779.0854,475.4625 L781.1197,480.4781 Q781.476,480.4781 781.5885,480.5625 Q781.8229,480.7219 781.8229,480.9938 Q781.8229,481.2188 781.6635,481.3594 Q781.5135,481.5 781.1479,481.5 L779.7697,481.5 Q779.4041,481.5 779.2447,481.3594 Q779.0854,481.2188 779.0854,480.9844 Q779.0854,480.7594 779.2447,480.6188 Q779.4041,480.4781 779.7697,480.4781 L780.0229,480.4781 L779.7791,479.8594 Z M779.3479,478.8375 L778.5322,476.8125 L777.7072,478.8375 L779.3479,478.8375 Z " fill="#000000"/><text fill="#000000" font-family="sans-serif" font-size="8.4" font-style="italic" lengthAdjust="spacing" textLength="18.6744" x="790.7666" y="482.2781">Moto</text><line style="stroke:#181818;stroke-width:0.3;" x1="684.3" x2="896.4076" y1="488.4" y2="488.4"/><text fill="#000000" font-family="sans-serif" font-size="8.4" lengthAdjust="spacing" textLength="52.2908" x="687.3" y="499.8645">-cilindrada: int</text><text fill="#000000" font-family="sans-serif" font-size="8.4" lengthAdjust="spacing" textLength="34.5516" x="687.3" y="511.0371">-peso: int</text><text fill="#000000" font-family="sans-serif" font-size="8.4" lengthAdjust="spacing" textLength="81.7195" x="687.3" y="522.2098">-alturaAsiento: double</text><text fill="#000000" font-family="sans-serif" font-size="8.4" lengthAdjust="spacing" textLength="128.8383" x="687.3" y="533.3824">-tipoTransmision: TipoTransmision</text><line style="stroke:#181818;stroke-width:0.3;" x1="684.3" x2="896.4076" y1="537.8906" y2="537.8906"/><text fill="#000000" font-family="sans-serif" font-size="8.4" lengthAdjust="spacing" textLength="206.1076" x="687.3" y="549.3551">+pedirValidarTipoTransmision(String): TipoTransmision</text><text fill="#000000" font-family="sans-serif" font-size="8.4" font-style="italic" lengthAdjust="spacing" textLength="92.2031" x="687.3" y="560.5277">+calcularRiesgo(): String</text><text fill="#000000" font-family="sans-serif" font-size="8.4" font-style="italic" lengthAdjust="spacing" textLength="118.3629" x="687.3" y="571.7004">+calcularDepreciacion(): double</text><text fill="#000000" font-family="sans-serif" font-size="8.4" lengthAdjust="spacing" textLength="121.1355" x="687.3" y="582.873">+imprimirDatosVehiculo(): String</text></g><!--class MotoDeportiva--><g id="elem_MotoDeportiva"><rect codeLine="144" fill="#F1F1F1" height="84.6633" id="MotoDeportiva" rx="1.5" ry="1.5" style="stroke:#181818;stroke-width:0.3;" width="128.3355" x="720.9" y="657.3"/><ellipse cx="755.2055" cy="666.9" fill="#ADD1B2" rx="6.6" ry="6.6" style="stroke:#181818;stroke-width:0.6;"/><path d="M756.8648,664.425 Q756.9586,664.2937 757.0711,664.2281 Q757.1836,664.1625 757.3148,664.1625 Q757.5398,664.1625 757.6805,664.3219 Q757.8211,664.4719 757.8211,664.8375 L757.8211,665.7094 Q757.8211,666.075 757.6805,666.2344 Q757.5398,666.3938 757.3148,666.3938 Q757.1086,666.3938 756.9867,666.2719 Q756.8648,666.1594 756.7992,665.85 Q756.7711,665.6344 756.6586,665.5219 Q756.4617,665.2969 756.0961,665.1656 Q755.7305,665.0344 755.3555,665.0344 Q754.8961,665.0344 754.5117,665.2312 Q754.1367,665.4281 753.8367,665.8781 Q753.5461,666.3281 753.5461,666.9469 L753.5461,667.6031 Q753.5461,668.3438 754.0805,668.8406 Q754.6148,669.3281 755.5711,669.3281 Q756.1336,669.3281 756.5273,669.1781 Q756.7617,669.0844 757.0148,668.8219 Q757.1742,668.6625 757.2586,668.6156 Q757.3523,668.5688 757.4742,668.5688 Q757.6711,668.5688 757.8211,668.7281 Q757.9805,668.8781 757.9805,669.0844 Q757.9805,669.2906 757.7742,669.5344 Q757.4742,669.8813 756.9961,670.0781 Q756.3492,670.35 755.5711,670.35 Q754.6617,670.35 753.9398,669.975 Q753.3492,669.675 752.9367,669.0375 Q752.5242,668.3906 752.5242,667.6219 L752.5242,666.9281 Q752.5242,666.1313 752.8898,665.4469 Q753.2648,664.7531 753.9211,664.3875 Q754.5773,664.0125 755.318,664.0125 Q755.7586,664.0125 756.143,664.1156 Q756.5367,664.2094 756.8648,664.425 Z " fill="#000000"/><text fill="#000000" font-family="sans-serif" font-size="8.4" lengthAdjust="spacing" textLength="54.6246" x="767.5055" y="670.3781">MotoDeportiva</text><line style="stroke:#181818;stroke-width:0.3;" x1="721.5" x2="848.6355" y1="676.5" y2="676.5"/><text fill="#000000" font-family="sans-serif" font-size="8.4" lengthAdjust="spacing" textLength="97.5844" x="724.5" y="687.9645">-velocidadMaxima: double</text><text fill="#000000" font-family="sans-serif" font-size="8.4" lengthAdjust="spacing" textLength="101.325" x="724.5" y="699.1371">-tieneQuickShifter: boolean</text><line style="stroke:#181818;stroke-width:0.3;" x1="721.5" x2="848.6355" y1="703.6453" y2="703.6453"/><text fill="#000000" font-family="sans-serif" font-size="8.4" lengthAdjust="spacing" textLength="92.2031" x="724.5" y="715.1098">+calcularRiesgo(): String</text><text fill="#000000" font-family="sans-serif" font-size="8.4" lengthAdjust="spacing" textLength="118.3629" x="724.5" y="726.2824">+calcularDepreciacion(): double</text><text fill="#000000" font-family="sans-serif" font-size="8.4" lengthAdjust="spacing" textLength="121.1355" x="724.5" y="737.4551">+imprimirDatosVehiculo(): String</text></g><!--class MotoScooter--><g id="elem_MotoScooter"><rect codeLine="152" fill="#F1F1F1" height="73.4906" id="MotoScooter" rx="1.5" ry="1.5" style="stroke:#181818;stroke-width:0.3;" width="128.3355" x="870.3" y="663"/><ellipse cx="908.1062" cy="672.6" fill="#ADD1B2" rx="6.6" ry="6.6" style="stroke:#181818;stroke-width:0.6;"/><path d="M909.7655,670.125 Q909.8593,669.9938 909.9718,669.9281 Q910.0843,669.8625 910.2155,669.8625 Q910.4405,669.8625 910.5812,670.0219 Q910.7218,670.1719 910.7218,670.5375 L910.7218,671.4094 Q910.7218,671.775 910.5812,671.9344 Q910.4405,672.0938 910.2155,672.0938 Q910.0093,672.0938 909.8874,671.9719 Q909.7655,671.8594 909.6999,671.55 Q909.6718,671.3344 909.5593,671.2219 Q909.3624,670.9969 908.9968,670.8656 Q908.6312,670.7344 908.2562,670.7344 Q907.7968,670.7344 907.4124,670.9313 Q907.0374,671.1281 906.7374,671.5781 Q906.4468,672.0281 906.4468,672.6469 L906.4468,673.3031 Q906.4468,674.0437 906.9812,674.5406 Q907.5155,675.0281 908.4718,675.0281 Q909.0343,675.0281 909.428,674.8781 Q909.6624,674.7844 909.9155,674.5219 Q910.0749,674.3625 910.1593,674.3156 Q910.253,674.2688 910.3749,674.2688 Q910.5718,674.2688 910.7218,674.4281 Q910.8812,674.5781 910.8812,674.7844 Q910.8812,674.9906 910.6749,675.2344 Q910.3749,675.5813 909.8968,675.7781 Q909.2499,676.05 908.4718,676.05 Q907.5624,676.05 906.8405,675.675 Q906.2499,675.375 905.8374,674.7375 Q905.4249,674.0906 905.4249,673.3219 L905.4249,672.6281 Q905.4249,671.8313 905.7905,671.1469 Q906.1655,670.4531 906.8218,670.0875 Q907.478,669.7125 908.2187,669.7125 Q908.6593,669.7125 909.0437,669.8156 Q909.4374,669.9094 909.7655,670.125 Z " fill="#000000"/><text fill="#000000" font-family="sans-serif" font-size="8.4" lengthAdjust="spacing" textLength="47.6232" x="920.4062" y="676.0781">MotoScooter</text><line style="stroke:#181818;stroke-width:0.3;" x1="870.9" x2="998.0355" y1="682.2" y2="682.2"/><text fill="#000000" font-family="sans-serif" font-size="8.4" lengthAdjust="spacing" textLength="90.1195" x="873.9" y="693.6645">-espacioBajoAsiento: int</text><line style="stroke:#181818;stroke-width:0.3;" x1="870.9" x2="998.0355" y1="698.1727" y2="698.1727"/><text fill="#000000" font-family="sans-serif" font-size="8.4" lengthAdjust="spacing" textLength="92.2031" x="873.9" y="709.6371">+calcularRiesgo(): String</text><text fill="#000000" font-family="sans-serif" font-size="8.4" lengthAdjust="spacing" textLength="118.3629" x="873.9" y="720.8098">+calcularDepreciacion(): double</text><text fill="#000000" font-family="sans-serif" font-size="8.4" lengthAdjust="spacing" textLength="121.1355" x="873.9" y="731.9824">+imprimirDatosVehiculo(): String</text></g><!--class Utilidades--><g id="elem_Utilidades"><rect codeLine="159" fill="#F1F1F1" height="129.3539" id="Utilidades" rx="1.5" ry="1.5" style="stroke:#181818;stroke-width:0.3;" width="192.3322" x="1161" y="634.8"/><ellipse cx="1236.1734" cy="644.4" fill="#ADD1B2" rx="6.6" ry="6.6" style="stroke:#181818;stroke-width:0.6;"/><path d="M1237.8328,641.925 Q1237.9266,641.7937 1238.0391,641.7281 Q1238.1516,641.6625 1238.2828,641.6625 Q1238.5078,641.6625 1238.6484,641.8219 Q1238.7891,641.9719 1238.7891,642.3375 L1238.7891,643.2094 Q1238.7891,643.575 1238.6484,643.7344 Q1238.5078,643.8938 1238.2828,643.8938 Q1238.0766,643.8938 1237.9547,643.7719 Q1237.8328,643.6594 1237.7672,643.35 Q1237.7391,643.1344 1237.6266,643.0219 Q1237.4297,642.7969 1237.0641,642.6656 Q1236.6984,642.5344 1236.3234,642.5344 Q1235.8641,642.5344 1235.4797,642.7312 Q1235.1047,642.9281 1234.8047,643.3781 Q1234.5141,643.8281 1234.5141,644.4469 L1234.5141,645.1031 Q1234.5141,645.8438 1235.0484,646.3406 Q1235.5828,646.8281 1236.5391,646.8281 Q1237.1016,646.8281 1237.4953,646.6781 Q1237.7297,646.5844 1237.9828,646.3219 Q1238.1422,646.1625 1238.2266,646.1156 Q1238.3203,646.0688 1238.4422,646.0688 Q1238.6391,646.0688 1238.7891,646.2281 Q1238.9484,646.3781 1238.9484,646.5844 Q1238.9484,646.7906 1238.7422,647.0344 Q1238.4422,647.3813 1237.9641,647.5781 Q1237.3172,647.85 1236.5391,647.85 Q1235.6297,647.85 1234.9078,647.475 Q1234.3172,647.175 1233.9047,646.5375 Q1233.4922,645.8906 1233.4922,645.1219 L1233.4922,644.4281 Q1233.4922,643.6313 1233.8578,642.9469 Q1234.2328,642.2531 1234.8891,641.8875 Q1235.5453,641.5125 1236.2859,641.5125 Q1236.7266,641.5125 1237.1109,641.6156 Q1237.5047,641.7094 1237.8328,641.925 Z " fill="#000000"/><text fill="#000000" font-family="sans-serif" font-size="8.4" lengthAdjust="spacing" textLength="36.8854" x="1248.4734" y="647.8781">Utilidades</text><line style="stroke:#181818;stroke-width:0.3;" x1="1161.6" x2="1352.7322" y1="654" y2="654"/><text fill="#000000" font-family="sans-serif" font-size="8.4" lengthAdjust="spacing" textLength="49.2598" x="1164.6" y="665.4645">+sc: Scanner</text><text fill="#000000" font-family="sans-serif" font-size="8.4" lengthAdjust="spacing" textLength="123.2314" x="1164.6" y="676.6371">-formatoEsp: DateTimeFormatter</text><line style="stroke:#181818;stroke-width:0.3;" x1="1161.6" x2="1352.7322" y1="681.1453" y2="681.1453"/><text fill="#000000" font-family="sans-serif" font-size="8.4" lengthAdjust="spacing" textLength="143.5916" x="1164.6" y="692.6098">+pedirValidarBoolean(String): Boolean</text><text fill="#000000" font-family="sans-serif" font-size="8.4" lengthAdjust="spacing" textLength="125.8236" x="1164.6" y="703.7824">+pedirValidarString(String): String</text><text fill="#000000" font-family="sans-serif" font-size="8.4" lengthAdjust="spacing" textLength="142.6359" x="1164.6" y="714.9551">+pedirValidarEntero(int, int, String): int</text><text fill="#000000" font-family="sans-serif" font-size="8.4" lengthAdjust="spacing" textLength="163.6729" x="1164.6" y="726.1277">+pedirValidarDouble(double, String): double</text><text fill="#000000" font-family="sans-serif" font-size="8.4" lengthAdjust="spacing" textLength="181.8387" x="1164.6" y="737.3004">+pedirValidarArrayStrings(int, int, String): String[]</text><text fill="#000000" font-family="sans-serif" font-size="8.4" lengthAdjust="spacing" textLength="169.7268" x="1164.6" y="748.473">+validarFechaMenorHoy(LocalDate): boolean</text><text fill="#000000" font-family="sans-serif" font-size="8.4" lengthAdjust="spacing" textLength="185.1322" x="1164.6" y="759.6457">+pedirValidarFechaddmmaaaa(String): LocalDate</text></g><!--class Imprimible--><g id="elem_Imprimible"><rect codeLine="171" fill="#F1F1F1" height="39.9727" id="Imprimible" rx="1.5" ry="1.5" style="stroke:#181818;stroke-width:0.3;" width="128.3355" x="1195.5" y="508.2"/><ellipse cx="1237.7481" cy="517.8" fill="#B4A7E5" rx="6.6" ry="6.6" style="stroke:#181818;stroke-width:0.6;"/><path d="M1238.32,515.7844 L1238.32,519.7781 L1239.3513,519.7781 Q1239.7169,519.7781 1239.8763,519.9187 Q1240.0356,520.0594 1240.0356,520.2937 Q1240.0356,520.5188 1239.8763,520.6594 Q1239.7169,520.8 1239.3513,520.8 L1236.2669,520.8 Q1235.9013,520.8 1235.7419,520.6594 Q1235.5825,520.5188 1235.5825,520.2844 Q1235.5825,520.0594 1235.7419,519.9187 Q1235.9013,519.7781 1236.2669,519.7781 L1237.2981,519.7781 L1237.2981,515.7844 L1236.2669,515.7844 Q1235.9013,515.7844 1235.7419,515.6438 Q1235.5825,515.5031 1235.5825,515.2688 Q1235.5825,515.0437 1235.7419,514.9031 Q1235.9013,514.7625 1236.2669,514.7625 L1239.3513,514.7625 Q1239.7169,514.7625 1239.8763,514.9031 Q1240.0356,515.0437 1240.0356,515.2688 Q1240.0356,515.5031 1239.8763,515.6438 Q1239.7169,515.7844 1239.3513,515.7844 L1238.32,515.7844 Z " fill="#000000"/><text fill="#000000" font-family="sans-serif" font-size="8.4" font-style="italic" lengthAdjust="spacing" textLength="38.7393" x="1250.0481" y="521.2781">Imprimible</text><line style="stroke:#181818;stroke-width:0.3;" x1="1196.1" x2="1323.2355" y1="527.4" y2="527.4"/><line style="stroke:#181818;stroke-width:0.3;" x1="1196.1" x2="1323.2355" y1="532.2" y2="532.2"/><text fill="#000000" font-family="sans-serif" font-size="8.4" lengthAdjust="spacing" textLength="121.1355" x="1199.1" y="543.6645">+imprimirDatosVehiculo(): String</text></g><!--class Valorable--><g id="elem_Valorable"><rect codeLine="175" fill="#F1F1F1" height="39.9727" id="Valorable" rx="1.5" ry="1.5" style="stroke:#181818;stroke-width:0.3;" width="125.5629" x="1345.2" y="508.2"/><ellipse cx="1387.686" cy="517.8" fill="#B4A7E5" rx="6.6" ry="6.6" style="stroke:#181818;stroke-width:0.6;"/><path d="M1388.2579,515.7844 L1388.2579,519.7781 L1389.2892,519.7781 Q1389.6548,519.7781 1389.8142,519.9187 Q1389.9735,520.0594 1389.9735,520.2937 Q1389.9735,520.5188 1389.8142,520.6594 Q1389.6548,520.8 1389.2892,520.8 L1386.2048,520.8 Q1385.8392,520.8 1385.6798,520.6594 Q1385.5204,520.5188 1385.5204,520.2844 Q1385.5204,520.0594 1385.6798,519.9187 Q1385.8392,519.7781 1386.2048,519.7781 L1387.236,519.7781 L1387.236,515.7844 L1386.2048,515.7844 Q1385.8392,515.7844 1385.6798,515.6438 Q1385.5204,515.5031 1385.5204,515.2688 Q1385.5204,515.0437 1385.6798,514.9031 Q1385.8392,514.7625 1386.2048,514.7625 L1389.2892,514.7625 Q1389.6548,514.7625 1389.8142,514.9031 Q1389.9735,515.0437 1389.9735,515.2688 Q1389.9735,515.5031 1389.8142,515.6438 Q1389.6548,515.7844 1389.2892,515.7844 L1388.2579,515.7844 Z " fill="#000000"/><text fill="#000000" font-family="sans-serif" font-size="8.4" font-style="italic" lengthAdjust="spacing" textLength="35.4908" x="1399.986" y="521.2781">Valorable</text><line style="stroke:#181818;stroke-width:0.3;" x1="1345.8" x2="1470.1629" y1="527.4" y2="527.4"/><line style="stroke:#181818;stroke-width:0.3;" x1="1345.8" x2="1470.1629" y1="532.2" y2="532.2"/><text fill="#000000" font-family="sans-serif" font-size="8.4" lengthAdjust="spacing" textLength="118.3629" x="1348.8" y="543.6645">+calcularDepreciacion(): double</text></g><!--class Asegurable--><g id="elem_Asegurable"><rect codeLine="178" fill="#F1F1F1" height="39.9727" id="Asegurable" rx="1.5" ry="1.5" style="stroke:#181818;stroke-width:0.3;" width="99.4031" x="1491.9" y="508.2"/><ellipse cx="1517.8681" cy="517.8" fill="#B4A7E5" rx="6.6" ry="6.6" style="stroke:#181818;stroke-width:0.6;"/><path d="M1518.44,515.7844 L1518.44,519.7781 L1519.4712,519.7781 Q1519.8368,519.7781 1519.9962,519.9187 Q1520.1556,520.0594 1520.1556,520.2937 Q1520.1556,520.5188 1519.9962,520.6594 Q1519.8368,520.8 1519.4712,520.8 L1516.3868,520.8 Q1516.0212,520.8 1515.8618,520.6594 Q1515.7025,520.5188 1515.7025,520.2844 Q1515.7025,520.0594 1515.8618,519.9187 Q1516.0212,519.7781 1516.3868,519.7781 L1517.4181,519.7781 L1517.4181,515.7844 L1516.3868,515.7844 Q1516.0212,515.7844 1515.8618,515.6438 Q1515.7025,515.5031 1515.7025,515.2688 Q1515.7025,515.0437 1515.8618,514.9031 Q1516.0212,514.7625 1516.3868,514.7625 L1519.4712,514.7625 Q1519.8368,514.7625 1519.9962,514.9031 Q1520.1556,515.0437 1520.1556,515.2688 Q1520.1556,515.5031 1519.9962,515.6438 Q1519.8368,515.7844 1519.4712,515.7844 L1518.44,515.7844 Z " fill="#000000"/><text fill="#000000" font-family="sans-serif" font-size="8.4" font-style="italic" lengthAdjust="spacing" textLength="42.4963" x="1530.0388" y="521.2781">Asegurable</text><line style="stroke:#181818;stroke-width:0.3;" x1="1492.5" x2="1590.7031" y1="527.4" y2="527.4"/><line style="stroke:#181818;stroke-width:0.3;" x1="1492.5" x2="1590.7031" y1="532.2" y2="532.2"/><text fill="#000000" font-family="sans-serif" font-size="8.4" lengthAdjust="spacing" textLength="92.2031" x="1495.5" y="543.6645">+calcularRiesgo(): String</text></g><!--link Principal to Camion--><g id="link_Principal_Camion"><path codeLine="184" d="M718.518,97.338 C822.138,112.362 986.1,142.134 1029.9,184.8 C1108.572,261.444 1116.5364,395.7497 1114.2204,471.2177 " fill="none" id="Principal-to-Camion" style="stroke:#181818;stroke-width:0.6;stroke-dasharray:7.0,7.0;"/><polygon fill="#181818" points="1114.11,474.816,1116.6745,469.4922,1114.202,471.8174,1111.8768,469.3449,1114.11,474.816" style="stroke:#181818;stroke-width:0.6;"/><text fill="#000000" font-family="sans-serif" font-size="7.8" lengthAdjust="spacing" textLength="48.1254" x="1114.5" y="321.317">crea instancia</text></g><!--link Principal to CocheDeportivo--><g id="link_Principal_CocheDeportivo"><path codeLine="185" d="M543.198,97.722 C466.458,112.302 356.916,144.474 288.9,214.2 C167.298,338.856 133.791,552.2686 124.587,647.8726 " fill="none" id="Principal-to-CocheDeportivo" style="stroke:#181818;stroke-width:0.6;stroke-dasharray:7.0,7.0;"/><polygon fill="#181818" points="124.242,651.456,127.1484,646.3108,124.5295,648.4698,122.3705,645.8509,124.242,651.456" style="stroke:#181818;stroke-width:0.6;"/><text fill="#000000" font-family="sans-serif" font-size="7.8" lengthAdjust="spacing" textLength="48.1254" x="166.5" y="448.817">crea instancia</text></g><!--link Principal to CocheSedan--><g id="link_Principal_CocheSedan"><path codeLine="186" d="M596.058,122.268 C537.054,186.162 419.142,325.836 370.5,469.2 C349.392,531.408 339.078,555.504 362.7,616.8 C367.512,629.28 372.9061,638.2649 381.5461,648.7769 " fill="none" id="Principal-to-CocheSedan" style="stroke:#181818;stroke-width:0.6;stroke-dasharray:7.0,7.0;"/><polygon fill="#181818" points="383.832,651.558,382.2573,645.8624,381.9271,649.2404,378.5491,648.9102,383.832,651.558" style="stroke:#181818;stroke-width:0.6;"/><text fill="#000000" font-family="sans-serif" font-size="7.8" lengthAdjust="spacing" textLength="48.1254" x="381.3" y="448.817">crea instancia</text></g><!--link Principal to CocheSuv--><g id="link_Principal_CocheSuv"><path codeLine="187" d="M543.084,111.87 C490.17,131.712 425.496,164.34 385.5,214.2 C277.914,348.318 267.9054,562.8002 268.8294,653.6282 " fill="none" id="Principal-to-CocheSuv" style="stroke:#181818;stroke-width:0.6;stroke-dasharray:7.0,7.0;"/><polygon fill="#181818" points="268.866,657.228,271.2109,651.8039,268.8355,654.2282,266.4112,651.8527,268.866,657.228" style="stroke:#181818;stroke-width:0.6;"/><text fill="#000000" font-family="sans-serif" font-size="7.8" lengthAdjust="spacing" textLength="48.1254" x="290.1" y="448.817">crea instancia</text></g><!--link Principal to MotoDeportiva--><g id="link_Principal_MotoDeportiva"><path codeLine="188" d="M632.49,122.292 C637.434,230.304 653.394,545.514 672.9,587.4 C680.538,603.804 707.3686,630.4662 734.2006,654.8262 " fill="none" id="Principal-to-MotoDeportiva" style="stroke:#181818;stroke-width:0.6;stroke-dasharray:7.0,7.0;"/><polygon fill="#181818" points="736.866,657.246,734.4811,651.8393,734.6448,655.2295,731.2547,655.3932,736.866,657.246" style="stroke:#181818;stroke-width:0.6;"/><text fill="#000000" font-family="sans-serif" font-size="7.8" lengthAdjust="spacing" textLength="48.1254" x="653.7" y="448.817">crea instancia</text></g><!--link Principal to MotoScooter--><g id="link_Principal_MotoScooter"><path codeLine="189" d="M657.678,122.148 C725.616,213.732 899.844,449.526 907.5,469.2 C932.742,534.054 936.2181,612.7801 935.8041,659.2201 " fill="none" id="Principal-to-MotoScooter" style="stroke:#181818;stroke-width:0.6;stroke-dasharray:7.0,7.0;"/><polygon fill="#181818" points="935.772,662.82,938.22,657.4416,935.7987,659.8201,933.4202,657.3988,935.772,662.82" style="stroke:#181818;stroke-width:0.6;"/><text fill="#000000" font-family="sans-serif" font-size="7.8" lengthAdjust="spacing" textLength="48.1254" x="897.3" y="448.817">crea instancia</text></g><!--link Principal to Utilidades--><g id="link_Principal_Utilidades"><path codeLine="191" d="M698.112,122.214 C736.302,145.032 783.18,177.162 817.5,214.2 C896.274,299.214 903.018,333.114 948.3,439.8 C980.256,515.094 941.748,558.09 998.7,616.8 C1041.054,660.462 1102.927,680.3613 1157.371,689.9853 " fill="none" id="Principal-to-Utilidades" style="stroke:#181818;stroke-width:0.6;stroke-dasharray:7.0,7.0;"/><polygon fill="#181818" points="1160.916,690.612,1156.0162,687.3087,1157.9618,690.0898,1155.1807,692.0354,1160.916,690.612" style="stroke:#181818;stroke-width:0.6;"/><text fill="#000000" font-family="sans-serif" font-size="7.8" lengthAdjust="spacing" textLength="12.576" x="953.1" y="448.817">usa</text></g><!--link Principal to Utilidades--><g id="link_Principal_Utilidades"><path codeLine="194" d="M718.512,109.98 C775.566,129.57 847.866,162.636 894.9,214.2 C954.612,279.666 976.05,521.514 1035.3,587.4 C1068.762,624.606 1114.1452,649.6461 1157.4232,667.3941 " fill="none" id="Principal-to-Utilidades-1" style="stroke:#181818;stroke-width:0.6;stroke-dasharray:7.0,7.0;"/><polygon fill="#181818" points="1160.754,668.76,1156.6684,664.4906,1157.9783,667.6217,1154.8472,668.9316,1160.754,668.76" style="stroke:#181818;stroke-width:0.6;"/><text fill="#000000" font-family="sans-serif" font-size="7.8" lengthAdjust="spacing" textLength="84.5584" x="979.5" y="448.817">validaci&#243;n entrada datos</text></g><!--link Principal to Vehiculo--><g id="link_Principal_Vehiculo"><path codeLine="193" d="M718.692,91.41 C821.154,100.29 993.768,123.714 1128.9,184.8 C1148.07,193.464 1163.7396,203.2017 1180.8516,216.3777 " fill="none" id="Principal-to-Vehiculo" style="stroke:#181818;stroke-width:0.6;stroke-dasharray:7.0,7.0;"/><polygon fill="#181818" points="1183.704,218.574,1180.8896,213.3779,1181.327,216.7437,1177.9612,217.1811,1183.704,218.574" style="stroke:#181818;stroke-width:0.6;"/><text fill="#000000" font-family="sans-serif" font-size="7.8" lengthAdjust="spacing" textLength="68.9317" x="1149.3" y="193.817">validaci&#243;n matr&#237;cula</text></g><!--link Principal to Traccion--><g id="link_Principal_Traccion"><path codeLine="196" d="M622.584,122.352 C617.016,147.9 609.954,182.982 605.7,214.2 C582.45,384.828 572.7758,587.7748 569.7458,664.6408 " fill="none" id="Principal-to-Traccion" style="stroke:#181818;stroke-width:0.6;stroke-dasharray:7.0,7.0;"/><polygon fill="#181818" points="569.604,668.238,572.2148,662.9367,569.7222,665.2403,567.4186,662.7477,569.604,668.238" style="stroke:#181818;stroke-width:0.6;"/><text fill="#000000" font-family="sans-serif" font-size="7.8" lengthAdjust="spacing" textLength="12.576" x="583.5" y="448.817">usa</text></g><!--link Principal to NivelConfort--><g id="link_Principal_NivelConfort"><path codeLine="197" d="M543.27,100.686 C375.384,131.118 24.9,207.78 24.9,317.4 C24.9,317.4 24.9,317.4 24.9,700.2 C24.9,734.79 28.6159,770.7175 32.0419,797.3035 " fill="none" id="Principal-to-NivelConfort" style="stroke:#181818;stroke-width:0.6;stroke-dasharray:7.0,7.0;"/><polygon fill="#181818" points="32.502,800.874,34.1922,795.2115,32.1186,797.8986,29.4315,795.825,32.502,800.874" style="stroke:#181818;stroke-width:0.6;"/><text fill="#000000" font-family="sans-serif" font-size="7.8" lengthAdjust="spacing" textLength="12.576" x="25.5" y="531.617">usa</text></g><!--link Principal to TipoTransmision--><g id="link_Principal_TipoTransmision"><path codeLine="198" d="M626.274,122.148 C618.492,187.692 604.434,330.762 612.9,451.2 C618.114,525.348 621.132,544.032 636.3,616.8 C640.35,636.228 645.3697,654.3918 650.2237,670.5738 " fill="none" id="Principal-to-TipoTransmision" style="stroke:#181818;stroke-width:0.6;stroke-dasharray:7.0,7.0;"/><polygon fill="#181818" points="651.258,674.022,652.0053,668.1601,650.3961,671.1485,647.4077,669.5392,651.258,674.022" style="stroke:#181818;stroke-width:0.6;"/><text fill="#000000" font-family="sans-serif" font-size="7.8" lengthAdjust="spacing" textLength="12.576" x="613.5" y="448.817">usa</text></g><!--reverse link Concesionario to Vehiculo--><g id="link_Concesionario_Vehiculo"><path codeLine="200" d="M1434.9727,167.01 C1414.6267,186.768 1397.634,203.274 1376.466,223.824 " fill="none" id="Concesionario-backto-Vehiculo" style="stroke:#181818;stroke-width:0.6;"/><polygon fill="none" points="1440.138,161.994,1435.8834,162.7802,1434.9727,167.01,1439.2274,166.2237,1440.138,161.994" style="stroke:#181818;stroke-width:0.6;"/><text fill="#000000" font-family="sans-serif" font-size="7.8" lengthAdjust="spacing" textLength="69.3659" x="1414.5" y="193.817">crea stockVehiculos</text></g><!--link Concesionario to Persona--><g id="link_Concesionario_Persona"><path codeLine="201" d="M1547.922,166.842 C1580.79,256.44 1631.6423,395.0622 1659.6743,471.4842 " fill="none" id="Concesionario-to-Persona" style="stroke:#181818;stroke-width:0.6;stroke-dasharray:7.0,7.0;"/><polygon fill="#181818" points="1660.914,474.864,1661.3076,468.9678,1659.8809,472.0475,1656.8012,470.6208,1660.914,474.864" style="stroke:#181818;stroke-width:0.6;"/><text fill="#000000" font-family="sans-serif" font-size="7.8" lengthAdjust="spacing" textLength="36.8558" x="1640.7" y="321.317">propietario</text></g><!--reverse link Vehiculo to Persona--><g id="link_Vehiculo_Persona"><path codeLine="203" d="M1383.1266,360.2764 C1448.5746,388.1404 1529.496,425.52 1602.3,469.2 C1605.636,471.204 1609.008,473.316 1612.374,475.512 " fill="none" id="Vehiculo-backto-Persona" style="stroke:#181818;stroke-width:0.6;"/><polygon fill="#181818" points="1376.502,357.456,1378.8742,361.0744,1383.1266,360.2764,1380.7544,356.658,1376.502,357.456" style="stroke:#181818;stroke-width:0.6;"/><text fill="#000000" font-family="sans-serif" font-size="7.8" lengthAdjust="spacing" textLength="47.2608" x="1569.3" y="448.817">es propietario</text></g><!--link Persona to Utilidades--><g id="link_Persona_Utilidades"><path codeLine="204" d="M1612.44,581.748 C1609.068,583.752 1605.684,585.648 1602.3,587.4 C1522.656,628.68 1428.2633,657.6823 1357.1333,676.0843 " fill="none" id="Persona-to-Utilidades" style="stroke:#181818;stroke-width:0.6;stroke-dasharray:7.0,7.0;"/><polygon fill="#181818" points="1353.648,676.986,1359.477,677.957,1356.5524,676.2346,1358.2748,673.31,1353.648,676.986" style="stroke:#181818;stroke-width:0.6;"/><text fill="#000000" font-family="sans-serif" font-size="7.8" lengthAdjust="spacing" textLength="12.576" x="1557.9" y="614.417">usa</text></g><!--link Dni to Persona--><g id="link_Dni_Persona"><path codeLine="205" d="M1748.79,383.046 C1734.84,412.5 1721.6004,440.4622 1708.3944,468.3622 " fill="none" id="Dni-to-Persona" style="stroke:#181818;stroke-width:0.6;"/><polygon fill="#181818" points="1705.314,474.87,1709.0234,472.6429,1708.3944,468.3622,1704.6849,470.5893,1705.314,474.87" style="stroke:#181818;stroke-width:0.6;"/><text fill="#000000" font-family="sans-serif" font-size="7.8" lengthAdjust="spacing" textLength="39.0267" x="1721.1" y="448.817">es parte de</text></g><!--link Dni to Utilidades--><g id="link_Dni_Utilidades"><path codeLine="206" d="M1794.042,382.902 C1803.768,443.064 1807.086,531.774 1758.9,587.4 C1706.88,647.46 1487.9883,677.6132 1357.4523,690.6152 " fill="none" id="Dni-to-Utilidades" style="stroke:#181818;stroke-width:0.6;stroke-dasharray:7.0,7.0;"/><polygon fill="#181818" points="1353.87,690.972,1359.4813,692.825,1356.8552,690.6747,1359.0055,688.0486,1353.87,690.972" style="stroke:#181818;stroke-width:0.6;"/><text fill="#000000" font-family="sans-serif" font-size="7.8" lengthAdjust="spacing" textLength="12.576" x="1799.7" y="531.617">usa</text></g><!--reverse link Vehiculo to Camion--><g id="link_Vehiculo_Camion"><path codeLine="208" d="M1203.8858,430.4623 C1196.2598,440.5663 1194.93,441.894 1187.1,451.2 C1180.494,459.048 1173.222,467.022 1165.866,474.714 " fill="none" id="Vehiculo-backto-Camion" style="stroke:#181818;stroke-width:0.6;"/><polygon fill="none" points="1210.392,421.842,1201.0124,428.2936,1206.7593,432.631,1210.392,421.842" style="stroke:#181818;stroke-width:0.6;"/><text fill="#000000" font-family="sans-serif" font-size="7.8" lengthAdjust="spacing" textLength="29.9203" x="1196.1" y="448.817">herencia</text></g><!--reverse link Vehiculo to Coche--><g id="link_Vehiculo_Coche"><path codeLine="210" d="M1174.2944,419.0238 C1168.9544,422.0718 1172.868,419.46 1167.3,421.8 C1100.586,449.862 914.01,431.592 842.1,439.8 C766.266,448.458 747.402,452.622 672.9,469.2 C626.778,479.466 575.724,493.266 534.966,504.888 " fill="none" id="Vehiculo-backto-Coche" style="stroke:#181818;stroke-width:0.6;"/><polygon fill="none" points="1183.674,413.67,1172.5098,415.8972,1176.079,422.1503,1183.674,413.67" style="stroke:#181818;stroke-width:0.6;"/><text fill="#000000" font-family="sans-serif" font-size="7.8" lengthAdjust="spacing" textLength="29.9203" x="842.7" y="448.817">herencia</text></g><!--reverse link Coche to CocheDeportivo--><g id="link_Coche_CocheDeportivo"><path codeLine="211" d="M370.8228,555.9028 C316.6908,574.2028 253.992,599.016 195.3,634.8 C187.29,639.684 179.286,645.432 171.654,651.45 " fill="none" id="Coche-backto-CocheDeportivo" style="stroke:#181818;stroke-width:0.6;"/><polygon fill="none" points="381.054,552.444,369.6699,552.4924,371.9758,559.3132,381.054,552.444" style="stroke:#181818;stroke-width:0.6;"/><text fill="#000000" font-family="sans-serif" font-size="7.8" lengthAdjust="spacing" textLength="29.9203" x="243.9" y="614.417">herencia</text></g><!--reverse link Coche to CocheSedan--><g id="link_Coche_CocheSedan"><path codeLine="212" d="M449.5471,598.1547 C446.9731,619.0107 445.434,631.512 442.986,651.342 " fill="none" id="Coche-backto-CocheSedan" style="stroke:#181818;stroke-width:0.6;"/><polygon fill="none" points="450.87,587.436,445.9742,597.7137,453.12,598.5956,450.87,587.436" style="stroke:#181818;stroke-width:0.6;"/><text fill="#000000" font-family="sans-serif" font-size="7.8" lengthAdjust="spacing" textLength="29.9203" x="449.1" y="614.417">herencia</text></g><!--reverse link Coche to CocheSuv--><g id="link_Coche_CocheSuv"><path codeLine="213" d="M385.4636,594.6865 C360.1076,617.6545 339.588,636.24 316.38,657.264 " fill="none" id="Coche-backto-CocheSuv" style="stroke:#181818;stroke-width:0.6;"/><polygon fill="none" points="393.468,587.436,383.0468,592.0184,387.8805,597.3546,393.468,587.436" style="stroke:#181818;stroke-width:0.6;"/><text fill="#000000" font-family="sans-serif" font-size="7.8" lengthAdjust="spacing" textLength="29.9203" x="370.5" y="614.417">herencia</text></g><!--link Coche to Traccion--><g id="link_Coche_Traccion"><path codeLine="214" d="M497.808,587.466 C508.05,602.796 518.976,619.356 528.9,634.8 C535.872,645.654 541.4572,654.5928 548.0092,665.2548 " fill="none" id="Coche-to-Traccion" style="stroke:#181818;stroke-width:0.6;"/><polygon fill="#181818" points="549.894,668.322,549.1115,662.4647,548.3233,665.766,545.022,664.9778,549.894,668.322" style="stroke:#181818;stroke-width:0.6;"/></g><!--link CocheSedan to NivelConfort--><g id="link_CocheSedan_NivelConfort"><path codeLine="215" d="M375.672,747.72 C365.688,754.002 355.176,759.834 344.7,764.4 C249.936,805.71 130.9065,822.2793 73.2225,828.3153 " fill="none" id="CocheSedan-to-NivelConfort" style="stroke:#181818;stroke-width:0.6;"/><polygon fill="#181818" points="69.642,828.69,75.2624,830.515,72.6257,828.3778,74.7629,825.741,69.642,828.69" style="stroke:#181818;stroke-width:0.6;"/></g><!--reverse link Vehiculo to Moto--><g id="link_Vehiculo_Moto"><path codeLine="217" d="M1175.1791,416.5533 C1169.7191,420.6813 1172.82,418.116 1167.3,421.8 C1141.602,438.96 1133.454,440.958 1104.3,451.2 C1094.19,454.752 984.252,481.344 897.318,502.188 " fill="none" id="Vehiculo-backto-Moto" style="stroke:#181818;stroke-width:0.6;"/><polygon fill="none" points="1183.794,410.04,1173.008,413.6816,1177.3501,419.4249,1183.794,410.04" style="stroke:#181818;stroke-width:0.6;"/><text fill="#000000" font-family="sans-serif" font-size="7.8" lengthAdjust="spacing" textLength="29.9203" x="1136.1" y="448.817">herencia</text></g><!--reverse link Moto to MotoDeportiva--><g id="link_Moto_MotoDeportiva"><path codeLine="218" d="M788.2988,598.2306 C787.5728,621.1986 787.092,636.24 786.426,657.264 " fill="none" id="Moto-backto-MotoDeportiva" style="stroke:#181818;stroke-width:0.6;"/><polygon fill="none" points="788.64,587.436,784.7006,598.1169,791.897,598.3443,788.64,587.436" style="stroke:#181818;stroke-width:0.6;"/><text fill="#000000" font-family="sans-serif" font-size="7.8" lengthAdjust="spacing" textLength="29.9203" x="788.7" y="614.417">herencia</text></g><!--reverse link Moto to MotoScooter--><g id="link_Moto_MotoScooter"><path codeLine="219" d="M847.0316,595.6794 C868.2656,620.7654 885.42,641.022 903.972,662.94 " fill="none" id="Moto-backto-MotoScooter" style="stroke:#181818;stroke-width:0.6;"/><polygon fill="none" points="840.054,587.436,844.2838,598.0052,849.7794,593.3535,840.054,587.436" style="stroke:#181818;stroke-width:0.6;"/><text fill="#000000" font-family="sans-serif" font-size="7.8" lengthAdjust="spacing" textLength="29.9203" x="863.1" y="614.417">herencia</text></g><!--link Moto to TipoTransmision--><g id="link_Moto_TipoTransmision"><path codeLine="220" d="M745.278,587.436 C722.412,617.04 698.0748,648.547 680.5548,671.227 " fill="none" id="Moto-to-TipoTransmision" style="stroke:#181818;stroke-width:0.6;"/><polygon fill="#181818" points="678.354,674.076,683.5545,671.2698,680.188,671.7019,679.7559,668.3354,678.354,674.076" style="stroke:#181818;stroke-width:0.6;"/></g><!--link Vehiculo to Asegurable--><g id="link_Vehiculo_Asegurable"><path codeLine="222" d="M1376.574,387.096 C1410.348,412.056 1448.07,441.072 1481.1,469.2 C1495.572,481.524 1503.3451,488.7714 1514.9971,500.4474 " fill="none" id="Vehiculo-to-Asegurable" style="stroke:#181818;stroke-width:0.6;stroke-dasharray:7.0,7.0;"/><polygon fill="none" points="1522.626,508.092,1517.5453,497.9044,1512.4489,502.9904,1522.626,508.092" style="stroke:#181818;stroke-width:0.6;"/></g><!--link Vehiculo to Imprimible--><g id="link_Vehiculo_Imprimible"><path codeLine="223" d="M1270.02,421.926 C1266.81,454.848 1264.6332,477.1893 1262.6592,497.3733 " fill="none" id="Vehiculo-to-Imprimible" style="stroke:#181818;stroke-width:0.6;stroke-dasharray:7.0,7.0;"/><polygon fill="none" points="1261.608,508.122,1266.2421,497.7237,1259.0763,497.0229,1261.608,508.122" style="stroke:#181818;stroke-width:0.6;"/></g><!--link Vehiculo to Valorable--><g id="link_Vehiculo_Valorable"><path codeLine="224" d="M1343.25,421.926 C1363.374,454.848 1377.9679,478.7228 1390.3039,498.9068 " fill="none" id="Vehiculo-to-Valorable" style="stroke:#181818;stroke-width:0.6;stroke-dasharray:7.0,7.0;"/><polygon fill="none" points="1395.936,508.122,1393.3756,497.0295,1387.2322,500.7842,1395.936,508.122" style="stroke:#181818;stroke-width:0.6;"/></g><!--SRC=[pLZDRkCs4BxxAGJqujtKGNerYWAAxQ16RSUDdLuMYuAM9Wut4aSbgM2tktcadle8-s8TKfP4qPJNtLDyI2JEDyFvvuZgYOk2IPP7ISQKYhMMV5Tgc2SeDlnlYAu60qk9rfABX1SiYpuFekWYoXaNmmt1nVxT-pVZw1bvMX5GQSda4aGvTDVte3H7mUHjaT1_K4Ckz8_H14K2oX8uklX40fD_m2DFoWo7GTXBhLo7QXKSHKfZybJpgt5KFxvxRybae6OfIWT1-jYTTwLAdAqh8z-qT2uKIEqWwWV2x10pOCBYcE9xqcWjiU2WZMgjB1V7nGFAd1cl76zQFLXSnfLHkT5us92jJSU0AUsQPN240nLdj1-8HGO2Xurf8wAiKN6h2SjuoaoCF6qJbf5m9kyug3tUSC6oLjisUWVK50e92RV6XR0KmW4nH17RcRH9T9M8JRHiCCtl1yeuuZH27QVK59a4LZ6538-McS0RjYD9LgVQz8hsn3FCWVJu05s2DO9afLZkCcYMkPfoLQ3WjEXwgMPg0Z-ErY0LvUU1U14La79PELakQyi2OQ_Gdsltl7Z-7xuvCh06n4BpVGafIzi8zqfpusJWdg4XsCn8hd3dCVpMUhU7ZseXBoJFkPmoZMg2UMaQnKb_T3YQ-kcol5GvTkXaLIIQp1f50lET16-JKSGAo2W-fZLub5JmSJGLl8KAN96DEGUXqNMs9KsO5A2xCL2OKPrHSbYz3pePjVr4qLXjVieaKiKrfyodHa5NYyLiUnTl_fokvaV6rA5QcD2i-CEXvfD79XiCV2GQj90cJntKHOrQbJb8xC1Sot6dGH2gsScBhLiP7I4UxZa0wPRWXGdKzgJ_MXzEM4uvshYnzar1OQL4fn3kcPUjZRTd7q2vDbQ43CMUwpAzWnoplqe8SXT8pg3wMA96wSku-5QnTq4dQpXGNZt5udd7QymJJ1x1ynAvO5sQ8p7W1SqBf3gcCrLNNVB80CVBIvQ1fjm9Y24LgdwzFJnrx79pfWQqMH5aER-bVb_J_6w7Etwc3L1g_eoUm-dipa3QVQ_OJrTN9rDhyXoA2fNW4bDScv71hvjNatkEApPqaFdL2Sha3Su5vGmtvHCgJ_uC6Ss7D69H1ruvRxq9TA2t-TFBzSfSL3xtjQ_RXmU9B0q5ch8fqwLa2qvduAQq8rD0jLTWAdrHv9rOkCPUnvlvvDPPMCwcS_TzVJTRpk-NlOBh9j5nuNIsY5VRsLtih9c3r5kvtSQBVi7K0KcuK3atdoYk-6MykdSueoY-tzuku-ry4f_HYisPuGUSProaagNikEOBK876MWK_LeV99L11kgl_s3Ueln5tSKu_FY7WbRTbu_EwApFF-PIOU3Z6FlASzJYJ6k_l9K-UDe_yWVhMA- -znjvDWdIKo73plMOViCcULpQ-L2RSQsxICGNLM43ZTq9C2HCqY3P3hlqArpXJ1GttJCEMvt1ZrpJ8u7XwNOMkpUnhR_vqmOSnj6-STQ4pSw9XTK5Y_mG7QPTZQfrr-AnoyDxdbSiIIya-LK0LsigvCkWCt3T0G_yI1CfVyTDmWHG_uwt0zEtkPhdIDCyP_LedDEpkKCwD-Gyqv4JpAk1aWXEx__75rqeYDL2ohg0pCk_54nChs9TzSe9fRcyusjkpoyjVwa-DiRtZCjT9cfb1pKTr9y1pqDMGT1QIPeLluBgjxWnmtIUEe1xMASXnLAeZUdFtCpwaNCA__Yli_S_NVuoZJybpEQWfcQCmIasY-BiqvtsbGvVeJXb1W7U4rOPqBo9nD7ADiLxfNajw34PoVJqnTk-F1eD6pbiIscB8PXTM4u9kDhS4ez5RZvj93L4AbXgEJhFrprzexpfv7q525LsFRZyGMtBrtfASZEx57FAudsworwEEHcrC1uuKizuPu3rzxHJL2hEl3S79_nv4a_HTkjN66tFQZIyll_pYj1AFq3OzZz3qiC5_]--></g></svg>