<svg xmlns="http://www.w3.org/2000/svg" xmlns:xlink="http://www.w3.org/1999/xlink" contentStyleType="text/css" height="1784.4px" preserveAspectRatio="none" style="width:1149px;height:1784px;background:#FFFFFF;" version="1.1" viewBox="0 0 1149 1784" width="1149.6px" zoomAndPan="magnify"><defs/><g><!--cluster vehiculos--><g id="cluster_vehiculos"><path d="M259.5,3.6082 L298.8475,3.6082 A2.25,2.25 0 0 1 300.3475,5.1082 L304.5475,18.3809 L1143.9,18.3809 A1.5,1.5 0 0 1 1145.4,19.8809 L1145.4,1248.3082 A1.5,1.5 0 0 1 1143.9,1249.8082 L259.5,1249.8082 A1.5,1.5 0 0 1 258,1248.3082 L258,5.1082 A1.5,1.5 0 0 1 259.5,3.6082 " fill="none" style="stroke:#000000;stroke-width:0.8999999999999999;"/><line style="stroke:#000000;stroke-width:0.8999999999999999;" x1="258" x2="304.5475" y1="18.3809" y2="18.3809"/><text fill="#000000" font-family="sans-serif" font-size="8.4" font-weight="bold" lengthAdjust="spacing" textLength="38.7475" x="260.4" y="13.8727">vehiculos</text></g><!--cluster camion--><g id="cluster_camion"><path d="M581.1,1057.8082 L611.1082,1057.8082 A2.25,2.25 0 0 1 612.6082,1059.3082 L616.8082,1072.5809 L725.7,1072.5809 A1.5,1.5 0 0 1 727.2,1074.0809 L727.2,1194.9082 A1.5,1.5 0 0 1 725.7,1196.4082 L581.1,1196.4082 A1.5,1.5 0 0 1 579.6,1194.9082 L579.6,1059.3082 A1.5,1.5 0 0 1 581.1,1057.8082 " fill="none" style="stroke:#000000;stroke-width:0.8999999999999999;"/><line style="stroke:#000000;stroke-width:0.8999999999999999;" x1="579.6" x2="616.8082" y1="1072.5809" y2="1072.5809"/><text fill="#000000" font-family="sans-serif" font-size="8.4" font-weight="bold" lengthAdjust="spacing" textLength="29.4082" x="582" y="1068.0727">camion</text></g><!--cluster coche--><g id="cluster_coche"><path d="M568.5,435.6082 L593.3771,435.6082 A2.25,2.25 0 0 1 594.8771,437.1082 L599.0771,450.3809 L1129.5,450.3809 A1.5,1.5 0 0 1 1131,451.8809 L1131,868.5082 A1.5,1.5 0 0 1 1129.5,870.0082 L568.5,870.0082 A1.5,1.5 0 0 1 567,868.5082 L567,437.1082 A1.5,1.5 0 0 1 568.5,435.6082 " fill="none" style="stroke:#000000;stroke-width:0.8999999999999999;"/><line style="stroke:#000000;stroke-width:0.8999999999999999;" x1="567" x2="599.0771" y1="450.3809" y2="450.3809"/><text fill="#000000" font-family="sans-serif" font-size="8.4" font-weight="bold" lengthAdjust="spacing" textLength="24.2771" x="569.4" y="445.8727">coche</text></g><!--cluster moto--><g id="cluster_moto"><path d="M538.5,137.4082 L559.6283,137.4082 A2.25,2.25 0 0 1 561.1283,138.9082 L565.3283,152.1809 L995.4,152.1809 A1.5,1.5 0 0 1 996.9,153.6809 L996.9,419.7082 A1.5,1.5 0 0 1 995.4,421.2082 L538.5,421.2082 A1.5,1.5 0 0 1 537,419.7082 L537,138.9082 A1.5,1.5 0 0 1 538.5,137.4082 " fill="none" style="stroke:#000000;stroke-width:0.8999999999999999;"/><line style="stroke:#000000;stroke-width:0.8999999999999999;" x1="537" x2="565.3283" y1="152.1809" y2="152.1809"/><text fill="#000000" font-family="sans-serif" font-size="8.4" font-weight="bold" lengthAdjust="spacing" textLength="20.5283" x="539.4" y="147.6727">moto</text></g><!--class Vehiculo--><g id="elem_Vehiculo"><rect codeLine="28" fill="#F1F1F1" height="207.5625" id="Vehiculo" rx="1.5" ry="1.5" style="stroke:#181818;stroke-width:0.3;" width="192.5701" x="267.6" y="873.6082"/><ellipse cx="345.2241" cy="883.2082" fill="#A9DCDF" rx="6.6" ry="6.6" style="stroke:#181818;stroke-width:0.6;"/><path d="M346.5366,884.2676 L344.0522,884.2676 L343.7991,884.8863 L344.0522,884.8863 Q344.4179,884.8863 344.5772,885.027 Q344.7366,885.1676 344.7366,885.402 Q344.7366,885.627 344.5772,885.7676 Q344.4179,885.9082 344.0522,885.9082 L342.6741,885.9082 Q342.3085,885.9082 342.1585,885.7676 Q341.9991,885.627 341.9991,885.3926 Q341.9991,885.1676 342.1679,885.027 Q342.3272,884.877 342.7022,884.8863 L344.3054,880.8926 L343.6397,880.8926 Q343.2741,880.8926 343.1147,880.752 Q342.9554,880.6113 342.9554,880.377 Q342.9554,880.152 343.1147,880.0113 Q343.2741,879.8707 343.6397,879.8707 L345.8429,879.8707 L347.8772,884.8863 Q348.2335,884.8863 348.346,884.9707 Q348.5804,885.1301 348.5804,885.402 Q348.5804,885.627 348.421,885.7676 Q348.271,885.9082 347.9054,885.9082 L346.5272,885.9082 Q346.1616,885.9082 346.0022,885.7676 Q345.8429,885.627 345.8429,885.3926 Q345.8429,885.1676 346.0022,885.027 Q346.1616,884.8863 346.5272,884.8863 L346.7804,884.8863 L346.5366,884.2676 Z M346.1054,883.2457 L345.2897,881.2207 L344.4647,883.2457 L346.1054,883.2457 Z " fill="#000000"/><text fill="#000000" font-family="sans-serif" font-size="8.4" font-style="italic" lengthAdjust="spacing" textLength="32.2219" x="357.5241" y="886.6863">Vehiculo</text><line style="stroke:#181818;stroke-width:0.3;" x1="268.2" x2="459.5701" y1="892.8082" y2="892.8082"/><text fill="#000000" font-family="sans-serif" font-size="8.4" lengthAdjust="spacing" textLength="65.3584" x="271.2" y="904.2727">#matricula: String</text><text fill="#000000" font-family="sans-serif" font-size="8.4" lengthAdjust="spacing" textLength="54.6205" x="271.2" y="915.4453">#marca: String</text><text fill="#000000" font-family="sans-serif" font-size="8.4" lengthAdjust="spacing" textLength="58.8328" x="271.2" y="926.618">#modelo: String</text><text fill="#000000" font-family="sans-serif" font-size="8.4" lengthAdjust="spacing" textLength="75.6451" x="271.2" y="937.7906">#anoFabricacion: int</text><text fill="#000000" font-family="sans-serif" font-size="8.4" lengthAdjust="spacing" textLength="58.8246" x="271.2" y="948.9633">#kilometraje: int</text><text fill="#000000" font-family="sans-serif" font-size="8.4" lengthAdjust="spacing" textLength="57.4424" x="271.2" y="960.1359">#precio: double</text><text fill="#000000" font-family="sans-serif" font-size="8.4" lengthAdjust="spacing" textLength="84.525" x="271.2" y="971.3086">#isDisponible: boolean</text><text fill="#000000" font-family="sans-serif" font-size="8.4" lengthAdjust="spacing" textLength="80.3168" x="271.2" y="982.4813">#propietario: Persona</text><line style="stroke:#181818;stroke-width:0.3;" x1="268.2" x2="459.5701" y1="986.9895" y2="986.9895"/><text fill="#000000" font-family="sans-serif" font-size="8.4" lengthAdjust="spacing" textLength="137.9561" x="271.2" y="998.4539">+pedirValidarMatricula(String): String</text><text fill="#000000" font-family="sans-serif" font-size="8.4" font-style="italic" lengthAdjust="spacing" textLength="92.2031" x="271.2" y="1009.6266">+calcularRiesgo(): String</text><text fill="#000000" font-family="sans-serif" font-size="8.4" lengthAdjust="spacing" textLength="95.2547" x="271.2" y="1020.7992">#calcularAntiguedad(): int</text><text fill="#000000" font-family="sans-serif" font-size="8.4" font-style="italic" lengthAdjust="spacing" textLength="118.3629" x="271.2" y="1031.9719">+calcularDepreciacion(): double</text><text fill="#000000" font-family="sans-serif" font-size="8.4" lengthAdjust="spacing" textLength="162.9715" x="271.2" y="1043.1445">#calcularDepreciacionEdad(double): double</text><text fill="#000000" font-family="sans-serif" font-size="8.4" lengthAdjust="spacing" textLength="185.3701" x="271.2" y="1054.3172">#calcularDepreciacionKilometraje(double): double</text><text fill="#000000" font-family="sans-serif" font-size="8.4" lengthAdjust="spacing" textLength="124.8639" x="271.2" y="1065.4898">+imprimirDatosComunes(): String</text><text fill="#000000" font-family="sans-serif" font-size="8.4" font-style="italic" lengthAdjust="spacing" textLength="121.1355" x="271.2" y="1076.6625">+imprimirDatosVehiculo(): String</text></g><!--class Persona--><g id="elem_Persona"><rect codeLine="47" fill="#F1F1F1" height="107.0086" id="Persona" rx="1.5" ry="1.5" style="stroke:#181818;stroke-width:0.3;" width="135.3574" x="585.6" y="879.6082"/><ellipse cx="635.0854" cy="889.2082" fill="#ADD1B2" rx="6.6" ry="6.6" style="stroke:#181818;stroke-width:0.6;"/><path d="M636.7447,886.7332 Q636.8385,886.602 636.951,886.5363 Q637.0635,886.4707 637.1947,886.4707 Q637.4197,886.4707 637.5604,886.6301 Q637.701,886.7801 637.701,887.1457 L637.701,888.0176 Q637.701,888.3832 637.5604,888.5426 Q637.4197,888.702 637.1947,888.702 Q636.9885,888.702 636.8666,888.5801 Q636.7447,888.4676 636.6791,888.1582 Q636.651,887.9426 636.5385,887.8301 Q636.3416,887.6051 635.976,887.4738 Q635.6104,887.3426 635.2354,887.3426 Q634.776,887.3426 634.3916,887.5395 Q634.0166,887.7363 633.7166,888.1863 Q633.426,888.6363 633.426,889.2551 L633.426,889.9113 Q633.426,890.652 633.9604,891.1488 Q634.4947,891.6363 635.451,891.6363 Q636.0135,891.6363 636.4072,891.4863 Q636.6416,891.3926 636.8947,891.1301 Q637.0541,890.9707 637.1385,890.9238 Q637.2322,890.877 637.3541,890.877 Q637.551,890.877 637.701,891.0363 Q637.8604,891.1863 637.8604,891.3926 Q637.8604,891.5988 637.6541,891.8426 Q637.3541,892.1895 636.876,892.3863 Q636.2291,892.6582 635.451,892.6582 Q634.5416,892.6582 633.8197,892.2832 Q633.2291,891.9832 632.8166,891.3457 Q632.4041,890.6988 632.4041,889.9301 L632.4041,889.2363 Q632.4041,888.4395 632.7697,887.7551 Q633.1447,887.0613 633.801,886.6957 Q634.4572,886.3207 635.1979,886.3207 Q635.6385,886.3207 636.0229,886.4238 Q636.4166,886.5176 636.7447,886.7332 Z " fill="#000000"/><text fill="#000000" font-family="sans-serif" font-size="8.4" lengthAdjust="spacing" textLength="31.2867" x="647.3854" y="892.6863">Persona</text><line style="stroke:#181818;stroke-width:0.3;" x1="586.2" x2="720.3574" y1="898.8082" y2="898.8082"/><text fill="#000000" font-family="sans-serif" font-size="8.4" lengthAdjust="spacing" textLength="57.8895" x="589.2" y="910.2727">-nombre: String</text><text fill="#000000" font-family="sans-serif" font-size="8.4" lengthAdjust="spacing" textLength="62.5652" x="589.2" y="921.4453">-apellidos: String</text><text fill="#000000" font-family="sans-serif" font-size="8.4" lengthAdjust="spacing" textLength="31.2785" x="589.2" y="932.618">-dni: Dni</text><text fill="#000000" font-family="sans-serif" font-size="8.4" lengthAdjust="spacing" textLength="72.368" x="589.2" y="943.7906">-anoNacimiento: int</text><text fill="#000000" font-family="sans-serif" font-size="8.4" lengthAdjust="spacing" textLength="55.5639" x="589.2" y="954.9633">-anoCarnet: int</text><line style="stroke:#181818;stroke-width:0.3;" x1="586.2" x2="720.3574" y1="959.4715" y2="959.4715"/><text fill="#000000" font-family="sans-serif" font-size="8.4" lengthAdjust="spacing" textLength="128.1574" x="589.2" y="970.9359">+solicitarDatosPersona(): Persona</text><text fill="#000000" font-family="sans-serif" font-size="8.4" lengthAdjust="spacing" textLength="66.0598" x="589.2" y="982.1086">+toString(): String</text></g><!--class Dni--><g id="elem_Dni"><rect codeLine="57" fill="#F1F1F1" height="129.3539" id="Dni" rx="1.5" ry="1.5" style="stroke:#181818;stroke-width:0.3;" width="121.3465" x="303.3" y="1107.6082"/><ellipse cx="355.1212" cy="1117.2082" fill="#ADD1B2" rx="6.6" ry="6.6" style="stroke:#181818;stroke-width:0.6;"/><path d="M356.7806,1114.7332 Q356.8743,1114.602 356.9868,1114.5363 Q357.0993,1114.4707 357.2306,1114.4707 Q357.4556,1114.4707 357.5962,1114.6301 Q357.7368,1114.7801 357.7368,1115.1457 L357.7368,1116.0176 Q357.7368,1116.3832 357.5962,1116.5426 Q357.4556,1116.702 357.2306,1116.702 Q357.0243,1116.702 356.9024,1116.5801 Q356.7806,1116.4676 356.7149,1116.1582 Q356.6868,1115.9426 356.5743,1115.8301 Q356.3774,1115.6051 356.0118,1115.4738 Q355.6462,1115.3426 355.2712,1115.3426 Q354.8118,1115.3426 354.4274,1115.5395 Q354.0524,1115.7363 353.7524,1116.1863 Q353.4618,1116.6363 353.4618,1117.2551 L353.4618,1117.9113 Q353.4618,1118.652 353.9962,1119.1488 Q354.5306,1119.6363 355.4868,1119.6363 Q356.0493,1119.6363 356.4431,1119.4863 Q356.6774,1119.3926 356.9306,1119.1301 Q357.0899,1118.9707 357.1743,1118.9238 Q357.2681,1118.877 357.3899,1118.877 Q357.5868,1118.877 357.7368,1119.0363 Q357.8962,1119.1863 357.8962,1119.3926 Q357.8962,1119.5988 357.6899,1119.8426 Q357.3899,1120.1895 356.9118,1120.3863 Q356.2649,1120.6582 355.4868,1120.6582 Q354.5774,1120.6582 353.8556,1120.2832 Q353.2649,1119.9832 352.8524,1119.3457 Q352.4399,1118.6988 352.4399,1117.9301 L352.4399,1117.2363 Q352.4399,1116.4395 352.8056,1115.7551 Q353.1806,1115.0613 353.8368,1114.6957 Q354.4931,1114.3207 355.2337,1114.3207 Q355.6743,1114.3207 356.0587,1114.4238 Q356.4524,1114.5176 356.7806,1114.7332 Z " fill="#000000"/><text fill="#000000" font-family="sans-serif" font-size="8.4" lengthAdjust="spacing" textLength="12.6041" x="367.4212" y="1120.6863">Dni</text><line style="stroke:#181818;stroke-width:0.3;" x1="303.9" x2="424.0465" y1="1126.8082" y2="1126.8082"/><text fill="#000000" font-family="sans-serif" font-size="8.4" lengthAdjust="spacing" textLength="45.2813" x="306.9" y="1138.2727">-numDni: int</text><text fill="#000000" font-family="sans-serif" font-size="8.4" lengthAdjust="spacing" textLength="81.2232" x="306.9" y="1149.4453">-LETRAS_DNI: String</text><line style="stroke:#181818;stroke-width:0.3;" x1="303.9" x2="424.0465" y1="1153.9535" y2="1153.9535"/><text fill="#000000" font-family="sans-serif" font-size="8.4" lengthAdjust="spacing" textLength="96.6287" x="306.9" y="1165.418">-calcularLetraNif(int): char</text><text fill="#000000" font-family="sans-serif" font-size="8.4" lengthAdjust="spacing" textLength="106.899" x="306.9" y="1176.5906">-extraerLetraNif(String): char</text><text fill="#000000" font-family="sans-serif" font-size="8.4" lengthAdjust="spacing" textLength="112.268" x="306.9" y="1187.7633">+extraerNumeroNif(String): int</text><text fill="#000000" font-family="sans-serif" font-size="8.4" lengthAdjust="spacing" textLength="84.7383" x="306.9" y="1198.9359">+obtenerNif(int): String</text><text fill="#000000" font-family="sans-serif" font-size="8.4" lengthAdjust="spacing" textLength="114.1465" x="306.9" y="1210.1086">+pedirValidarNif(String): String</text><text fill="#000000" font-family="sans-serif" font-size="8.4" lengthAdjust="spacing" textLength="102.0182" x="306.9" y="1221.2813">+validarNif(String): boolean</text><text fill="#000000" font-family="sans-serif" font-size="8.4" lengthAdjust="spacing" textLength="80.0666" x="306.9" y="1232.4539">+dniToString(): String</text></g><!--class Utilidades--><g id="elem_Utilidades"><rect codeLine="165" fill="#F1F1F1" height="129.3539" id="Utilidades" rx="1.5" ry="1.5" style="stroke:#181818;stroke-width:0.3;" width="192.3322" x="826.8" y="1110.6082"/><ellipse cx="901.9734" cy="1120.2082" fill="#ADD1B2" rx="6.6" ry="6.6" style="stroke:#181818;stroke-width:0.6;"/><path d="M903.6328,1117.7332 Q903.7266,1117.602 903.8391,1117.5363 Q903.9516,1117.4707 904.0828,1117.4707 Q904.3078,1117.4707 904.4484,1117.6301 Q904.5891,1117.7801 904.5891,1118.1457 L904.5891,1119.0176 Q904.5891,1119.3832 904.4484,1119.5426 Q904.3078,1119.702 904.0828,1119.702 Q903.8766,1119.702 903.7547,1119.5801 Q903.6328,1119.4676 903.5672,1119.1582 Q903.5391,1118.9426 903.4266,1118.8301 Q903.2297,1118.6051 902.8641,1118.4738 Q902.4984,1118.3426 902.1234,1118.3426 Q901.6641,1118.3426 901.2797,1118.5395 Q900.9047,1118.7363 900.6047,1119.1863 Q900.3141,1119.6363 900.3141,1120.2551 L900.3141,1120.9113 Q900.3141,1121.652 900.8484,1122.1488 Q901.3828,1122.6363 902.3391,1122.6363 Q902.9016,1122.6363 903.2953,1122.4863 Q903.5297,1122.3926 903.7828,1122.1301 Q903.9422,1121.9707 904.0266,1121.9238 Q904.1203,1121.877 904.2422,1121.877 Q904.4391,1121.877 904.5891,1122.0363 Q904.7484,1122.1863 904.7484,1122.3926 Q904.7484,1122.5988 904.5422,1122.8426 Q904.2422,1123.1895 903.7641,1123.3863 Q903.1172,1123.6582 902.3391,1123.6582 Q901.4297,1123.6582 900.7078,1123.2832 Q900.1172,1122.9832 899.7047,1122.3457 Q899.2922,1121.6988 899.2922,1120.9301 L899.2922,1120.2363 Q899.2922,1119.4395 899.6578,1118.7551 Q900.0328,1118.0613 900.6891,1117.6957 Q901.3453,1117.3207 902.0859,1117.3207 Q902.5266,1117.3207 902.9109,1117.4238 Q903.3047,1117.5176 903.6328,1117.7332 Z " fill="#000000"/><text fill="#000000" font-family="sans-serif" font-size="8.4" lengthAdjust="spacing" textLength="36.8854" x="914.2734" y="1123.6863">Utilidades</text><line style="stroke:#181818;stroke-width:0.3;" x1="827.4" x2="1018.5322" y1="1129.8082" y2="1129.8082"/><text fill="#000000" font-family="sans-serif" font-size="8.4" lengthAdjust="spacing" textLength="49.2598" x="830.4" y="1141.2727">+sc: Scanner</text><text fill="#000000" font-family="sans-serif" font-size="8.4" lengthAdjust="spacing" textLength="123.2314" x="830.4" y="1152.4453">-formatoEsp: DateTimeFormatter</text><line style="stroke:#181818;stroke-width:0.3;" x1="827.4" x2="1018.5322" y1="1156.9535" y2="1156.9535"/><text fill="#000000" font-family="sans-serif" font-size="8.4" lengthAdjust="spacing" textLength="143.5916" x="830.4" y="1168.418">+pedirValidarBoolean(String): Boolean</text><text fill="#000000" font-family="sans-serif" font-size="8.4" lengthAdjust="spacing" textLength="125.8236" x="830.4" y="1179.5906">+pedirValidarString(String): String</text><text fill="#000000" font-family="sans-serif" font-size="8.4" lengthAdjust="spacing" textLength="142.6359" x="830.4" y="1190.7633">+pedirValidarEntero(int, int, String): int</text><text fill="#000000" font-family="sans-serif" font-size="8.4" lengthAdjust="spacing" textLength="163.6729" x="830.4" y="1201.9359">+pedirValidarDouble(double, String): double</text><text fill="#000000" font-family="sans-serif" font-size="8.4" lengthAdjust="spacing" textLength="181.8387" x="830.4" y="1213.1086">+pedirValidarArrayStrings(int, int, String): String[]</text><text fill="#000000" font-family="sans-serif" font-size="8.4" lengthAdjust="spacing" textLength="169.7268" x="830.4" y="1224.2813">+validarFechaMenorHoy(LocalDate): boolean</text><text fill="#000000" font-family="sans-serif" font-size="8.4" lengthAdjust="spacing" textLength="185.1322" x="830.4" y="1235.4539">+pedirValidarFechaddmmaaaa(String): LocalDate</text></g><!--class Imprimible--><g id="elem_Imprimible"><rect codeLine="177" fill="#F1F1F1" height="39.9727" id="Imprimible" rx="1.5" ry="1.5" style="stroke:#181818;stroke-width:0.3;" width="128.3355" x="589.2" y="87.3082"/><ellipse cx="631.4481" cy="96.9082" fill="#B4A7E5" rx="6.6" ry="6.6" style="stroke:#181818;stroke-width:0.6;"/><path d="M632.02,94.8926 L632.02,98.8863 L633.0513,98.8863 Q633.4169,98.8863 633.5763,99.027 Q633.7356,99.1676 633.7356,99.402 Q633.7356,99.627 633.5763,99.7676 Q633.4169,99.9082 633.0513,99.9082 L629.9669,99.9082 Q629.6013,99.9082 629.4419,99.7676 Q629.2825,99.627 629.2825,99.3926 Q629.2825,99.1676 629.4419,99.027 Q629.6013,98.8863 629.9669,98.8863 L630.9981,98.8863 L630.9981,94.8926 L629.9669,94.8926 Q629.6013,94.8926 629.4419,94.752 Q629.2825,94.6113 629.2825,94.377 Q629.2825,94.152 629.4419,94.0113 Q629.6013,93.8707 629.9669,93.8707 L633.0513,93.8707 Q633.4169,93.8707 633.5763,94.0113 Q633.7356,94.152 633.7356,94.377 Q633.7356,94.6113 633.5763,94.752 Q633.4169,94.8926 633.0513,94.8926 L632.02,94.8926 Z " fill="#000000"/><text fill="#000000" font-family="sans-serif" font-size="8.4" font-style="italic" lengthAdjust="spacing" textLength="38.7393" x="643.7481" y="100.3863">Imprimible</text><line style="stroke:#181818;stroke-width:0.3;" x1="589.8" x2="716.9355" y1="106.5082" y2="106.5082"/><line style="stroke:#181818;stroke-width:0.3;" x1="589.8" x2="716.9355" y1="111.3082" y2="111.3082"/><text fill="#000000" font-family="sans-serif" font-size="8.4" lengthAdjust="spacing" textLength="121.1355" x="592.8" y="122.7727">+imprimirDatosVehiculo(): String</text></g><!--class Valorable--><g id="elem_Valorable"><rect codeLine="181" fill="#F1F1F1" height="39.9727" id="Valorable" rx="1.5" ry="1.5" style="stroke:#181818;stroke-width:0.3;" width="125.5629" x="590.7" y="26.1082"/><ellipse cx="633.186" cy="35.7082" fill="#B4A7E5" rx="6.6" ry="6.6" style="stroke:#181818;stroke-width:0.6;"/><path d="M633.7579,33.6926 L633.7579,37.6863 L634.7892,37.6863 Q635.1548,37.6863 635.3142,37.827 Q635.4735,37.9676 635.4735,38.202 Q635.4735,38.427 635.3142,38.5676 Q635.1548,38.7082 634.7892,38.7082 L631.7048,38.7082 Q631.3392,38.7082 631.1798,38.5676 Q631.0204,38.427 631.0204,38.1926 Q631.0204,37.9676 631.1798,37.827 Q631.3392,37.6863 631.7048,37.6863 L632.736,37.6863 L632.736,33.6926 L631.7048,33.6926 Q631.3392,33.6926 631.1798,33.552 Q631.0204,33.4113 631.0204,33.177 Q631.0204,32.952 631.1798,32.8113 Q631.3392,32.6707 631.7048,32.6707 L634.7892,32.6707 Q635.1548,32.6707 635.3142,32.8113 Q635.4735,32.952 635.4735,33.177 Q635.4735,33.4113 635.3142,33.552 Q635.1548,33.6926 634.7892,33.6926 L633.7579,33.6926 Z " fill="#000000"/><text fill="#000000" font-family="sans-serif" font-size="8.4" font-style="italic" lengthAdjust="spacing" textLength="35.4908" x="645.486" y="39.1863">Valorable</text><line style="stroke:#181818;stroke-width:0.3;" x1="591.3" x2="715.6629" y1="45.3082" y2="45.3082"/><line style="stroke:#181818;stroke-width:0.3;" x1="591.3" x2="715.6629" y1="50.1082" y2="50.1082"/><text fill="#000000" font-family="sans-serif" font-size="8.4" lengthAdjust="spacing" textLength="118.3629" x="594.3" y="61.5727">+calcularDepreciacion(): double</text></g><!--class Asegurable--><g id="elem_Asegurable"><rect codeLine="184" fill="#F1F1F1" height="39.9727" id="Asegurable" rx="1.5" ry="1.5" style="stroke:#181818;stroke-width:0.3;" width="99.4031" x="603.6" y="1007.7082"/><ellipse cx="629.5681" cy="1017.3082" fill="#B4A7E5" rx="6.6" ry="6.6" style="stroke:#181818;stroke-width:0.6;"/><path d="M630.14,1015.2926 L630.14,1019.2863 L631.1712,1019.2863 Q631.5368,1019.2863 631.6962,1019.427 Q631.8556,1019.5676 631.8556,1019.802 Q631.8556,1020.027 631.6962,1020.1676 Q631.5368,1020.3082 631.1712,1020.3082 L628.0868,1020.3082 Q627.7212,1020.3082 627.5618,1020.1676 Q627.4025,1020.027 627.4025,1019.7926 Q627.4025,1019.5676 627.5618,1019.427 Q627.7212,1019.2863 628.0868,1019.2863 L629.1181,1019.2863 L629.1181,1015.2926 L628.0868,1015.2926 Q627.7212,1015.2926 627.5618,1015.152 Q627.4025,1015.0113 627.4025,1014.777 Q627.4025,1014.552 627.5618,1014.4113 Q627.7212,1014.2707 628.0868,1014.2707 L631.1712,1014.2707 Q631.5368,1014.2707 631.6962,1014.4113 Q631.8556,1014.552 631.8556,1014.777 Q631.8556,1015.0113 631.6962,1015.152 Q631.5368,1015.2926 631.1712,1015.2926 L630.14,1015.2926 Z " fill="#000000"/><text fill="#000000" font-family="sans-serif" font-size="8.4" font-style="italic" lengthAdjust="spacing" textLength="42.4963" x="641.7388" y="1020.7863">Asegurable</text><line style="stroke:#181818;stroke-width:0.3;" x1="604.2" x2="702.4031" y1="1026.9082" y2="1026.9082"/><line style="stroke:#181818;stroke-width:0.3;" x1="604.2" x2="702.4031" y1="1031.7082" y2="1031.7082"/><text fill="#000000" font-family="sans-serif" font-size="8.4" lengthAdjust="spacing" textLength="92.2031" x="607.2" y="1043.1727">+calcularRiesgo(): String</text></g><!--class Camion--><g id="elem_Camion"><rect codeLine="69" fill="#F1F1F1" height="107.0086" id="Camion" rx="1.5" ry="1.5" style="stroke:#181818;stroke-width:0.3;" width="128.3355" x="589.2" y="1080.0082"/><ellipse cx="636.3454" cy="1089.6082" fill="#ADD1B2" rx="6.6" ry="6.6" style="stroke:#181818;stroke-width:0.6;"/><path d="M638.0048,1087.1332 Q638.0985,1087.002 638.211,1086.9363 Q638.3235,1086.8707 638.4548,1086.8707 Q638.6798,1086.8707 638.8204,1087.0301 Q638.961,1087.1801 638.961,1087.5457 L638.961,1088.4176 Q638.961,1088.7832 638.8204,1088.9426 Q638.6798,1089.102 638.4548,1089.102 Q638.2485,1089.102 638.1267,1088.9801 Q638.0048,1088.8676 637.9392,1088.5582 Q637.911,1088.3426 637.7985,1088.2301 Q637.6017,1088.0051 637.236,1087.8738 Q636.8704,1087.7426 636.4954,1087.7426 Q636.036,1087.7426 635.6517,1087.9395 Q635.2767,1088.1363 634.9767,1088.5863 Q634.686,1089.0363 634.686,1089.6551 L634.686,1090.3113 Q634.686,1091.052 635.2204,1091.5488 Q635.7548,1092.0363 636.711,1092.0363 Q637.2735,1092.0363 637.6673,1091.8863 Q637.9017,1091.7926 638.1548,1091.5301 Q638.3142,1091.3707 638.3985,1091.3238 Q638.4923,1091.277 638.6142,1091.277 Q638.811,1091.277 638.961,1091.4363 Q639.1204,1091.5863 639.1204,1091.7926 Q639.1204,1091.9988 638.9142,1092.2426 Q638.6142,1092.5895 638.136,1092.7863 Q637.4892,1093.0582 636.711,1093.0582 Q635.8017,1093.0582 635.0798,1092.6832 Q634.4892,1092.3832 634.0767,1091.7457 Q633.6642,1091.0988 633.6642,1090.3301 L633.6642,1089.6363 Q633.6642,1088.8395 634.0298,1088.1551 Q634.4048,1087.4613 635.061,1087.0957 Q635.7173,1086.7207 636.4579,1086.7207 Q636.8985,1086.7207 637.2829,1086.8238 Q637.6767,1086.9176 638.0048,1087.1332 Z " fill="#000000"/><text fill="#000000" font-family="sans-serif" font-size="8.4" lengthAdjust="spacing" textLength="28.9447" x="648.6454" y="1093.0863">Camion</text><line style="stroke:#181818;stroke-width:0.3;" x1="589.8" x2="716.9355" y1="1099.2082" y2="1099.2082"/><text fill="#000000" font-family="sans-serif" font-size="8.4" lengthAdjust="spacing" textLength="93.8643" x="592.8" y="1110.6727">-capacidadCarga: double</text><text fill="#000000" font-family="sans-serif" font-size="8.4" lengthAdjust="spacing" textLength="49.0178" x="592.8" y="1121.8453">-numEjes: int</text><text fill="#000000" font-family="sans-serif" font-size="8.4" lengthAdjust="spacing" textLength="100.4021" x="592.8" y="1133.018">-longitudRemolque: double</text><text fill="#000000" font-family="sans-serif" font-size="8.4" lengthAdjust="spacing" textLength="69.5666" x="592.8" y="1144.1906">-potenciaMotor: int</text><line style="stroke:#181818;stroke-width:0.3;" x1="589.8" x2="716.9355" y1="1148.6988" y2="1148.6988"/><text fill="#000000" font-family="sans-serif" font-size="8.4" lengthAdjust="spacing" textLength="92.2031" x="592.8" y="1160.1633">+calcularRiesgo(): String</text><text fill="#000000" font-family="sans-serif" font-size="8.4" lengthAdjust="spacing" textLength="118.3629" x="592.8" y="1171.3359">+calcularDepreciacion(): double</text><text fill="#000000" font-family="sans-serif" font-size="8.4" lengthAdjust="spacing" textLength="121.1355" x="592.8" y="1182.5086">+imprimirDatosVehiculo(): String</text></g><!--class Coche--><g id="elem_Coche"><rect codeLine="82" fill="#F1F1F1" height="118.1812" id="Coche" rx="1.5" ry="1.5" style="stroke:#181818;stroke-width:0.3;" width="153.5561" x="576.6" y="675.3082"/><ellipse cx="638.6874" cy="684.9082" fill="#A9DCDF" rx="6.6" ry="6.6" style="stroke:#181818;stroke-width:0.6;"/><path d="M639.9999,685.9676 L637.5155,685.9676 L637.2624,686.5863 L637.5155,686.5863 Q637.8812,686.5863 638.0405,686.727 Q638.1999,686.8676 638.1999,687.102 Q638.1999,687.327 638.0405,687.4676 Q637.8812,687.6082 637.5155,687.6082 L636.1374,687.6082 Q635.7718,687.6082 635.6218,687.4676 Q635.4624,687.327 635.4624,687.0926 Q635.4624,686.8676 635.6312,686.727 Q635.7905,686.577 636.1655,686.5863 L637.7687,682.5926 L637.103,682.5926 Q636.7374,682.5926 636.578,682.452 Q636.4187,682.3113 636.4187,682.077 Q636.4187,681.852 636.578,681.7113 Q636.7374,681.5707 637.103,681.5707 L639.3062,681.5707 L641.3405,686.5863 Q641.6968,686.5863 641.8093,686.6707 Q642.0437,686.8301 642.0437,687.102 Q642.0437,687.327 641.8843,687.4676 Q641.7343,687.6082 641.3687,687.6082 L639.9905,687.6082 Q639.6249,687.6082 639.4655,687.4676 Q639.3062,687.327 639.3062,687.0926 Q639.3062,686.8676 639.4655,686.727 Q639.6249,686.5863 639.9905,686.5863 L640.2437,686.5863 L639.9999,685.9676 Z M639.5687,684.9457 L638.753,682.9207 L637.928,684.9457 L639.5687,684.9457 Z " fill="#000000"/><text fill="#000000" font-family="sans-serif" font-size="8.4" font-style="italic" lengthAdjust="spacing" textLength="24.2813" x="650.9874" y="688.3863">Coche</text><line style="stroke:#181818;stroke-width:0.3;" x1="577.2" x2="729.5561" y1="694.5082" y2="694.5082"/><text fill="#000000" font-family="sans-serif" font-size="8.4" lengthAdjust="spacing" textLength="61.626" x="580.2" y="705.9727">-numPuertas: int</text><text fill="#000000" font-family="sans-serif" font-size="8.4" lengthAdjust="spacing" textLength="89.6396" x="580.2" y="717.1453">-tipoCombustible: String</text><text fill="#000000" font-family="sans-serif" font-size="8.4" lengthAdjust="spacing" textLength="87.3141" x="580.2" y="728.318">-capacidadMaletero: int</text><text fill="#000000" font-family="sans-serif" font-size="8.4" lengthAdjust="spacing" textLength="69.0867" x="580.2" y="739.4906">-traccion: Traccion</text><line style="stroke:#181818;stroke-width:0.3;" x1="577.2" x2="729.5561" y1="743.9988" y2="743.9988"/><text fill="#000000" font-family="sans-serif" font-size="8.4" lengthAdjust="spacing" textLength="146.3561" x="580.2" y="755.4633">+pedirValidarTraccion(String): Traccion</text><text fill="#000000" font-family="sans-serif" font-size="8.4" font-style="italic" lengthAdjust="spacing" textLength="92.2031" x="580.2" y="766.6359">+calcularRiesgo(): String</text><text fill="#000000" font-family="sans-serif" font-size="8.4" font-style="italic" lengthAdjust="spacing" textLength="118.3629" x="580.2" y="777.8086">+calcularDepreciacion(): double</text><text fill="#000000" font-family="sans-serif" font-size="8.4" lengthAdjust="spacing" textLength="121.1355" x="580.2" y="788.9813">+imprimirDatosVehiculo(): String</text></g><!--class CocheDeportivo--><g id="elem_CocheDeportivo"><rect codeLine="93" fill="#F1F1F1" height="95.8359" id="CocheDeportivo" rx="1.5" ry="1.5" style="stroke:#181818;stroke-width:0.3;" width="128.3355" x="858.9" y="574.8082"/><ellipse cx="890.4021" cy="584.4082" fill="#ADD1B2" rx="6.6" ry="6.6" style="stroke:#181818;stroke-width:0.6;"/><path d="M892.0614,581.9332 Q892.1552,581.802 892.2677,581.7363 Q892.3802,581.6707 892.5114,581.6707 Q892.7364,581.6707 892.8771,581.8301 Q893.0177,581.9801 893.0177,582.3457 L893.0177,583.2176 Q893.0177,583.5832 892.8771,583.7426 Q892.7364,583.902 892.5114,583.902 Q892.3052,583.902 892.1833,583.7801 Q892.0614,583.6676 891.9958,583.3582 Q891.9677,583.1426 891.8552,583.0301 Q891.6583,582.8051 891.2927,582.6738 Q890.9271,582.5426 890.5521,582.5426 Q890.0927,582.5426 889.7083,582.7395 Q889.3333,582.9363 889.0333,583.3863 Q888.7427,583.8363 888.7427,584.4551 L888.7427,585.1113 Q888.7427,585.852 889.2771,586.3488 Q889.8114,586.8363 890.7677,586.8363 Q891.3302,586.8363 891.7239,586.6863 Q891.9583,586.5926 892.2114,586.3301 Q892.3708,586.1707 892.4552,586.1238 Q892.5489,586.077 892.6708,586.077 Q892.8677,586.077 893.0177,586.2363 Q893.1771,586.3863 893.1771,586.5926 Q893.1771,586.7988 892.9708,587.0426 Q892.6708,587.3895 892.1927,587.5863 Q891.5458,587.8582 890.7677,587.8582 Q889.8583,587.8582 889.1364,587.4832 Q888.5458,587.1832 888.1333,586.5457 Q887.7208,585.8988 887.7208,585.1301 L887.7208,584.4363 Q887.7208,583.6395 888.0864,582.9551 Q888.4614,582.2613 889.1177,581.8957 Q889.7739,581.5207 890.5146,581.5207 Q890.9552,581.5207 891.3396,581.6238 Q891.7333,581.7176 892.0614,581.9332 Z " fill="#000000"/><text fill="#000000" font-family="sans-serif" font-size="8.4" lengthAdjust="spacing" textLength="60.2314" x="902.7021" y="587.8863">CocheDeportivo</text><line style="stroke:#181818;stroke-width:0.3;" x1="859.5" x2="986.6355" y1="594.0082" y2="594.0082"/><text fill="#000000" font-family="sans-serif" font-size="8.4" lengthAdjust="spacing" textLength="99.0076" x="862.5" y="605.4727">-aceleracion0a100: double</text><text fill="#000000" font-family="sans-serif" font-size="8.4" lengthAdjust="spacing" textLength="58.3611" x="862.5" y="616.6453">-potenciaCv: int</text><text fill="#000000" font-family="sans-serif" font-size="8.4" lengthAdjust="spacing" textLength="95.2629" x="862.5" y="627.818">-tieneModoPista: boolean</text><line style="stroke:#181818;stroke-width:0.3;" x1="859.5" x2="986.6355" y1="632.3262" y2="632.3262"/><text fill="#000000" font-family="sans-serif" font-size="8.4" lengthAdjust="spacing" textLength="92.2031" x="862.5" y="643.7906">+calcularRiesgo(): String</text><text fill="#000000" font-family="sans-serif" font-size="8.4" lengthAdjust="spacing" textLength="118.3629" x="862.5" y="654.9633">+calcularDepreciacion(): double</text><text fill="#000000" font-family="sans-serif" font-size="8.4" lengthAdjust="spacing" textLength="121.1355" x="862.5" y="666.1359">+imprimirDatosVehiculo(): String</text></g><!--class CocheSedan--><g id="elem_CocheSedan"><rect codeLine="102" fill="#F1F1F1" height="95.8359" id="CocheSedan" rx="1.5" ry="1.5" style="stroke:#181818;stroke-width:0.3;" width="162.8994" x="841.8" y="457.8082"/><ellipse cx="896.4144" cy="467.4082" fill="#ADD1B2" rx="6.6" ry="6.6" style="stroke:#181818;stroke-width:0.6;"/><path d="M898.0737,464.9332 Q898.1675,464.802 898.28,464.7363 Q898.3925,464.6707 898.5237,464.6707 Q898.7487,464.6707 898.8894,464.8301 Q899.03,464.9801 899.03,465.3457 L899.03,466.2176 Q899.03,466.5832 898.8894,466.7426 Q898.7487,466.902 898.5237,466.902 Q898.3175,466.902 898.1956,466.7801 Q898.0737,466.6676 898.0081,466.3582 Q897.98,466.1426 897.8675,466.0301 Q897.6706,465.8051 897.305,465.6738 Q896.9394,465.5426 896.5644,465.5426 Q896.105,465.5426 895.7206,465.7395 Q895.3456,465.9363 895.0456,466.3863 Q894.755,466.8363 894.755,467.4551 L894.755,468.1113 Q894.755,468.852 895.2894,469.3488 Q895.8237,469.8363 896.78,469.8363 Q897.3425,469.8363 897.7362,469.6863 Q897.9706,469.5926 898.2237,469.3301 Q898.3831,469.1707 898.4675,469.1238 Q898.5612,469.077 898.6831,469.077 Q898.88,469.077 899.03,469.2363 Q899.1894,469.3863 899.1894,469.5926 Q899.1894,469.7988 898.9831,470.0426 Q898.6831,470.3895 898.205,470.5863 Q897.5581,470.8582 896.78,470.8582 Q895.8706,470.8582 895.1487,470.4832 Q894.5581,470.1832 894.1456,469.5457 Q893.7331,468.8988 893.7331,468.1301 L893.7331,467.4363 Q893.7331,466.6395 894.0987,465.9551 Q894.4737,465.2613 895.13,464.8957 Q895.7862,464.5207 896.5269,464.5207 Q896.9675,464.5207 897.3519,464.6238 Q897.7456,464.7176 898.0737,464.9332 Z " fill="#000000"/><text fill="#000000" font-family="sans-serif" font-size="8.4" lengthAdjust="spacing" textLength="48.5707" x="908.7144" y="470.8863">CocheSedan</text><line style="stroke:#181818;stroke-width:0.3;" x1="842.4" x2="1004.0994" y1="477.0082" y2="477.0082"/><text fill="#000000" font-family="sans-serif" font-size="8.4" lengthAdjust="spacing" textLength="87.7857" x="845.4" y="488.4727">-espacioInterior: double</text><text fill="#000000" font-family="sans-serif" font-size="8.4" lengthAdjust="spacing" textLength="98.5031" x="845.4" y="499.6453">-nivelConfort: NivelConfort</text><line style="stroke:#181818;stroke-width:0.3;" x1="842.4" x2="1004.0994" y1="504.1535" y2="504.1535"/><text fill="#000000" font-family="sans-serif" font-size="8.4" lengthAdjust="spacing" textLength="155.6994" x="845.4" y="515.618">+pedirValidarConfort(String): NivelConfort</text><text fill="#000000" font-family="sans-serif" font-size="8.4" lengthAdjust="spacing" textLength="92.2031" x="845.4" y="526.7906">+calcularRiesgo(): String</text><text fill="#000000" font-family="sans-serif" font-size="8.4" lengthAdjust="spacing" textLength="118.3629" x="845.4" y="537.9633">+calcularDepreciacion(): double</text><text fill="#000000" font-family="sans-serif" font-size="8.4" lengthAdjust="spacing" textLength="121.1355" x="845.4" y="549.1359">+imprimirDatosVehiculo(): String</text></g><!--class CocheSuv--><g id="elem_CocheSuv"><rect codeLine="111" fill="#F1F1F1" height="84.6633" id="CocheSuv" rx="1.5" ry="1.5" style="stroke:#181818;stroke-width:0.3;" width="128.3355" x="858.9" y="692.1082"/><ellipse cx="901.1399" cy="701.7082" fill="#ADD1B2" rx="6.6" ry="6.6" style="stroke:#181818;stroke-width:0.6;"/><path d="M902.7993,699.2332 Q902.8931,699.102 903.0056,699.0363 Q903.1181,698.9707 903.2493,698.9707 Q903.4743,698.9707 903.6149,699.1301 Q903.7556,699.2801 903.7556,699.6457 L903.7556,700.5176 Q903.7556,700.8832 903.6149,701.0426 Q903.4743,701.202 903.2493,701.202 Q903.0431,701.202 902.9212,701.0801 Q902.7993,700.9676 902.7337,700.6582 Q902.7056,700.4426 902.5931,700.3301 Q902.3962,700.1051 902.0306,699.9738 Q901.6649,699.8426 901.2899,699.8426 Q900.8306,699.8426 900.4462,700.0395 Q900.0712,700.2363 899.7712,700.6863 Q899.4806,701.1363 899.4806,701.7551 L899.4806,702.4113 Q899.4806,703.152 900.0149,703.6488 Q900.5493,704.1363 901.5056,704.1363 Q902.0681,704.1363 902.4618,703.9863 Q902.6962,703.8926 902.9493,703.6301 Q903.1087,703.4707 903.1931,703.4238 Q903.2868,703.377 903.4087,703.377 Q903.6056,703.377 903.7556,703.5363 Q903.9149,703.6863 903.9149,703.8926 Q903.9149,704.0988 903.7087,704.3426 Q903.4087,704.6895 902.9306,704.8863 Q902.2837,705.1582 901.5056,705.1582 Q900.5962,705.1582 899.8743,704.7832 Q899.2837,704.4832 898.8712,703.8457 Q898.4587,703.1988 898.4587,702.4301 L898.4587,701.7363 Q898.4587,700.9395 898.8243,700.2551 Q899.1993,699.5613 899.8556,699.1957 Q900.5118,698.8207 901.2524,698.8207 Q901.6931,698.8207 902.0774,698.9238 Q902.4712,699.0176 902.7993,699.2332 Z " fill="#000000"/><text fill="#000000" font-family="sans-serif" font-size="8.4" lengthAdjust="spacing" textLength="38.7557" x="913.4399" y="705.1863">CocheSuv</text><line style="stroke:#181818;stroke-width:0.3;" x1="859.5" x2="986.6355" y1="711.3082" y2="711.3082"/><text fill="#000000" font-family="sans-serif" font-size="8.4" lengthAdjust="spacing" textLength="103.6711" x="862.5" y="722.7727">-capacidadOffroad: boolean</text><text fill="#000000" font-family="sans-serif" font-size="8.4" lengthAdjust="spacing" textLength="93.8643" x="862.5" y="733.9453">-alturaLibreSuelo: double</text><line style="stroke:#181818;stroke-width:0.3;" x1="859.5" x2="986.6355" y1="738.4535" y2="738.4535"/><text fill="#000000" font-family="sans-serif" font-size="8.4" lengthAdjust="spacing" textLength="92.2031" x="862.5" y="749.918">+calcularRiesgo(): String</text><text fill="#000000" font-family="sans-serif" font-size="8.4" lengthAdjust="spacing" textLength="118.3629" x="862.5" y="761.0906">+calcularDepreciacion(): double</text><text fill="#000000" font-family="sans-serif" font-size="8.4" lengthAdjust="spacing" textLength="121.1355" x="862.5" y="772.2633">+imprimirDatosVehiculo(): String</text></g><!--class NivelConfort--><g id="elem_NivelConfort"><rect codeLine="119" fill="#F1F1F1" height="62.318" id="NivelConfort" rx="1.5" ry="1.5" style="stroke:#181818;stroke-width:0.3;" width="65.4164" x="1056" y="636.6082"/><ellipse cx="1065" cy="646.2082" fill="#EB937F" rx="6.6" ry="6.6" style="stroke:#181818;stroke-width:0.6;"/><path d="M1064.3156,646.6863 L1064.3156,648.1863 L1066.9125,648.1863 L1066.9125,647.6332 Q1066.9125,647.2676 1067.0531,647.1082 Q1067.2031,646.9488 1067.4281,646.9488 Q1067.6531,646.9488 1067.7938,647.1082 Q1067.9344,647.2676 1067.9344,647.6332 L1067.9344,649.2082 L1063.1344,649.2082 Q1062.7594,649.2082 1062.6,649.0676 Q1062.45,648.927 1062.45,648.6926 Q1062.45,648.4676 1062.6094,648.327 Q1062.7688,648.1863 1063.1344,648.1863 L1063.2938,648.1863 L1063.2938,644.1926 L1063.1344,644.1926 Q1062.7594,644.1926 1062.6,644.052 Q1062.45,643.9113 1062.45,643.677 Q1062.45,643.452 1062.6,643.3113 Q1062.7594,643.1707 1063.1344,643.1707 L1067.7094,643.1707 L1067.7094,644.727 Q1067.7094,645.0926 1067.5688,645.252 Q1067.4375,645.402 1067.2031,645.402 Q1066.9781,645.402 1066.8375,645.252 Q1066.6969,645.0926 1066.6969,644.727 L1066.6969,644.1926 L1064.3156,644.1926 L1064.3156,645.6645 L1065.2063,645.6645 Q1065.2063,645.2707 1065.2813,645.1582 Q1065.4406,644.9145 1065.7219,644.9145 Q1065.9469,644.9145 1066.0875,645.0738 Q1066.2281,645.2238 1066.2281,645.5895 L1066.2281,646.7707 Q1066.2281,647.0988 1066.1531,647.2113 Q1065.9937,647.4457 1065.7219,647.4457 Q1065.4406,647.4457 1065.2813,647.202 Q1065.2063,647.0895 1065.2063,646.6863 L1064.3156,646.6863 Z " fill="#000000"/><text fill="#000000" font-family="sans-serif" font-size="8.4" lengthAdjust="spacing" textLength="46.2164" x="1073.4" y="649.6863">NivelConfort</text><line style="stroke:#181818;stroke-width:0.3;" x1="1056.6" x2="1120.8164" y1="655.8082" y2="655.8082"/><text fill="#000000" font-family="sans-serif" font-size="8.4" lengthAdjust="spacing" textLength="31.742" x="1059.6" y="667.2727">BASICO</text><text fill="#000000" font-family="sans-serif" font-size="8.4" lengthAdjust="spacing" textLength="27.5338" x="1059.6" y="678.4453">MEDIO</text><text fill="#000000" font-family="sans-serif" font-size="8.4" lengthAdjust="spacing" textLength="39.6662" x="1059.6" y="689.618">PREMIUM</text><line style="stroke:#181818;stroke-width:0.3;" x1="1056.6" x2="1120.8164" y1="694.1262" y2="694.1262"/></g><!--class Traccion--><g id="elem_Traccion"><rect codeLine="125" fill="#F1F1F1" height="62.318" id="Traccion" rx="1.5" ry="1.5" style="stroke:#181818;stroke-width:0.3;" width="57.6123" x="894.3" y="798.0082"/><ellipse cx="906.0912" cy="807.6082" fill="#EB937F" rx="6.6" ry="6.6" style="stroke:#181818;stroke-width:0.6;"/><path d="M905.4069,808.0863 L905.4069,809.5863 L908.0037,809.5863 L908.0037,809.0332 Q908.0037,808.6676 908.1444,808.5082 Q908.2944,808.3488 908.5194,808.3488 Q908.7444,808.3488 908.885,808.5082 Q909.0256,808.6676 909.0256,809.0332 L909.0256,810.6082 L904.2256,810.6082 Q903.8506,810.6082 903.6912,810.4676 Q903.5412,810.327 903.5412,810.0926 Q903.5412,809.8676 903.7006,809.727 Q903.86,809.5863 904.2256,809.5863 L904.385,809.5863 L904.385,805.5926 L904.2256,805.5926 Q903.8506,805.5926 903.6912,805.452 Q903.5412,805.3113 903.5412,805.077 Q903.5412,804.852 903.6912,804.7113 Q903.8506,804.5707 904.2256,804.5707 L908.8006,804.5707 L908.8006,806.127 Q908.8006,806.4926 908.66,806.652 Q908.5287,806.802 908.2944,806.802 Q908.0694,806.802 907.9287,806.652 Q907.7881,806.4926 907.7881,806.127 L907.7881,805.5926 L905.4069,805.5926 L905.4069,807.0645 L906.2975,807.0645 Q906.2975,806.6707 906.3725,806.5582 Q906.5319,806.3145 906.8131,806.3145 Q907.0381,806.3145 907.1787,806.4738 Q907.3194,806.6238 907.3194,806.9895 L907.3194,808.1707 Q907.3194,808.4988 907.2444,808.6113 Q907.085,808.8457 906.8131,808.8457 Q906.5319,808.8457 906.3725,808.602 Q906.2975,808.4895 906.2975,808.0863 L905.4069,808.0863 Z " fill="#000000"/><text fill="#000000" font-family="sans-serif" font-size="8.4" lengthAdjust="spacing" textLength="32.2096" x="915.1115" y="811.0863">Traccion</text><line style="stroke:#181818;stroke-width:0.3;" x1="894.9" x2="951.3123" y1="817.2082" y2="817.2082"/><text fill="#000000" font-family="sans-serif" font-size="8.4" lengthAdjust="spacing" textLength="50.4123" x="897.9" y="828.6727">DELANTERA</text><text fill="#000000" font-family="sans-serif" font-size="8.4" lengthAdjust="spacing" textLength="39.6744" x="897.9" y="839.8453">TRASERA</text><text fill="#000000" font-family="sans-serif" font-size="8.4" lengthAdjust="spacing" textLength="27.0703" x="897.9" y="851.018">TOTAL</text><line style="stroke:#181818;stroke-width:0.3;" x1="894.9" x2="951.3123" y1="855.5262" y2="855.5262"/></g><!--class TipoTransmision--><g id="elem_TipoTransmision"><rect codeLine="133" fill="#F1F1F1" height="51.1453" id="TipoTransmision" rx="1.5" ry="1.5" style="stroke:#181818;stroke-width:0.3;" width="81.2854" x="882.6" y="360.3082"/><ellipse cx="891.6" cy="369.9082" fill="#EB937F" rx="6.6" ry="6.6" style="stroke:#181818;stroke-width:0.6;"/><path d="M890.9156,370.3863 L890.9156,371.8863 L893.5125,371.8863 L893.5125,371.3332 Q893.5125,370.9676 893.6531,370.8082 Q893.8031,370.6488 894.0281,370.6488 Q894.2531,370.6488 894.3938,370.8082 Q894.5344,370.9676 894.5344,371.3332 L894.5344,372.9082 L889.7344,372.9082 Q889.3594,372.9082 889.2,372.7676 Q889.05,372.627 889.05,372.3926 Q889.05,372.1676 889.2094,372.027 Q889.3688,371.8863 889.7344,371.8863 L889.8938,371.8863 L889.8938,367.8926 L889.7344,367.8926 Q889.3594,367.8926 889.2,367.752 Q889.05,367.6113 889.05,367.377 Q889.05,367.152 889.2,367.0113 Q889.3594,366.8707 889.7344,366.8707 L894.3094,366.8707 L894.3094,368.427 Q894.3094,368.7926 894.1687,368.952 Q894.0375,369.102 893.8031,369.102 Q893.5781,369.102 893.4375,368.952 Q893.2969,368.7926 893.2969,368.427 L893.2969,367.8926 L890.9156,367.8926 L890.9156,369.3645 L891.8063,369.3645 Q891.8063,368.9707 891.8813,368.8582 Q892.0406,368.6145 892.3219,368.6145 Q892.5469,368.6145 892.6875,368.7738 Q892.8281,368.9238 892.8281,369.2895 L892.8281,370.4707 Q892.8281,370.7988 892.7531,370.9113 Q892.5938,371.1457 892.3219,371.1457 Q892.0406,371.1457 891.8813,370.902 Q891.8063,370.7895 891.8063,370.3863 L890.9156,370.3863 Z " fill="#000000"/><text fill="#000000" font-family="sans-serif" font-size="8.4" lengthAdjust="spacing" textLength="62.0854" x="900" y="373.3863">TipoTransmision</text><line style="stroke:#181818;stroke-width:0.3;" x1="883.2" x2="963.2854" y1="379.5082" y2="379.5082"/><text fill="#000000" font-family="sans-serif" font-size="8.4" lengthAdjust="spacing" textLength="35.0068" x="886.2" y="390.9727">MANUAL</text><text fill="#000000" font-family="sans-serif" font-size="8.4" lengthAdjust="spacing" textLength="55.0676" x="886.2" y="402.1453">AUTOMATICA</text><line style="stroke:#181818;stroke-width:0.3;" x1="883.2" x2="963.2854" y1="406.6535" y2="406.6535"/></g><!--class Moto--><g id="elem_Moto"><rect codeLine="138" fill="#F1F1F1" height="118.1812" id="Moto" rx="1.5" ry="1.5" style="stroke:#181818;stroke-width:0.3;" width="213.3076" x="546.6" y="268.5082"/><ellipse cx="641.3666" cy="278.1082" fill="#A9DCDF" rx="6.6" ry="6.6" style="stroke:#181818;stroke-width:0.6;"/><path d="M642.6791,279.1676 L640.1947,279.1676 L639.9416,279.7863 L640.1947,279.7863 Q640.5604,279.7863 640.7197,279.927 Q640.8791,280.0676 640.8791,280.302 Q640.8791,280.527 640.7197,280.6676 Q640.5604,280.8082 640.1947,280.8082 L638.8166,280.8082 Q638.451,280.8082 638.301,280.6676 Q638.1416,280.527 638.1416,280.2926 Q638.1416,280.0676 638.3104,279.927 Q638.4697,279.777 638.8447,279.7863 L640.4479,275.7926 L639.7822,275.7926 Q639.4166,275.7926 639.2572,275.652 Q639.0979,275.5113 639.0979,275.277 Q639.0979,275.052 639.2572,274.9113 Q639.4166,274.7707 639.7822,274.7707 L641.9854,274.7707 L644.0197,279.7863 Q644.376,279.7863 644.4885,279.8707 Q644.7229,280.0301 644.7229,280.302 Q644.7229,280.527 644.5635,280.6676 Q644.4135,280.8082 644.0479,280.8082 L642.6697,280.8082 Q642.3041,280.8082 642.1447,280.6676 Q641.9854,280.527 641.9854,280.2926 Q641.9854,280.0676 642.1447,279.927 Q642.3041,279.7863 642.6697,279.7863 L642.9229,279.7863 L642.6791,279.1676 Z M642.2479,278.1457 L641.4322,276.1207 L640.6072,278.1457 L642.2479,278.1457 Z " fill="#000000"/><text fill="#000000" font-family="sans-serif" font-size="8.4" font-style="italic" lengthAdjust="spacing" textLength="18.6744" x="653.6666" y="281.5863">Moto</text><line style="stroke:#181818;stroke-width:0.3;" x1="547.2" x2="759.3076" y1="287.7082" y2="287.7082"/><text fill="#000000" font-family="sans-serif" font-size="8.4" lengthAdjust="spacing" textLength="52.2908" x="550.2" y="299.1727">-cilindrada: int</text><text fill="#000000" font-family="sans-serif" font-size="8.4" lengthAdjust="spacing" textLength="34.5516" x="550.2" y="310.3453">-peso: int</text><text fill="#000000" font-family="sans-serif" font-size="8.4" lengthAdjust="spacing" textLength="81.7195" x="550.2" y="321.518">-alturaAsiento: double</text><text fill="#000000" font-family="sans-serif" font-size="8.4" lengthAdjust="spacing" textLength="128.8383" x="550.2" y="332.6906">-tipoTransmision: TipoTransmision</text><line style="stroke:#181818;stroke-width:0.3;" x1="547.2" x2="759.3076" y1="337.1988" y2="337.1988"/><text fill="#000000" font-family="sans-serif" font-size="8.4" lengthAdjust="spacing" textLength="206.1076" x="550.2" y="348.6633">+pedirValidarTipoTransmision(String): TipoTransmision</text><text fill="#000000" font-family="sans-serif" font-size="8.4" font-style="italic" lengthAdjust="spacing" textLength="92.2031" x="550.2" y="359.8359">+calcularRiesgo(): String</text><text fill="#000000" font-family="sans-serif" font-size="8.4" font-style="italic" lengthAdjust="spacing" textLength="118.3629" x="550.2" y="371.0086">+calcularDepreciacion(): double</text><text fill="#000000" font-family="sans-serif" font-size="8.4" lengthAdjust="spacing" textLength="121.1355" x="550.2" y="382.1813">+imprimirDatosVehiculo(): String</text></g><!--class MotoDeportiva--><g id="elem_MotoDeportiva"><rect codeLine="149" fill="#F1F1F1" height="84.6633" id="MotoDeportiva" rx="1.5" ry="1.5" style="stroke:#181818;stroke-width:0.3;" width="128.3355" x="858.9" y="159.9082"/><ellipse cx="893.2055" cy="169.5082" fill="#ADD1B2" rx="6.6" ry="6.6" style="stroke:#181818;stroke-width:0.6;"/><path d="M894.8648,167.0332 Q894.9586,166.902 895.0711,166.8363 Q895.1836,166.7707 895.3148,166.7707 Q895.5398,166.7707 895.6805,166.9301 Q895.8211,167.0801 895.8211,167.4457 L895.8211,168.3176 Q895.8211,168.6832 895.6805,168.8426 Q895.5398,169.002 895.3148,169.002 Q895.1086,169.002 894.9867,168.8801 Q894.8648,168.7676 894.7992,168.4582 Q894.7711,168.2426 894.6586,168.1301 Q894.4617,167.9051 894.0961,167.7738 Q893.7305,167.6426 893.3555,167.6426 Q892.8961,167.6426 892.5117,167.8395 Q892.1367,168.0363 891.8367,168.4863 Q891.5461,168.9363 891.5461,169.5551 L891.5461,170.2113 Q891.5461,170.952 892.0805,171.4488 Q892.6148,171.9363 893.5711,171.9363 Q894.1336,171.9363 894.5273,171.7863 Q894.7617,171.6926 895.0148,171.4301 Q895.1742,171.2707 895.2586,171.2238 Q895.3523,171.177 895.4742,171.177 Q895.6711,171.177 895.8211,171.3363 Q895.9805,171.4863 895.9805,171.6926 Q895.9805,171.8988 895.7742,172.1426 Q895.4742,172.4895 894.9961,172.6863 Q894.3492,172.9582 893.5711,172.9582 Q892.6617,172.9582 891.9398,172.5832 Q891.3492,172.2832 890.9367,171.6457 Q890.5242,170.9988 890.5242,170.2301 L890.5242,169.5363 Q890.5242,168.7395 890.8898,168.0551 Q891.2648,167.3613 891.9211,166.9957 Q892.5773,166.6207 893.318,166.6207 Q893.7586,166.6207 894.143,166.7238 Q894.5367,166.8176 894.8648,167.0332 Z " fill="#000000"/><text fill="#000000" font-family="sans-serif" font-size="8.4" lengthAdjust="spacing" textLength="54.6246" x="905.5055" y="172.9863">MotoDeportiva</text><line style="stroke:#181818;stroke-width:0.3;" x1="859.5" x2="986.6355" y1="179.1082" y2="179.1082"/><text fill="#000000" font-family="sans-serif" font-size="8.4" lengthAdjust="spacing" textLength="97.5844" x="862.5" y="190.5727">-velocidadMaxima: double</text><text fill="#000000" font-family="sans-serif" font-size="8.4" lengthAdjust="spacing" textLength="101.325" x="862.5" y="201.7453">-tieneQuickShifter: boolean</text><line style="stroke:#181818;stroke-width:0.3;" x1="859.5" x2="986.6355" y1="206.2535" y2="206.2535"/><text fill="#000000" font-family="sans-serif" font-size="8.4" lengthAdjust="spacing" textLength="92.2031" x="862.5" y="217.718">+calcularRiesgo(): String</text><text fill="#000000" font-family="sans-serif" font-size="8.4" lengthAdjust="spacing" textLength="118.3629" x="862.5" y="228.8906">+calcularDepreciacion(): double</text><text fill="#000000" font-family="sans-serif" font-size="8.4" lengthAdjust="spacing" textLength="121.1355" x="862.5" y="240.0633">+imprimirDatosVehiculo(): String</text></g><!--class MotoScooter--><g id="elem_MotoScooter"><rect codeLine="157" fill="#F1F1F1" height="73.4906" id="MotoScooter" rx="1.5" ry="1.5" style="stroke:#181818;stroke-width:0.3;" width="128.3355" x="858.9" y="265.8082"/><ellipse cx="896.7062" cy="275.4082" fill="#ADD1B2" rx="6.6" ry="6.6" style="stroke:#181818;stroke-width:0.6;"/><path d="M898.3655,272.9332 Q898.4593,272.802 898.5718,272.7363 Q898.6843,272.6707 898.8155,272.6707 Q899.0405,272.6707 899.1812,272.8301 Q899.3218,272.9801 899.3218,273.3457 L899.3218,274.2176 Q899.3218,274.5832 899.1812,274.7426 Q899.0405,274.902 898.8155,274.902 Q898.6093,274.902 898.4874,274.7801 Q898.3655,274.6676 898.2999,274.3582 Q898.2718,274.1426 898.1593,274.0301 Q897.9624,273.8051 897.5968,273.6738 Q897.2312,273.5426 896.8562,273.5426 Q896.3968,273.5426 896.0124,273.7395 Q895.6374,273.9363 895.3374,274.3863 Q895.0468,274.8363 895.0468,275.4551 L895.0468,276.1113 Q895.0468,276.852 895.5812,277.3488 Q896.1155,277.8363 897.0718,277.8363 Q897.6343,277.8363 898.028,277.6863 Q898.2624,277.5926 898.5155,277.3301 Q898.6749,277.1707 898.7593,277.1238 Q898.853,277.077 898.9749,277.077 Q899.1718,277.077 899.3218,277.2363 Q899.4812,277.3863 899.4812,277.5926 Q899.4812,277.7988 899.2749,278.0426 Q898.9749,278.3895 898.4968,278.5863 Q897.8499,278.8582 897.0718,278.8582 Q896.1624,278.8582 895.4405,278.4832 Q894.8499,278.1832 894.4374,277.5457 Q894.0249,276.8988 894.0249,276.1301 L894.0249,275.4363 Q894.0249,274.6395 894.3905,273.9551 Q894.7655,273.2613 895.4218,272.8957 Q896.078,272.5207 896.8187,272.5207 Q897.2593,272.5207 897.6437,272.6238 Q898.0374,272.7176 898.3655,272.9332 Z " fill="#000000"/><text fill="#000000" font-family="sans-serif" font-size="8.4" lengthAdjust="spacing" textLength="47.6232" x="909.0062" y="278.8863">MotoScooter</text><line style="stroke:#181818;stroke-width:0.3;" x1="859.5" x2="986.6355" y1="285.0082" y2="285.0082"/><text fill="#000000" font-family="sans-serif" font-size="8.4" lengthAdjust="spacing" textLength="90.1195" x="862.5" y="296.4727">-espacioBajoAsiento: int</text><line style="stroke:#181818;stroke-width:0.3;" x1="859.5" x2="986.6355" y1="300.9809" y2="300.9809"/><text fill="#000000" font-family="sans-serif" font-size="8.4" lengthAdjust="spacing" textLength="92.2031" x="862.5" y="312.4453">+calcularRiesgo(): String</text><text fill="#000000" font-family="sans-serif" font-size="8.4" lengthAdjust="spacing" textLength="118.3629" x="862.5" y="323.618">+calcularDepreciacion(): double</text><text fill="#000000" font-family="sans-serif" font-size="8.4" lengthAdjust="spacing" textLength="121.1355" x="862.5" y="334.7906">+imprimirDatosVehiculo(): String</text></g><!--class Principal--><g id="elem_Principal"><rect codeLine="4" fill="#F1F1F1" height="73.4906" id="Principal" rx="1.5" ry="1.5" style="stroke:#181818;stroke-width:0.3;" width="175.0564" x="276.3" y="1396.2082"/><ellipse cx="345.1714" cy="1405.8082" fill="#ADD1B2" rx="6.6" ry="6.6" style="stroke:#181818;stroke-width:0.6;"/><path d="M346.8308,1403.3332 Q346.9245,1403.202 347.037,1403.1363 Q347.1495,1403.0707 347.2808,1403.0707 Q347.5058,1403.0707 347.6464,1403.2301 Q347.787,1403.3801 347.787,1403.7457 L347.787,1404.6176 Q347.787,1404.9832 347.6464,1405.1426 Q347.5058,1405.302 347.2808,1405.302 Q347.0745,1405.302 346.9526,1405.1801 Q346.8308,1405.0676 346.7651,1404.7582 Q346.737,1404.5426 346.6245,1404.4301 Q346.4276,1404.2051 346.062,1404.0738 Q345.6964,1403.9426 345.3214,1403.9426 Q344.862,1403.9426 344.4776,1404.1395 Q344.1026,1404.3363 343.8026,1404.7863 Q343.512,1405.2363 343.512,1405.8551 L343.512,1406.5113 Q343.512,1407.252 344.0464,1407.7488 Q344.5808,1408.2363 345.537,1408.2363 Q346.0995,1408.2363 346.4933,1408.0863 Q346.7276,1407.9926 346.9808,1407.7301 Q347.1401,1407.5707 347.2245,1407.5238 Q347.3183,1407.477 347.4401,1407.477 Q347.637,1407.477 347.787,1407.6363 Q347.9464,1407.7863 347.9464,1407.9926 Q347.9464,1408.1988 347.7401,1408.4426 Q347.4401,1408.7895 346.962,1408.9863 Q346.3151,1409.2582 345.537,1409.2582 Q344.6276,1409.2582 343.9058,1408.8832 Q343.3151,1408.5832 342.9026,1407.9457 Q342.4901,1407.2988 342.4901,1406.5301 L342.4901,1405.8363 Q342.4901,1405.0395 342.8558,1404.3551 Q343.2308,1403.6613 343.887,1403.2957 Q344.5433,1402.9207 345.2839,1402.9207 Q345.7245,1402.9207 346.1089,1403.0238 Q346.5026,1403.1176 346.8308,1403.3332 Z " fill="#000000"/><text fill="#000000" font-family="sans-serif" font-size="8.4" lengthAdjust="spacing" textLength="32.2137" x="357.4714" y="1409.2863">Principal</text><line style="stroke:#181818;stroke-width:0.3;" x1="276.9" x2="450.7564" y1="1415.4082" y2="1415.4082"/><line style="stroke:#181818;stroke-width:0.3;" x1="276.9" x2="450.7564" y1="1420.2082" y2="1420.2082"/><text fill="#000000" font-family="sans-serif" font-size="8.4" lengthAdjust="spacing" textLength="75.3949" x="279.9" y="1431.6727">+main(String[]): void</text><text fill="#000000" font-family="sans-serif" font-size="8.4" lengthAdjust="spacing" textLength="80.0584" x="279.9" y="1442.8453">+mostrarMenu(): void</text><text fill="#000000" font-family="sans-serif" font-size="8.4" lengthAdjust="spacing" textLength="167.8564" x="279.9" y="1454.018">+gestionarOpciones(int, Concesionario): void</text><text fill="#000000" font-family="sans-serif" font-size="8.4" lengthAdjust="spacing" textLength="135.6346" x="279.9" y="1465.1906">+crearVehiculo(Concesionario): void</text></g><!--class Concesionario--><g id="elem_Concesionario"><rect codeLine="11" fill="#F1F1F1" height="162.8719" id="Concesionario" rx="1.5" ry="1.5" style="stroke:#181818;stroke-width:0.3;" width="155.898" x="4.2" y="786.9082"/><ellipse cx="52.7502" cy="796.5082" fill="#ADD1B2" rx="6.6" ry="6.6" style="stroke:#181818;stroke-width:0.6;"/><path d="M54.4096,794.0332 Q54.5033,793.902 54.6158,793.8363 Q54.7283,793.7707 54.8596,793.7707 Q55.0846,793.7707 55.2252,793.9301 Q55.3658,794.0801 55.3658,794.4457 L55.3658,795.3176 Q55.3658,795.6832 55.2252,795.8426 Q55.0846,796.002 54.8596,796.002 Q54.6533,796.002 54.5314,795.8801 Q54.4096,795.7676 54.3439,795.4582 Q54.3158,795.2426 54.2033,795.1301 Q54.0064,794.9051 53.6408,794.7738 Q53.2752,794.6426 52.9002,794.6426 Q52.4408,794.6426 52.0564,794.8395 Q51.6814,795.0363 51.3814,795.4863 Q51.0908,795.9363 51.0908,796.5551 L51.0908,797.2113 Q51.0908,797.952 51.6252,798.4488 Q52.1596,798.9363 53.1158,798.9363 Q53.6783,798.9363 54.0721,798.7863 Q54.3064,798.6926 54.5596,798.4301 Q54.7189,798.2707 54.8033,798.2238 Q54.8971,798.177 55.0189,798.177 Q55.2158,798.177 55.3658,798.3363 Q55.5252,798.4863 55.5252,798.6926 Q55.5252,798.8988 55.3189,799.1426 Q55.0189,799.4895 54.5408,799.6863 Q53.8939,799.9582 53.1158,799.9582 Q52.2064,799.9582 51.4846,799.5832 Q50.8939,799.2832 50.4814,798.6457 Q50.0689,797.9988 50.0689,797.2301 L50.0689,796.5363 Q50.0689,795.7395 50.4346,795.0551 Q50.8096,794.3613 51.4658,793.9957 Q52.1221,793.6207 52.8627,793.6207 Q53.3033,793.6207 53.6877,793.7238 Q54.0814,793.8176 54.4096,794.0332 Z " fill="#000000"/><text fill="#000000" font-family="sans-serif" font-size="8.4" lengthAdjust="spacing" textLength="53.6977" x="65.0502" y="799.9863">Concesionario</text><line style="stroke:#181818;stroke-width:0.3;" x1="4.8" x2="159.498" y1="806.1082" y2="806.1082"/><text fill="#000000" font-family="sans-serif" font-size="8.4" lengthAdjust="spacing" textLength="100.3816" x="7.8" y="817.5727">-stockVehiculos: Vehiculo[]</text><text fill="#000000" font-family="sans-serif" font-size="8.4" lengthAdjust="spacing" textLength="85.4479" x="7.8" y="828.7453">-contadorVehiculos: int</text><line style="stroke:#181818;stroke-width:0.3;" x1="4.8" x2="159.498" y1="833.2535" y2="833.2535"/><text fill="#000000" font-family="sans-serif" font-size="8.4" lengthAdjust="spacing" textLength="103.4168" x="7.8" y="844.718">+buscarVehiculo(String): int</text><text fill="#000000" font-family="sans-serif" font-size="8.4" lengthAdjust="spacing" textLength="137.5172" x="7.8" y="855.8906">+insertarVehiculo(Vehiculo): boolean</text><text fill="#000000" font-family="sans-serif" font-size="8.4" lengthAdjust="spacing" textLength="135.1793" x="7.8" y="867.0633">+asignarPropietario(String): boolean</text><text fill="#000000" font-family="sans-serif" font-size="8.4" lengthAdjust="spacing" textLength="134.6953" x="7.8" y="878.2359">+informacionVehiculo(String): String</text><text fill="#000000" font-family="sans-serif" font-size="8.4" lengthAdjust="spacing" textLength="102.4816" x="7.8" y="889.4086">+listadoVehiculos(): String[]</text><text fill="#000000" font-family="sans-serif" font-size="8.4" lengthAdjust="spacing" textLength="128.6291" x="7.8" y="900.5813">+listadoVehiculosDetalle(): String[]</text><text fill="#000000" font-family="sans-serif" font-size="8.4" lengthAdjust="spacing" textLength="86.1451" x="7.8" y="911.7539">+esAlmacenLleno(): int</text><text fill="#000000" font-family="sans-serif" font-size="8.4" lengthAdjust="spacing" textLength="115.7994" x="7.8" y="922.9266">-esPosicionValida(int): boolean</text><text fill="#000000" font-family="sans-serif" font-size="8.4" lengthAdjust="spacing" textLength="125.8195" x="7.8" y="934.0992">+calcularRiesgoFinal(String): void</text><text fill="#000000" font-family="sans-serif" font-size="8.4" lengthAdjust="spacing" textLength="148.698" x="7.8" y="945.2719">+calcularDepreciacionFinal(String): void</text></g><!--link Principal to Camion--><g id="link_Principal_Camion"><path codeLine="190" d="M379.992,1396.1122 C398.19,1357.1242 431.874,1296.1522 478.2,1259.4082 C496.44,1244.9362 513.198,1259.8582 527.4,1241.4082 C534.504,1232.1742 525.486,1198.7242 532.2,1189.2082 C545.766,1169.9782 564.3201,1158.5296 585.7581,1150.1296 " fill="none" id="Principal-to-Camion" style="stroke:#181818;stroke-width:0.6;stroke-dasharray:7.0,7.0;"/><polygon fill="#181818" points="589.11,1148.8162,583.2066,1148.5517,586.3168,1149.9107,584.9578,1153.0208,589.11,1148.8162" style="stroke:#181818;stroke-width:0.6;"/><text fill="#000000" font-family="sans-serif" font-size="7.8" lengthAdjust="spacing" textLength="48.1254" x="478.8" y="1239.0252">crea instancia</text></g><!--link Principal to CocheDeportivo--><g id="link_Principal_CocheDeportivo"><path codeLine="191" d="M451.584,1455.9022 C477.348,1461.7102 505.74,1467.1042 532.2,1470.0082 C654.774,1483.4362 740.4,1551.0022 808.8,1448.4082 C856.074,1377.4942 784.332,755.4922 826.8,681.6082 C834.33,668.5042 843.0631,659.9208 855.7771,651.5688 " fill="none" id="Principal-to-CocheDeportivo" style="stroke:#181818;stroke-width:0.6;stroke-dasharray:7.0,7.0;"/><polygon fill="#181818" points="858.786,649.5922,852.955,650.5511,856.2786,651.2393,855.5904,654.5629,858.786,649.5922" style="stroke:#181818;stroke-width:0.6;"/><text fill="#000000" font-family="sans-serif" font-size="7.8" lengthAdjust="spacing" textLength="48.1254" x="629.4" y="1467.6252">crea instancia</text></g><!--link Principal to CocheSedan--><g id="link_Principal_CocheSedan"><path codeLine="192" d="M451.728,1440.3442 C569.898,1448.2162 770.55,1452.4882 808.8,1395.0082 C859.962,1318.1182 780.666,644.0122 826.8,564.0082 C830.736,557.1862 833.2041,553.5356 838.9761,548.0696 " fill="none" id="Principal-to-CocheSedan" style="stroke:#181818;stroke-width:0.6;stroke-dasharray:7.0,7.0;"/><polygon fill="#181818" points="841.59,545.5942,836.0189,547.5646,839.4117,547.657,839.3193,551.0499,841.59,545.5942" style="stroke:#181818;stroke-width:0.6;"/><text fill="#000000" font-family="sans-serif" font-size="7.8" lengthAdjust="spacing" textLength="48.1254" x="629.4" y="1424.4252">crea instancia</text></g><!--link Principal to CocheSuv--><g id="link_Principal_CocheSuv"><path codeLine="193" d="M420.72,1469.4382 C438.726,1480.4842 458.988,1492.2142 478.2,1501.8082 C590.67,1557.9442 637.236,1549.5022 760.2,1523.4082 C783.324,1518.5002 795.672,1521.4642 808.8,1501.8082 C852.912,1435.7602 785.562,855.0862 826.8,787.2082 C834.384,774.7162 842.9742,766.8104 855.5982,759.2804 " fill="none" id="Principal-to-CocheSuv" style="stroke:#181818;stroke-width:0.6;stroke-dasharray:7.0,7.0;"/><polygon fill="#181818" points="858.69,757.4362,852.8229,758.1413,856.1135,758.973,855.2818,762.2637,858.69,757.4362" style="stroke:#181818;stroke-width:0.6;"/><text fill="#000000" font-family="sans-serif" font-size="7.8" lengthAdjust="spacing" textLength="48.1254" x="629.4" y="1521.0252">crea instancia</text></g><!--link Principal to MotoDeportiva--><g id="link_Principal_MotoDeportiva"><path codeLine="194" d="M408.216,1396.0942 C428.808,1379.6062 454.092,1360.4722 478.2,1345.2082 C500.97,1330.7842 506.94,1327.0102 532.2,1317.6082 C650.814,1273.4422 729.78,1348.6822 808.8,1249.8082 C843.312,1206.6262 798.27,302.3482 826.8,255.0082 C834.39,242.4082 843.0607,234.4424 855.7807,226.8884 " fill="none" id="Principal-to-MotoDeportiva" style="stroke:#181818;stroke-width:0.6;stroke-dasharray:7.0,7.0;"/><polygon fill="#181818" points="858.876,225.0502,853.0076,225.744,856.2966,226.582,855.4585,229.8711,858.876,225.0502" style="stroke:#181818;stroke-width:0.6;"/><text fill="#000000" font-family="sans-serif" font-size="7.8" lengthAdjust="spacing" textLength="48.1254" x="629.4" y="1290.0252">crea instancia</text></g><!--link Principal to MotoScooter--><g id="link_Principal_MotoScooter"><path codeLine="195" d="M427.356,1396.1182 C458.076,1379.6182 496.128,1361.2282 532.2,1349.4082 C651.846,1310.1922 739.182,1393.1122 808.8,1288.2082 C837.63,1244.7622 798.882,393.8422 826.8,349.8082 C834.444,337.7482 842.9825,330.3691 855.6125,323.5471 " fill="none" id="Principal-to-MotoScooter" style="stroke:#181818;stroke-width:0.6;stroke-dasharray:7.0,7.0;"/><polygon fill="#181818" points="858.78,321.8362,852.8882,322.2909,856.1404,323.2619,855.1694,326.5142,858.78,321.8362" style="stroke:#181818;stroke-width:0.6;"/><text fill="#000000" font-family="sans-serif" font-size="7.8" lengthAdjust="spacing" textLength="48.1254" x="629.4" y="1331.4252">crea instancia</text></g><!--link Principal to Utilidades--><g id="link_Principal_Utilidades"><path codeLine="197" d="M379.998,1469.5642 C398.25,1508.8582 432.03,1570.6102 478.2,1608.6082 C534.924,1655.2942 761.214,1664.5762 808.8,1608.6082 C899.082,1502.4202 918.5363,1336.1454 922.1723,1243.8354 " fill="none" id="Principal-to-Utilidades" style="stroke:#181818;stroke-width:0.6;stroke-dasharray:7.0,7.0;"/><polygon fill="#181818" points="922.314,1240.2382,919.7033,1245.5396,922.1959,1243.2359,924.4996,1245.7285,922.314,1240.2382" style="stroke:#181818;stroke-width:0.6;"/><text fill="#000000" font-family="sans-serif" font-size="7.8" lengthAdjust="spacing" textLength="12.576" x="647.4" y="1630.8252">usa</text></g><!--link Principal to Utilidades--><g id="link_Principal_Utilidades"><path codeLine="200" d="M377.376,1469.5042 C394.488,1513.7962 428.454,1588.2802 478.2,1636.2082 C568.89,1723.5802 639.36,1699.2562 760.2,1663.8082 C784.83,1656.5782 793.848,1653.4702 808.8,1632.6082 C894.69,1512.7762 915.8026,1338.627 920.8966,1243.929 " fill="none" id="Principal-to-Utilidades-1" style="stroke:#181818;stroke-width:0.6;stroke-dasharray:7.0,7.0;"/><polygon fill="#181818" points="921.09,1240.3342,918.4034,1245.5975,920.9289,1243.3299,923.1965,1245.8553,921.09,1240.3342" style="stroke:#181818;stroke-width:0.6;"/><text fill="#000000" font-family="sans-serif" font-size="7.8" lengthAdjust="spacing" textLength="84.5584" x="611.4" y="1661.4252">validaci&#243;n entrada datos</text></g><!--link Principal to Vehiculo--><g id="link_Principal_Vehiculo"><path codeLine="199" d="M319.044,1396.1182 C280.608,1361.5342 228,1305.9022 205.5,1244.1082 C181.824,1179.0802 219.4112,1114.8081 265.1312,1064.2581 " fill="none" id="Principal-to-Vehiculo" style="stroke:#181818;stroke-width:0.6;stroke-dasharray:7.0,7.0;"/><polygon fill="#181818" points="267.546,1061.5882,262.1438,1063.9832,265.5336,1063.8132,265.7037,1067.203,267.546,1061.5882" style="stroke:#181818;stroke-width:0.6;"/><text fill="#000000" font-family="sans-serif" font-size="7.8" lengthAdjust="spacing" textLength="68.9317" x="179.1" y="1241.7252">validaci&#243;n matr&#237;cula</text></g><!--link Principal to Traccion--><g id="link_Principal_Traccion"><path codeLine="202" d="M391.41,1469.5822 C412.53,1496.3002 444,1531.7422 478.2,1555.2082 C538.776,1596.7702 767.97,1616.2822 808.8,1555.2082 C851.574,1491.2242 781.488,925.0102 826.8,862.8082 C842.196,841.6702 868.3627,834.2197 890.6227,831.2917 " fill="none" id="Principal-to-Traccion" style="stroke:#181818;stroke-width:0.6;stroke-dasharray:7.0,7.0;"/><polygon fill="#181818" points="894.192,830.8222,888.5251,829.1469,891.2176,831.2134,889.1511,833.9059,894.192,830.8222" style="stroke:#181818;stroke-width:0.6;"/><text fill="#000000" font-family="sans-serif" font-size="7.8" lengthAdjust="spacing" textLength="12.576" x="647.4" y="1576.2252">usa</text></g><!--link Principal to NivelConfort--><g id="link_Principal_NivelConfort"><path codeLine="203" d="M372.75,1469.5942 C386.298,1522.1662 417.954,1618.9042 478.2,1677.6082 C583.44,1780.1542 706.86,1780.4302 808.8,1674.6082 C954.996,1522.8442 959.37,1451.8042 1019.4,1249.8082 C1079.904,1046.2162 1087.3872,791.2641 1088.0952,702.7581 " fill="none" id="Principal-to-NivelConfort" style="stroke:#181818;stroke-width:0.6;stroke-dasharray:7.0,7.0;"/><polygon fill="#181818" points="1088.124,699.1582,1085.6809,704.5388,1088.1,702.1581,1090.4807,704.5772,1088.124,699.1582" style="stroke:#181818;stroke-width:0.6;"/><text fill="#000000" font-family="sans-serif" font-size="7.8" lengthAdjust="spacing" textLength="12.576" x="787.5" y="1672.2252">usa</text></g><!--link Principal to TipoTransmision--><g id="link_Principal_TipoTransmision"><path codeLine="204" d="M451.74,1421.5162 C575.442,1404.5422 789.096,1371.2662 808.8,1341.6082 C836.268,1300.2562 802.716,491.6122 826.8,448.2082 C838.83,426.5242 858.699,412.7278 879.189,402.6598 " fill="none" id="Principal-to-TipoTransmision" style="stroke:#181818;stroke-width:0.6;stroke-dasharray:7.0,7.0;"/><polygon fill="#181818" points="882.42,401.0722,876.5151,401.2996,879.7275,402.3952,878.6319,405.6076,882.42,401.0722" style="stroke:#181818;stroke-width:0.6;"/><text fill="#000000" font-family="sans-serif" font-size="7.8" lengthAdjust="spacing" textLength="12.576" x="647.4" y="1363.2252">usa</text></g><!--reverse link Concesionario to Vehiculo--><g id="link_Concesionario_Vehiculo"><path codeLine="206" d="M167.0834,901.0186 C200.2454,913.9306 232.578,926.5162 267.516,940.1182 " fill="none" id="Concesionario-backto-Vehiculo" style="stroke:#181818;stroke-width:0.6;"/><polygon fill="none" points="160.374,898.4062,162.8579,901.9488,167.0834,901.0186,164.5995,897.4759,160.374,898.4062" style="stroke:#181818;stroke-width:0.6;"/><text fill="#000000" font-family="sans-serif" font-size="7.8" lengthAdjust="spacing" textLength="69.3659" x="178.8" y="904.8252">crea stockVehiculos</text></g><!--link Concesionario to Persona--><g id="link_Concesionario_Persona"><path codeLine="207" d="M160.224,838.4782 C256.626,806.9842 421.482,771.9502 527.4,852.6082 C533.784,857.4682 527.16,863.7622 532.2,870.0082 C546.078,887.1922 562.6711,898.6364 582.2551,908.2604 " fill="none" id="Concesionario-to-Persona" style="stroke:#181818;stroke-width:0.6;stroke-dasharray:7.0,7.0;"/><polygon fill="#181818" points="585.486,909.8482,581.6981,905.3126,582.7935,908.5251,579.5811,909.6205,585.486,909.8482" style="stroke:#181818;stroke-width:0.6;"/><text fill="#000000" font-family="sans-serif" font-size="7.8" lengthAdjust="spacing" textLength="36.8558" x="345.6" y="801.0252">propietario</text></g><!--reverse link Vehiculo to Persona--><g id="link_Vehiculo_Persona"><path codeLine="209" d="M467.418,961.5578 C508.464,955.2338 548.304,949.1002 585.57,943.3582 " fill="none" id="Vehiculo-backto-Persona" style="stroke:#181818;stroke-width:0.6;"/><polygon fill="#181818" points="460.302,962.6542,464.2255,964.478,467.418,961.5578,463.4946,959.734,460.302,962.6542" style="stroke:#181818;stroke-width:0.6;"/><text fill="#000000" font-family="sans-serif" font-size="7.8" lengthAdjust="spacing" textLength="47.2608" x="479.4" y="950.4252">es propietario</text></g><!--link Persona to Utilidades--><g id="link_Persona_Utilidades"><path codeLine="210" d="M721.428,969.7402 C734.76,978.0982 748.296,987.4282 760.2,997.2082 C801.096,1030.8142 838.8894,1071.9666 869.0034,1107.7866 " fill="none" id="Persona-to-Utilidades" style="stroke:#181818;stroke-width:0.6;stroke-dasharray:7.0,7.0;"/><polygon fill="#181818" points="871.32,1110.5422,869.6821,1104.8644,869.3895,1108.2459,866.008,1107.9532,871.32,1110.5422" style="stroke:#181818;stroke-width:0.6;"/><text fill="#000000" font-family="sans-serif" font-size="7.8" lengthAdjust="spacing" textLength="12.576" x="787.5" y="1012.2252">usa</text></g><!--link Dni to Persona--><g id="link_Dni_Persona"><path codeLine="211" d="M424.632,1130.5762 C437.808,1119.1222 450.654,1105.8442 460.2,1091.4082 C475.134,1068.8182 462,1054.8982 478.2,1033.2082 C495.456,1010.0962 507.438,1012.0042 532.2,997.2082 C549.204,987.0502 561.5891,980.0766 579.1271,970.7226 " fill="none" id="Dni-to-Persona" style="stroke:#181818;stroke-width:0.6;"/><polygon fill="#181818" points="585.48,967.3342,581.1741,966.9108,579.1271,970.7226,583.433,971.146,585.48,967.3342" style="stroke:#181818;stroke-width:0.6;"/><text fill="#000000" font-family="sans-serif" font-size="7.8" lengthAdjust="spacing" textLength="39.0267" x="483.3" y="998.4252">es parte de</text></g><!--link Dni to Utilidades--><g id="link_Dni_Utilidades"><path codeLine="212" d="M424.566,1188.2542 C456.312,1195.8202 496.092,1204.0342 532.2,1207.8082 C632.988,1218.3262 659.358,1217.7742 760.2,1207.8082 C781.86,1205.6662 801.3764,1202.6298 823.1024,1198.4658 " fill="none" id="Dni-to-Utilidades" style="stroke:#181818;stroke-width:0.6;stroke-dasharray:7.0,7.0;"/><polygon fill="#181818" points="826.638,1197.7882,820.8828,1196.4476,823.6916,1198.3529,821.7863,1201.1618,826.638,1197.7882" style="stroke:#181818;stroke-width:0.6;"/><text fill="#000000" font-family="sans-serif" font-size="7.8" lengthAdjust="spacing" textLength="12.576" x="647.4" y="1205.4252">usa</text></g><!--reverse link Vehiculo to Camion--><g id="link_Vehiculo_Camion"><path codeLine="214" d="M469.624,1043.2247 C492.808,1056.9587 508.464,1065.5422 532.2,1077.6082 C550.506,1086.9082 570.66,1096.4902 589.164,1105.0282 " fill="none" id="Vehiculo-backto-Camion" style="stroke:#181818;stroke-width:0.6;"/><polygon fill="none" points="460.332,1037.7202,467.7891,1046.322,471.4588,1040.1274,460.332,1037.7202" style="stroke:#181818;stroke-width:0.6;"/><text fill="#000000" font-family="sans-serif" font-size="7.8" lengthAdjust="spacing" textLength="29.9203" x="488.1" y="1047.0252">herencia</text></g><!--reverse link Vehiculo to Coche--><g id="link_Vehiculo_Coche"><path codeLine="216" d="M470.3576,936.0601 C503.0696,922.4521 522.702,912.8662 527.4,906.0082 C541.278,885.7462 518.898,816.2482 532.2,795.6082 C542.754,779.2222 559.14,767.0302 576.474,758.0362 " fill="none" id="Vehiculo-backto-Coche" style="stroke:#181818;stroke-width:0.6;"/><polygon fill="none" points="460.386,940.2082,471.7403,939.3839,468.9749,932.7362,460.386,940.2082" style="stroke:#181818;stroke-width:0.6;"/><text fill="#000000" font-family="sans-serif" font-size="7.8" lengthAdjust="spacing" textLength="29.9203" x="488.1" y="903.6252">herencia</text></g><!--reverse link Coche to CocheDeportivo--><g id="link_Coche_CocheDeportivo"><path codeLine="217" d="M740.1968,698.5769 C780.8168,681.6929 820.242,665.3122 858.792,649.2862 " fill="none" id="Coche-backto-CocheDeportivo" style="stroke:#181818;stroke-width:0.6;"/><polygon fill="none" points="730.224,702.7222,741.5786,701.9012,738.815,695.2527,730.224,702.7222" style="stroke:#181818;stroke-width:0.6;"/><text fill="#000000" font-family="sans-serif" font-size="7.8" lengthAdjust="spacing" textLength="29.9203" x="778.8" y="669.6252">herencia</text></g><!--reverse link Coche to CocheSedan--><g id="link_Coche_CocheSedan"><path codeLine="218" d="M714.7922,667.4444 C747.4922,632.9324 783.774,597.5602 826.8,564.0082 C831.552,560.3002 836.556,556.6342 841.686,553.0582 " fill="none" id="Coche-backto-CocheSedan" style="stroke:#181818;stroke-width:0.6;"/><polygon fill="none" points="707.364,675.2842,717.4054,669.9205,712.1789,664.9684,707.364,675.2842" style="stroke:#181818;stroke-width:0.6;"/><text fill="#000000" font-family="sans-serif" font-size="7.8" lengthAdjust="spacing" textLength="29.9203" x="778.8" y="578.4252">herencia</text></g><!--reverse link Coche to CocheSuv--><g id="link_Coche_CocheSuv"><path codeLine="219" d="M741.024,734.4082 C781.644,734.4082 820.242,734.4082 858.792,734.4082 " fill="none" id="Coche-backto-CocheSuv" style="stroke:#181818;stroke-width:0.6;"/><polygon fill="none" points="730.224,734.4082,741.024,738.0082,741.024,730.8082,730.224,734.4082" style="stroke:#181818;stroke-width:0.6;"/><text fill="#000000" font-family="sans-serif" font-size="7.8" lengthAdjust="spacing" textLength="29.9203" x="778.8" y="732.0252">herencia</text></g><!--link Coche to Traccion--><g id="link_Coche_Traccion"><path codeLine="220" d="M730.224,761.3182 C784.95,780.6442 852.2174,804.3937 890.8274,818.0257 " fill="none" id="Coche-to-Traccion" style="stroke:#181818;stroke-width:0.6;"/><polygon fill="#181818" points="894.222,819.2242,889.9291,815.1633,891.3931,818.2254,888.331,819.6895,894.222,819.2242" style="stroke:#181818;stroke-width:0.6;"/></g><!--link CocheSedan to NivelConfort--><g id="link_CocheSedan_NivelConfort"><path codeLine="221" d="M1004.514,551.2222 C1009.752,555.2842 1014.774,559.5562 1019.4,564.0082 C1041.354,585.1342 1058.2165,611.3339 1070.5045,633.4319 " fill="none" id="CocheSedan-to-NivelConfort" style="stroke:#181818;stroke-width:0.6;"/><polygon fill="#181818" points="1072.254,636.5782,1071.7272,630.6924,1070.796,633.9563,1067.5322,633.0251,1072.254,636.5782" style="stroke:#181818;stroke-width:0.6;"/></g><!--reverse link Vehiculo to Moto--><g id="link_Vehiculo_Moto"><path codeLine="223" d="M469.3487,897.5703 C475.3067,893.6163 472.29,895.7782 478.2,892.2082 C498.924,879.6862 514.35,889.2022 527.4,868.8082 C533.694,858.9622 527.67,458.9722 532.2,448.2082 C541.848,425.2822 558.15,404.4142 575.7,386.7262 " fill="none" id="Vehiculo-backto-Moto" style="stroke:#181818;stroke-width:0.6;"/><polygon fill="none" points="460.35,903.5422,471.3393,900.5698,467.358,894.5707,460.35,903.5422" style="stroke:#181818;stroke-width:0.6;"/><text fill="#000000" font-family="sans-serif" font-size="7.8" lengthAdjust="spacing" textLength="29.9203" x="488.1" y="866.4252">herencia</text></g><!--reverse link Moto to MotoDeportiva--><g id="link_Moto_MotoDeportiva"><path codeLine="224" d="M770.0993,273.382 C803.4233,257.818 829.374,245.7022 858.792,231.9622 " fill="none" id="Moto-backto-MotoDeportiva" style="stroke:#181818;stroke-width:0.6;"/><polygon fill="none" points="760.314,277.9522,771.6228,276.6437,768.5759,270.1202,760.314,277.9522" style="stroke:#181818;stroke-width:0.6;"/><text fill="#000000" font-family="sans-serif" font-size="7.8" lengthAdjust="spacing" textLength="29.9203" x="778.8" y="255.0252">herencia</text></g><!--reverse link Moto to MotoScooter--><g id="link_Moto_MotoScooter"><path codeLine="225" d="M771.0666,316.6196 C804.3906,313.4876 829.374,311.1442 858.792,308.3842 " fill="none" id="Moto-backto-MotoScooter" style="stroke:#181818;stroke-width:0.6;"/><polygon fill="none" points="760.314,317.6302,771.4035,320.2038,770.7297,313.0354,760.314,317.6302" style="stroke:#181818;stroke-width:0.6;"/><text fill="#000000" font-family="sans-serif" font-size="7.8" lengthAdjust="spacing" textLength="29.9203" x="778.8" y="311.4252">herencia</text></g><!--link Moto to TipoTransmision--><g id="link_Moto_TipoTransmision"><path codeLine="226" d="M760.314,350.6482 C803.31,359.9722 846.7897,369.3977 879.0697,376.3937 " fill="none" id="Moto-to-TipoTransmision" style="stroke:#181818;stroke-width:0.6;"/><polygon fill="#181818" points="882.588,377.1562,877.8189,373.6669,879.6561,376.5208,876.8022,378.358,882.588,377.1562" style="stroke:#181818;stroke-width:0.6;"/></g><!--link Vehiculo to Asegurable--><g id="link_Vehiculo_Asegurable"><path codeLine="228" d="M460.308,1020.2662 C466.296,1022.0302 472.284,1023.5722 478.2,1024.8082 C519.822,1033.5082 557.4548,1034.0989 592.7348,1032.3829 " fill="none" id="Vehiculo-to-Asegurable" style="stroke:#181818;stroke-width:0.6;stroke-dasharray:7.0,7.0;"/><polygon fill="none" points="603.522,1031.8582,592.5599,1028.7871,592.9096,1035.9786,603.522,1031.8582" style="stroke:#181818;stroke-width:0.6;"/></g><!--link Vehiculo to Imprimible--><g id="link_Vehiculo_Imprimible"><path codeLine="229" d="M449.718,873.4702 C458.73,866.3962 468.252,860.0782 478.2,855.0082 C488.01,849.9982 520.068,857.2282 527.4,849.0082 C540.324,834.5122 520.932,165.8182 532.2,150.0082 C545.442,131.4262 557.0659,123.7574 578.7079,117.8114 " fill="none" id="Vehiculo-to-Imprimible" style="stroke:#181818;stroke-width:0.6;stroke-dasharray:7.0,7.0;"/><polygon fill="none" points="589.122,114.9502,577.7542,114.34,579.6616,121.2828,589.122,114.9502" style="stroke:#181818;stroke-width:0.6;"/></g><!--link Vehiculo to Valorable--><g id="link_Vehiculo_Valorable"><path codeLine="230" d="M452.718,873.5422 C455.49,868.2322 458.01,862.8442 460.2,857.4082 C525.234,695.7982 419.028,209.2402 532.2,76.8082 C546.654,59.8942 558.3644,53.5209 579.9164,49.6929 " fill="none" id="Vehiculo-to-Valorable" style="stroke:#181818;stroke-width:0.6;stroke-dasharray:7.0,7.0;"/><polygon fill="none" points="590.55,47.8042,579.2869,46.1484,580.546,53.2374,590.55,47.8042" style="stroke:#181818;stroke-width:0.6;"/></g><!--SRC=[pLZDRXit4BxhAGZt8iULuLw58i1Qab6XagnQSYz1K52xbCnubxCbkKBIn8_KKnyXBzOXzuzBSHsdbze7MU9y7CxFn-6GATjhee58VdZG9E6InPg36AX7Bd8gQKRYb2eLQItvhj1i7eFOyByOkHeCh8Ii9HSnpsbAFWy8kI0PvMAuGRWul7j_FYP7u4af0AKbbKicYg4xVc3AB4dbRHxZVwQ6NEWVoGH4p9GLS73niMHK_iuUU5oaC0p2dchZEb9hu8We3V5ZFL-DIVtrtNihHWSrJK0w2BJ7hhmhLEmiNJfvtigvK4ng1r5_GSmE86LKM1nL_80MhINad6bZMglBnN6n1vbH4vNJHSil5fToPKnkB1usOklJAM2AgwOfEy4n5QMu7XEBb0aODgwDKB86nQqbDEK9DJdoh8rfYigflEDC7U262vgsrhRPgr1JbYFNk7KkXCKKvZH-f0T6pewrtMUOGjH22DqPBiMwP6UJGfjXy_S3qX3LcPMSIDKI6GT68M4fd0nJ0JTqXvgieNKyIjaZJo5ZQCS7rXLOpr1N0iKkPSqmLrEkSX0S1ztGrPCQDep9cac5fAs45oHdk3NBoCjbxLc02oNwSnsU9oyfm_CJ1sj093G_52oXIPlsNcrkyWpSSpG4cndD9Uvb4tvjezip3pT8bakUSJcb6jG4ii9KZsVZqPdHRAhkbAUIOrLvApFHC6j416GxoRn5HeJcBCNyc7hXIHB1nsGgU0iLi48VCyw41ZVOLZIXKZ3TpO6253SVaiFQNTbapFQ9eg5S_3cNq1JNdIAR6WDTAnQpxLsq-MEwcfyuKwTgOLApulkg4CGFL3OOzX5bh8KqF7LG5pLgLMHCGWVcUWuxpGIYcfMytBexewF4mnq3aEuMl329slR5ptms1Icc6JBqh8bY7Tc97NU6ouZXF5mxmSGUgCVX9WUp3qovdfU25CI1woAvOncaVnOiE3i7317kcYLeaBwEYs-LW2xesPqTs7GzMwYDMSMyDdGGFx2cZWTg-SG0l11YVDQ5ELe38T8y1zpwU3Rhih2UUEUaO4bJff5k0JLeGbdYjzMtZjCkpMf0IwJWb9TNuVzMPxyt6pvNJPnn0P2Q7y4BEFO0APDstIlwqzNLixoR74DPmLsxX0JMflNmjzh_JSnGA3PuzlbRbod36vWBv0mtUokqT_cHfTXdOgk6HNlb_EebK2Ll-TCxwvM5g3ZsrRRR_Lu2JKA9HZQbkf1qmV7Ot1IsomgOzWfSnPj9ric5w-nrj9bFRfs1vMmwTt-lxsRB-VsoLt5T93eXdCuMqMexkukSCNFsUYEtssZnZSAQOVLtJwHoJIoEkAvG6JUt87VbPRIwTvGI4jrlRvVHTZw9GYvuLTgSDJuNUCf58cb2Jyj1pbIWvfQyY5JL1mKsb-xQF_OTwg_HNPnJgfzHyCehjebvNR2f5tpaB5Gdt4UUqPvWOat-hU3nu-Q1xx6alVAoRFpTn82dZ0pNvMlw0HhslCgsftJaNdD3oeIfnWziwMES6bE1pMtJEDlhleQPol72G3NRyepTs37DPB3blIuJsFBxskjfNN3LslQro2vqPeuyA5zYx4UmENTdJ6t8ggkQW_UkREwKI4hwgGIgq5BEsqIdYRzXU95OCW7o5_WqN01cqKGhqD6xgzbPIP9b5F_Q83JJtRnnu_uUko0oBzEEBZYv-uvRPAi9pG19kufUmBydJqsasA7eqnCa-vDvJ1cqxtINbs_hcyhOlgQPXojDJIldexezualGPHlr8YHs4z_0TIlU2y1rkJY1UbXdHuv9eKxapOFIkE9SpB_-8-oZqjU_JQIVq-VEmDfaJaII6ARugpGTGMb3L-Zs8K60TvBLZdIVF64qSfsnKUa-W7eJZERwpMFiFaeD1esUDwYqnQ3FBgmM1CDidXv6epVUR2er8mcpqd1scgL__e9hr-HzO9ALsVNazWhPYilVhSXXT2-cud6_tB3Nauv6RKu7ZXOptcdnFNjjCzKgipyRWSF_7aH3-gxSMkDrE-t2bvTVtZgrn1EqLSyJD4Liy2y0]--></g></svg>